<?xml version="1.0" encoding="utf-8"?>
<!-- Generator: Adobe Illustrator 16.0.0, SVG Export Plug-In . SVG Version: 6.00 Build 0)  -->
<!DOCTYPE svg PUBLIC "-//W3C//DTD SVG 1.1//EN" "http://www.w3.org/Graphics/SVG/1.1/DTD/svg11.dtd">
<svg version="1.1" id="图层_1" xmlns="http://www.w3.org/2000/svg" xmlns:xlink="http://www.w3.org/1999/xlink" x="0px" y="0px"
	 width="550px" height="640px" viewBox="0 0 550 640" enable-background="new 0 0 550 640" xml:space="preserve">
<g>
	<path id="xinzhou" fill="#9B64A7" stroke="#FFFFFF" stroke-miterlimit="10" d="M360.833,195.833h10.5l4.333-3.666l5-2.167l3.334-0.833
		l2.333,1.166l2.833,2.167v-12.333l3.5-4.167l3.334-2.667l8.166-0.166L406,171l1.833-1.167l11.833-0.166L424,167.5l2.5-1.833
		l4.333-0.334l2.5,1.5l1.5,2.834v11.5l1.5,2.5l2.333,1.333l3.167,1.5H453l3.833-2.833l0.833-2.5v-2.334l-2.166-1.166l-3.334-1.167
		l-1.833-2.167l0.167-3.166l1.5-2.834l3.666-2.666l3-2.667l4.334-2.167l4-1.166l10.5-0.167l5,3.667l2.833,2.166l2.5,1.5l2.333,0.834
		l2.5-1l0.834-2.167v-7.667l1.5-2.166l2.5-0.167l2.166,2.167v25.5l2.334,3.666l5.666,6.167l4.834,3.833l5.666,3.834l4.5,2.833
		l4.834,2.5l5.666,4.5l2.167,5.167l0.833,2.666l-1.666,3l-3.667,4l-4.333,4.834l-4,3l-3.667,2l-4-1.5L510.666,229h-2.5l-2,3.833
		L506,237.167L505.166,244l-1.833,4.167l-3,3.5l-4.333,2h-6.334l1.334,5.5l0.5,3.333l-2.167,1.833H485l-1.834-1.833l-2.833-2.5
		l-2.5,0.833l-3,1.5l-3.167-1l-3.5-0.833l-3.333-1l-4,0.667l-0.667,3l-0.666,7.5l-1.834,2.5l-3.666,3.5l-4.834,3.5l-5.333,2.5
		l-4.667,3L432.5,288.5l-3.834,1.667l0.167,3.666L431,297.5l5,5.5l1.5,2.5l0.333,3.167l4.833,3.166l6.167,4.5l3.333,3.667
		l1.167,4.334L453,328l1,2.167l4.166,2.167l4.5,2.5L465.5,338l3.167,3l4.333,5.5l1.667,5.667l-0.5,12.333l-1.834,4.667l-3.833,5.5
		l-4.5,2.5h-5.167l-5.333-1.333l-5.833-4.667l-3.334-3.5L440.5,363.5l-4.167-5.666L433.167,352l-3.5-2.833l-5.167-1.5l-5.167-0.333
		L414,349.667l-4,3.5l-3.333,3.5L403,360.5l-6,3.334L390.333,366l-7.833,1.833L375.167,369l-7.5,2.333L357.333,373L357,370
		l-2.75-5.75l-4.5-5l-3.25-4L344,350l-2.25-5.5l-2-7l-1-5.5l-1.709-5l-3.291-7l-3.25-5.25l-3.5-3.5l-3.375-7.125l-2-4.75l-3.375-6.5
		l-3-5.375l-2-4.125l0.25-2.75l1.5-3.25l1.625-2.125l0.5-3.75l-0.875-3.375l-0.375-3.875l0.75-4.625l2.25-2.375l4.25-2.125
		L328,253.5l4.375-0.75l5.25-1.25l4.125-0.75l4.375-1l3.375-0.875l2.25-2.5l2-3.375l0.625-2.5l0.375-16.125l1.5-2.625l2.125-2
		l1.625-1.625l0.833-3.375V195.833z"/>
	<path id="caidian" fill="#3A8F39" stroke="#FFFFFF" stroke-miterlimit="10" d="M164,351.5l-4-3.25l-2.25-0.75l-20.25,0.75l-3.25-1.25v-6
		l-3.583-0.333L126.5,340.5l-5.167-3.667L118.5,334l-3-2.667l-1.167-6.666l-1-4.667l-2-3.5l-2.166-4.333L105.833,310l-2-1
		L102,308.833l1,4.333l-1.167,2.334l-3,2l-2.666,2.5l-1.667,3v3l0.5,7.833l1.333,4.833l1,5.334L99,348.333l0.167,3.5l-0.5,4
		l-2.834,3.833h-3.5h-5.166h-3.334l-3,1.334l-2.666,5L77.5,382.833l-1.167-0.5l-1.5-2.167l-1-1.666l-3-0.167l-2.5,1.5L67.5,382.5
		l-2.167,5.666l-5,4.667l-4,4.5l-4.166,6l-6,10l-10.5,11.167L29.5,426l-4.5,1.833L18.833,432l-3.5,3.166l-1.666,2.5v4.834
		l1.166,3.833l1.667,2.5l3,1.667l5.167,1.666l4.5,1.5V468l1.333,1.833l2,2.167l2.667,2.5v9.666l1.666,3.334l3.5,3.666l2.834,2.667
		l0.666,3.667v8.834l6.834-4.833l3.666-3.667l2.5-2l2.667-1.333h2.667l2.5,1l2.5,2.167l3.833,1l3-0.667l2.167-1.5l1.666-2.833
		l1.667-3.834l1.667-4.666l1.666-1.667l3.334-1.833l2.333-3.501l0.833-11.833l1.167-2.5l1.833-3.667l1.167-2.166l33.5-0.167
		l2.5,1.167l3,0.5l2.5-2.167l4.167-0.833l3,0.166h5.5h3.833l3-1l0.833-1.833l1.834-2.667l1.5-0.833l1.833,0.833l1.667,1.334l4,4.333
		l1.5,4.167l2,4l3.833-2l3.5-5.334l4.5-5.833l3.5-4.333l1.833-5.834l1.584-3.833l2.916-3.333l3.334-5.334l1.5-4.833l2.333-3.5l2-3
		l4.833-5.667l5.167-4.666l1.5-3.834l-0.083-4.25l-1.834-1.667L209,394.583l0.333-2.333l1.417-2.25l1.833-1.75l0.25-2.5
		l-0.583-2.167l-1.417-1.666l-1-1.5l-3.666-0.834l-3.334-1.916l-3.666-1L195.5,375.5l-4-3.167l-3-1.833l-5.833-1.667l-4.334-1.166
		l-5.666-5.334l-2-4l-4.334-3.5L164,351.5z"/>
	<path id="dongxihu" fill="#75499A" stroke="#FFFFFF" stroke-miterlimit="10" d="M189.5,271.5l-2.833-2.167l-3-2.166l-5.334-2l-29-1.5L146.667,263
		l-5.167-2.833L134.667,259l-4.5,0.333L126.333,260l-3.166,2.5L121,265.333l-15,0.334l-3.833,1.666l-8.667,6.334l-3.833,3.833
		L87.5,282l-2,4.667L86,292l2,4.5l2.667,3.5L96,303.5l3.833,2.333l2.167,3l1.833,0.167l2,1l3.334,2.167l2.166,4.333l2,3.5l1,4.667
		l1.167,6.666l3,2.667l2.833,2.833l5.167,3.667l4.167,0.167L134.25,341v6l3.25,1.25l20.25-0.75l2.25,0.75l4,3.25h4.25l6.583-1.5
		v-7.5l0.834-3.5l1.666-4.458l2.5-1.542l3-1.166l7.667-0.667h10h7.5l8.625-1.417l3.208-1l3.542-1.625l3.875-1.477l3.917-1.481
		l3.75-2.667l3.416-1.5l2.334-0.833L244.5,318l2.333-1.667l1.5-1.833l1.5-5.125l0.334-2.208h-4.5h-4l-4.334-1l-3.166-0.334h-3.5
		l-3.334,1.334l-3.666,2.333l-3,2.833L217,313.167l-2.667-0.667l-2.833-1.333l-3.167-1.834l-3.5-0.833l-3.666-1.333l-3-1.667
		l-2.667-2.833l-0.333-3.5l1.333-2.834L198,293l0.5-4.333l-0.333-4l-1.167-4l-3.667-4.5L189.5,271.5z"/>
	<path id="hannan" fill="#70BA2B" stroke="#FFFFFF" stroke-miterlimit="10" d="M43.833,506.563v4.104l1,3.333l2.667,3.333l2.833,2L57,522.5
		l3,2.333v15.334l2.5,1.5h3l2.167-2.834L70,536l3-0.167l4.167,2.667l1.666-4.333l3.667-8.834L85.667,518l1.666-4.167l2.5-6.333
		l3-5.667l4.834-5l4-3l6.166-2.5l4.5-1.333l6.167,1.333l3.833,3L126,498.5l2.333,3.833l4.5,7l2.834,6.167l4.833,7.583l1.833,2.5
		l3.917-3.333l6.5-6.416L157,511l1.75-4.666l1.5-7.834V479l1.25-3.5l2.75-5.5l1.5-2l3.917-2.999l-2-4l-1.5-4.167l-4-4.333
		l-1.667-1.334l-1.833-0.833l-1.5,0.833l-1.834,2.667l-0.833,1.833l-3,1h-3.833h-5.5l-3-0.166L135,457.334l-2.5,2.167l-3-0.5
		l-2.5-1.167l-33.5,0.167l-1.167,2.166l-1.833,3.667l-1.167,2.5L88.5,478.167l-2.333,3.501l-3.334,1.833l-1.666,1.667l-1.667,4.666
		l-1.667,3.834l-1.666,2.833l-2.167,1.5l-3,0.667l-3.833-1l-2.5-2.167l-2.5-1H59.5l-2.667,1.333l-2.5,2l-3.666,3.667L47,504.167"/>
	<path id="hanyang" fill="#675324" stroke="#FFFFFF" stroke-miterlimit="10" d="M164,351.5l2.333,3.333l4.334,3.5l2,4l5.666,5.334l4.334,1.166
		l5.833,1.667l3,1.833l4,3.167l3.667,1.167l3.666,1l3.334,1.916l3.666,0.834l1,1.5l1.417,1.666l0.583,2.167l-0.25,2.5L210.75,390
		l-1.417,2.25L209,394.583l1.083,3.167l1.834,1.667l2.916-1.25l2.667-2.666l2.083-1.667l3.417-3.667l1.917-2.416l1.5-2.167l2-2.667
		l2.333-3.166l1.667-2.834l1.666-3.833l0.417-2.5l0.5-3.334l1-4.083L234,364h-1.667h-1.166h-11.584l-2.75-2l-4.166-2.833
		L209.333,357l-2.5-1.5l-2-0.833L197.167,354L195,352.334L191.417,350l-1.917-2.416l-2.667-0.917l-4.166,0.167L178,349l-3.167,1
		l-4.541,0.75L164,351.5z"/>
	<path id="hongshan" fill="#633F95" stroke="#FFFFFF" stroke-miterlimit="10" d="M357.333,373.751L356.625,376l-1.75,3.875l-2.625,3.75l-3.5,3.25
		L346,384.25l-3.75-2.25l-5.209-1.688l-5.791,1.438l-2.5,3.75l-1.75,4.143l-1.5,6.107l-2.25,3.667l-2,3.833l-5.25,3h-4.75l-4.5-2
		l-3.084-4.833l-3.416-2.167l-4.5-1.5h-6.25l-2.5,3.667l-1.75,4.333l-2,1l-2.917-1.25l-4.834-3L273,399.417h-1.75L270,402.25l-1,4
		l-1.833,4l-1.917,5.25l-1.5,5l-3.5,1.25H257l-5.5-2.25l-4-2.25l-5.5-2l-3.167,0.5l-2.166,1l-2.5,5l-0.792,3l-2.208,2.25h-2.917
		h-4.5l-4.167-1.5l-1.833,4.5v7.25v3l-2,3.25h-2.917L212,440.25l-2.75-1.5l-3,0.25l-2.667,1.75l-1.666,1.5l-3.667-2.5L194,437
		l-2.667-2.499l3.334-5.334l1.5-4.833l2.333-3.5l2-3l4.833-5.667l5.167-4.666l1.5-3.834l-0.083-4.25l2.916-1.25l2.667-2.666
		l2.083-1.667l3.417-3.667l1.917-2.416l1.5-2.167l2-2.667l2.247-3.049l0.086-0.117l1.583,1.999l1.042,3.75l0.792,4.084L235,393.75
		l1.667,2h6.583l2.625-0.75l3.125-2.625l2.25-4.125l2.125-2.5l1.625-2l3-1.125l2.875-0.875l2.875-0.125l3.625,0.875l3.75,1.25H275
		l0.499-0.875l-2.124-1.75l-1.125-1.875l-0.375-2.375l0.5-2.5l1-2L275,370.25l1.875-1.75l1.125-1.75l-1.375-1.375l-3.125-0.125
		l-3.25,0.625l-2.875,2l-1.625,2.625l-1,3.251l-2.625,1.708l-3.562,0.666l-3.938-2.374l-1.25-2.292v-3.584v-3.125l0.625-4.625
		l1-3.75l1-3.875l1.25-1.75l2.25-2l2.375-2.083l1.875-2.417l5,1.5l6.749,1.25H284l6.5-1l6-1.25l6.5,1l5.5,3.25l3.25,3.25l3.25,4
		l3.75,3l2.75,1.5l4.25-1.5h4.5h9.25h5.334h4.916v0.417l4.5,4.583L357,370l0.333,3"/>
	<path id="huangpi" fill="#3D60AC" stroke="#FFFFFF" stroke-miterlimit="10" d="M189.5,271.5l2.833-1.667L192,245.5l-1.333-1.333l-2.167-3
		l0.333-3.5l2-2.5l-0.333-9.334l-2.667-5l-1.333-5l-1.833-6.333l-0.834-7.167l-0.666-7.666l-0.5-6l1.333-4.334l2.167-4.666
		l1.166-3.5L187.5,165l-2.5-5l-0.833-5.833l0.666-6.667l1.667-5.167l3.667-2.833l4-3.667l1-27.333l3.666-3.333l6.667-3.334L210,96.5
		l2.667-3.667l0.666-4.166l0.5-8l-9.666-6.334l-5.667-4.5l-5.167-8.167l-2-5.666v-6.333l5.5-6.334V32.667l6.5-5.167L207,23.167
		l2.333-5l2.834-3.334L216.5,11.5l4.833-2.833h11l5.334,2.5l4.5,3L244.833,18l2.334,1.5l6.166,1.333L260.167,21l4.666,2.333h7.667
		l6.667-1.166L286,21.5l2.167,3v5.167l-2,5.333l-2.667,5.167l-2.5,4.5l-0.166,19.166L284.5,67.5l3,2.167l4,1.333l4.834,1.333
		l3,4.334l1.5,4l-1.5,5.833l4.833,3.5l4,2.833l4.333,1.334l5.5,2l3.833,3.666l3,5.834v21.166l-1,5l-2.833,6L319,143l-1.5,4.5
		l0.333,7l8.501,6.167l5.333,4.5l7.167,5.666l7.832,7.667l6.667,8l7.5,9.333v18.917L360,218.125l-1.625,1.625l-2.125,2l-1.5,2.625
		l-0.375,16.125l-0.625,2.5l-2,3.375l-2.25,2.5l-3.375,0.875l-4.375,1l-4.125,0.75l-5.25,1.25L328,253.5l-4.875,1.625l-4.25,2.125
		l-2.25,2.375l-0.75,4.625l0.375,3.875l0.875,3.375l-0.5,3.75L315,277.375l-1.5,3.25l-0.25,2.75l2,4.125l3,5.375l3.375,6.5l2,4.75
		L327,311.25l-5.333-1.917L316,308.167l-6.167-0.667h-7L291,307.667l-6,0.5l-4.667,0.166L275,306.667l-4.333-1.167l-2.334,0.333
		l-3.666,1.334L262,308.333l-4.5-0.166l-4.167-0.5l-3.166-0.5h-4.5h-4l-4.334-1l-3.166-0.334h-3.5l-3.334,1.334l-3.666,2.333
		l-3,2.833L217,313.167l-2.667-0.667l-2.833-1.333l-3.167-1.834l-3.5-0.833l-3.666-1.333l-3-1.667l-2.667-2.833l-0.333-3.5
		l1.333-2.834L198,293l0.5-4.333l-0.333-4l-1.167-4l-3.667-4.5L189.5,271.5z"/>
	<path id="jiangan" fill="#59C2DD" stroke="#FFFFFF" stroke-miterlimit="10" d="M280.333,308.333l-3.083,4.834l-3.75,4.083l-4.25,4l-3.75,3
		l-5.75,4L254,334l-4.167,4.5l-3,3.5l-3.666,5L241,352.667l-3.667,8.083l-1.666-2.583L234,355.334L233,352l1.167-3l2-2.833
		l1.833-2.333l0.667-3.667l0.166-2.833l-0.666-2.792L236,332.667l-1.083-2.5L233,328.334l-1.833-4.167l3.75-2.667l3.416-1.5
		l2.334-0.833L244.5,318l2.333-1.667l1.5-1.833l1.5-5.125l0.334-2.208l3.166,0.5l4.167,0.5l4.5,0.166l2.667-1.166l3.666-1.334
		l2.334-0.333l4.333,1.167L280.333,308.333z"/>
	<path id="jianghan" fill="#4963AD" stroke="#FFFFFF" stroke-miterlimit="10" d="M232.333,364H234l2-0.833l1.333-2.417l-1.666-2.583L234,355.334
		L233,352l1.167-3l2-2.833l1.833-2.333l0.667-3.667l0.166-2.833l-0.666-2.792L236,332.667l-1.083-2.5L233,328.334l-1.833-4.167
		l-3.917,1.481l-3.875,1.477l-3.542,1.625l-3.208,1L208,331.167l1.333,4.833l2.334,2.167l3.166,1.5l3.334,0.917v6.916l3.166,4
		l3.167,2.5l3.833,2l2.834,1.333V364"/>
	<path id="jiangxia" fill="#78C7BE" stroke="#FFFFFF" stroke-miterlimit="10" d="M191.333,434.501l-2.916,3.333l-1.584,3.833L185,447.501
		l-3.5,4.333l-4.5,5.833l-3.5,5.334l-3.833,2L165.75,468l-1.5,2l-2.75,5.5l-1.25,3.5v19.5l-1.5,7.834L157,511l-4.25,4.834
		l-6.5,6.416l-3.917,3.333l1.334,2.584l2.166,1.667l3,1.167l2.667-1.5l2.667-1.834L167,527.501l8,6.333v6.334l2.167,3.666
		l2.833,3.834l4.167,4l4.333,3.166v7.667l1.167,3.833l3.833,5.5l3.167,3.5l4.5,3.5l3.666,3.667L205,597.834l2.5,4.167l2.333,4.333
		l1.667,4.167l1.5,4.666l4.333,5.667H233.5l3.333-1.833l3.834-2.167l4.166-2.333l5.334-1l4.666-2.5l5.834-2.667L265,607l13.5-0.25
		l15.5,9.75l7.25,0.375l6.625,6l7.875,0.625l10,3.75l3.875,1.75l3.5,0.875L335.5,629l1.375-2.625V609.5l1.25-2.5l2.125-4.75
		l0.25-8.125v-4.875l-2.25-5.875l-2.375-3.625l-2.875-2.5l-2.25-3l-1.375-2.75l-1.25-3.375l0.25-32l2-5l2.125-3.25l3.875-4.375
		l2.125-4.375V515l0.375-4l0.875-3.125l1.625-3.625l2.625-4.125l2.375-3.75l3-4.75l2.75-3.625l2.25-3.5l2-2.75L357,479
		l-0.125-11.625l1.5-2.75l1-2l0.5-3.625l0.125-6.5l-2.625-1.875l-1.875-1.25l-0.625-3l-0.625-7l-0.625-4.625l-1-4.375l-0.75-4.375
		v-4.375l0.5-4.625l0.375-13.75v-3.5l-0.5-2.25l-1.75-2.75l-1.625-3.5l-0.125-4.375l-0.577-0.551L346,384.25l-3.75-2.25
		l-5.209-1.688l-5.791,1.438l-2.5,3.75l-1.75,4.143l-1.5,6.107l-2.25,3.667l-2,3.833l-5.25,3h-4.75l-4.5-2l-3.084-4.833
		l-3.416-2.167l-4.5-1.5h-6.25l-2.5,3.667l-1.75,4.333l-2,1l-2.917-1.25l-4.834-3L273,399.417h-1.75L270,402.25l-1,4l-1.833,4
		l-1.917,5.25l-1.5,5l-3.5,1.25H257l-5.5-2.25l-4-2.25l-5.5-2l-3.167,0.5l-2.166,1l-2.5,5l-0.792,3l-2.208,2.25h-2.917h-4.5
		l-4.167-1.5l-1.833,4.5v7.25v3l-2,3.25h-2.917L212,440.25l-2.75-1.5l-3,0.25l-2.667,1.75l-1.666,1.5l-3.667-2.5L194,437
		L191.333,434.501"/>
	<path id="qiaokou" fill="#3C489C" stroke="#FFFFFF" stroke-miterlimit="10" d="M208,331.167l1.333,4.833l2.334,2.167l3.166,1.5l3.334,0.917
		v6.916l3.166,4l3.167,2.5l3.833,2l2.834,1.333V364h-11.584l-2.75-2l-4.166-2.833L209.333,357l-2.5-1.5l-2-0.833L197.167,354
		L195,352.334L191.417,350l-1.917-2.416l-2.667-0.917l-4.166,0.167L178,349l-3.167,1v-7.5l0.834-3.5l1.666-4.458l2.5-1.542l3-1.166
		l7.667-0.667h10H208z"/>
	<path id="qingshan" fill="#EB5F23" stroke="#FFFFFF" stroke-miterlimit="10" d="M327,311.25l-5.333-1.917L316,308.167l-6.167-0.667h-7
		L291,307.667l-6,0.5l-4.667,0.166l-3.083,4.834l-3.75,4.083l-4.25,4l-3.75,3l-5.75,4L254,334l3.25,4.5l2.75,2.75l3.75,3l5,1.5
		l6.749,1.25H284l6.5-1l6-1.25l6.5,1l5.5,3.25l3.25,3.25l3.25,4l3.75,3l2.75,1.5l4.25-1.5h4.5h9.25h5.334h4.916l-3.25-4L344,350
		l-2.25-5.5l-2-7l-1-5.5l-1.709-5l-3.291-7l-3.25-5.25L327,311.25"/>
	<path id="wuchang" fill="#15A26C" stroke="#FFFFFF" stroke-miterlimit="10" d="M236,363.167l-1,4.083l-0.5,3.334l-0.417,2.5l-1.666,3.833
		l-1.667,2.834l1.583,1.999l1.042,3.75l0.792,4.084L235,393.75l1.667,2h6.583l2.625-0.75l3.125-2.625l2.25-4.125l2.125-2.5l1.625-2
		l3-1.125l2.875-0.875l2.875-0.125l3.625,0.875l3.75,1.25H275l0.499-0.875l-2.124-1.75l-1.125-1.875l-0.375-2.375l0.5-2.5l1-2
		L275,370.25l1.875-1.75l1.125-1.75l-1.375-1.375l-3.125-0.125l-3.25,0.625l-2.875,2l-1.625,2.625l-1,3.251l-2.625,1.708
		l-3.562,0.666l-3.938-2.374l-1.25-2.292v-3.584v-3.125l0.625-4.625l1-3.75l1-3.875l1.25-1.75l2.25-2l2.375-2.083l1.875-2.417
		l-3.75-3l-2.75-2.75L254,334l-4.167,4.5l-3,3.5l-3.666,5L241,352.667l-3.667,8.083L236,363.167z"/>
<circle fill="none" stroke="#FFFFFF" stroke-miterlimit="10" cx="380.417" cy="251.167" r="2.25"/>
<circle fill="none" stroke="#FFFFFF" stroke-miterlimit="10" cx="97.083" cy="409.834" r="2.25"/>
<circle fill="none" stroke="#FFFFFF" stroke-miterlimit="10" cx="129.5" cy="305.25" r="2.25"/>
<circle fill="none" stroke="#FFFFFF" stroke-miterlimit="10" cx="113.25" cy="475.835" r="2.25"/>
<circle fill="none" stroke="#FFFFFF" stroke-miterlimit="10" cx="184.917" cy="364" r="2.25"/>
<circle fill="none" stroke="#FFFFFF" stroke-miterlimit="10" cx="282.583" cy="373.042" r="2.25"/>
<circle fill="none" stroke="#FFFFFF" stroke-miterlimit="10" cx="241.083" cy="171.952" r="2.25"/>
<circle fill="none" stroke="#FFFFFF" stroke-miterlimit="10" cx="245.583" cy="328.667" r="2.25"/>
<circle fill="none" stroke="#FFFFFF" stroke-miterlimit="10" cx="225.667" cy="341.833" r="2.25"/>
<circle fill="none" stroke="#FFFFFF" stroke-miterlimit="10" cx="243.333" cy="487.25" r="2.25"/>
<circle fill="none" stroke="#FFFFFF" stroke-miterlimit="10" cx="203" cy="344.25" r="2.25"/>
<circle fill="none" stroke="#FFFFFF" stroke-miterlimit="10" cx="284.833" cy="326.417" r="2.25"/>
<circle fill="none" stroke="#FFFFFF" stroke-miterlimit="10" cx="245.583" cy="364" r="2.25"/>
</g>
</svg>
