<?xml version="1.0" encoding="utf-8"?>
<!-- Generator: Adobe Illustrator 16.0.0, SVG Export Plug-In . SVG Version: 6.00 Build 0)  -->
<!DOCTYPE svg PUBLIC "-//W3C//DTD SVG 1.1 Tiny//EN" "http://www.w3.org/Graphics/SVG/1.1/DTD/svg11-tiny.dtd">
<svg version="1.1" baseProfile="tiny" id="图层_1"
	 xmlns="http://www.w3.org/2000/svg" xmlns:xlink="http://www.w3.org/1999/xlink" x="0px" y="0px" width="860px" height="650px"
	 viewBox="0 0 860 650" xml:space="preserve">
<g>
	<path fill="#0A3BED" stroke="#FFFFFF" stroke-miterlimit="10" d="M190.5,340l2.167-1.833l3-3L198.5,333l4.667-3.166l3.5-1.834
		l3.625,0.5l2.708,0.167l3,1l1.252,0.197l-0.752,3.303V337l0.833,3.5l2,2.334l2,3.833l2,3.333l1.834,4.834l0.333,4.333l-0.5,3.167
		l-1.667,3l-1,3.333l-0.166,4l0.333,4.5V381l-2.167,3.5l-3,4l-3.833,5.666l-3.167,4l-1.666,3.417l0.666,3.917H211h5l3.917,2.166
		l0.583,2.834v3.5v10v7l-0.833,3.333l-2.334,2l-3.5,2l-3,3.333l-1,3.334l-0.5,4l1,5.666l0.334,5.5l0.166,3.667L210.5,467.5l-3.167,3
		l-2.916,2.5l-1.917,3.166V480l0.833,3.333l2.167,3l1.5,3.833l-0.833,4.167l-1.667,4l-1.167,4.167l0.334,3.5l1.666,1.75l3.167,0.75
		h4.5l5.167-0.834l1.833-2.333l3.083-1.167l2.417-0.333l0.668-2l1.833,2.334l0.833,3.666l-2.833,2.834l-0.333,4l2.333,3.833l4,2.667
		l1.667,1.5l1.333,4.5l0.167,4.833l-1.667,5.833l-4.333,2.667l-6.5,2l-10.333,3.5l-4.167,0.333l-4.833-2.5l-3.333-4.333
		l-1.333-4.167l-3.167-0.166c0,0-2.166,0.333-2.333-0.167s-1.667-3.333-1.667-3.333l-4.5-1.583l-3.833,0.416H173l-9.499,1.833
		c0,0-6.833,1.334-7.333,1.334s-5.333,2-5.333,2l-1.667,2.833l-1,3.167l-0.833,1.666l-3.333,0.167l-1.667,2.667L141.667,550L140,554
		l-4,1.167l-1.501-3V550l-1.166-1.333l-7.667-0.334L120.834,550l-2,4.167l-1.167,5.166l0.667,4.167l-2.667,2.167l-3.5,0.333
		c0,0-1.333,2.667-1.5,3.5s-2.167,5.166-2.167,5.166V579v3l-3.249,2c0,0-0.751,3.166-0.751,3.666s0,4.334,0,4.334v5l-1.833,2.833
		c0,0-0.833,2.999-1.167,3.833s0,3.667,0,3.667L99.834,611c0,0-2.833,0.834-3.833,1s-3.5-0.166-4,0s-3.5-3.834-3.5-3.834
		s-2.833-5.334-3.333-6.5s-1.833-5.666-1.833-6.333s-1-3.5-1-3.5s-1.833-0.501-2.333-1.167s0-7,0-7l-1.333-2.166l-3-1.667
		l-1.5-0.667c0,0-1.333,0.666-1.5,1.5s-1,3-1,3s-1.833,1.75-2.5,1.917s-3.5,0.917-4.333,0.917s-3.834,0-3.834,0
		s-0.667-3.334,0-3.834s1.334-3.5,1.334-3.5l-1.631-2.333l-2.536-2.667l-0.833-4l0.833-3.666l2.667-3.5l-0.333-3.334l-3.167-1
		L56.001,557l1.5-2.5l1-5l-0.833-2.833l-1.667-0.334L53.667,547l-4.167-1.333V543l-0.833-2.167l-1.667-1l-2,2.667l-3.667,0.333
		l-3.75-2.333l-1.084-5V531v-4l-3.333-3.5l-4.333,1l-2.333,3.667c0,0-1.833,3.833-2,4.333s-1.333,4.833-1.333,4.833l-1.167,3
		l-3.667,0.334l-3-4.5l-4.5-4.334c0,0-2.417-3.5-2.584-4s-1.75-5-1.75-5V520l2.167-1l2.833-0.333l3.833-0.167l2.667,0.167l2.333,0.5
		c0,0,1.833,0.5,2,0s0.167-3.167,0.167-3.667s0.333-4.5,0.333-4.5l-0.167-5l-0.5-7.667l-1.833-3.833l2.333-4.167l1.832-5l0.67-5.333
		l0.167-5.5l-0.833-5l-4.667-4.667l-5.833-3.5L8.5,457.5l0.167-4.167l3.5-3L13.833,447l2.333-5.167l3.167-2.166l5.5-0.334
		l3.333,1.167l5.167,0.833l2.167-3V434v-3l2-0.666l3.167,1.166l2.333,3l2.333,2.667l2,0.833l3.167,0.334l4.167-0.834l4.167-0.333
		L61,436l1.333-3.667l4-4.833l3-4.833l4-1.5L77.167,421c0,0,4,0.001,4.5,0.167S85,423,85,423l0.333,3.167l-1.667,5l-0.5,3.333
		l3.333,0.667l4.833-1.334L95,432l0.5-4.167l0.5-2.5l2.333-1.166c0,0,4.491,0.831,4.5,0.833c3.666,0.681,4.294,4.065,4.798,6.995
		c0.089,0.515,1.323,7.142,1.382,7.115c2.387-1.063,3.613-5.704,5.153-7.777l3.833-5.166c0,0,3.794-3.465,3.833-3.5
		c1.255-1.114,2.353-2.965,4.197-3.119c1.971-0.164,3.536,2.032,5.549,1.285c1.422-0.527,2.161-3.093,2.753-4.333l3.667-7.667
		l5.167-5.666l4.333-3.5l4.333-3.167l4.333-2.667L161,391.5h4c1.184,0.444,2.296,0.826,3.36,1.517c1.147,0.743,2.523,1.857,4,1.56
		c1.443-0.294,2.09-2.074,3.639-2.074c0,0,1.667,2.499,1.667,2.5c0.804,1.205,1.792,4.58,2.952,5.285
		c1.302,0.792,2.797-1.085,3.881-1.952c0,0,2.834-2.499,3.167-3.166s1.5-3.167,1.5-3.167s1.829-4.988,1.833-5
		c1.09-2.974,1.146-5.177-0.366-7.879c-1.564-2.794-2.375-5.854-3.132-8.945c-0.274-1.122-0.037-4.805,0.418-5.81
		c0.965-2.133,4.109-2.04,5.477-3.779c1.744-2.218,0.295-5.628-0.098-8.086c-0.693-4.338-2.047-8.548-2.64-12.899"/>
</g>
</svg>
