<?xml version="1.0" encoding="utf-8"?>
<!-- Generator: Adobe Illustrator 16.0.0, SVG Export Plug-In . SVG Version: 6.00 Build 0)  -->
<!DOCTYPE svg PUBLIC "-//W3C//DTD SVG 1.1 Tiny//EN" "http://www.w3.org/Graphics/SVG/1.1/DTD/svg11-tiny.dtd">
<svg version="1.1" baseProfile="tiny" id="图层_1"
	 xmlns="http://www.w3.org/2000/svg" xmlns:xlink="http://www.w3.org/1999/xlink" x="0px" y="0px" width="860px" height="650px"
	 viewBox="0 0 860 650" xml:space="preserve">
<g>
	<path fill="#1EF489" stroke="#FFFFFF" stroke-miterlimit="10" d="M663,409.5h-2h-2h-2.999l-3.667,1.416L650.167,413l-2.333,2.5
		l-2.667,3l-1.833,2l-1.833,2.5l-1.001,2v3.167l0.416,3L641.5,436v4v3v4v2.333l-1.334,3.334l-1.999,4.5l-2.333,3L633.848,464
		l-0.348,3v2.5l1.494,3.166l1.84,2.834l2.834,2.166l1.833,1.334l3,1.166l2.666-0.166l4.167-0.334l3.667-1.166l1.166-2.834
		l0.667-3.333l-0.833-3.833l-2-3.334l-2.5-2.5l-1.834-2.333l-0.666-2.667l-0.5-2.666l0.666-3l1.834-2l4.333-2.563l4.167-0.771
		l3.5-0.166l3.5,0.938l2.166,2.563l3,2.333l1.834,1.833l3,3L680,458.5h3.001l2-0.75l2.5-2.417l2-1.667l1.833-1.666l0.667-2
		l0.666-2.563L693.5,445v-2v-3.834l-1.084-1.666l-2.082-1.667l-3-1.5l-3-0.333l-2.5,0.167L679,434.5h-3.499l-2.334-0.583
		l-2.166-1.084l-1.673-2.333l-1.827-2.667L666.5,425v-4v-3v-4l-1.25-2.5L663,409.5"/>
</g>
</svg>
