<?xml version="1.0" encoding="utf-8"?>
<!-- Generator: Adobe Illustrator 16.0.0, SVG Export Plug-In . SVG Version: 6.00 Build 0)  -->
<!DOCTYPE svg PUBLIC "-//W3C//DTD SVG 1.1 Tiny//EN" "http://www.w3.org/Graphics/SVG/1.1/DTD/svg11-tiny.dtd">
<svg version="1.1" baseProfile="tiny" id="图层_1"
	 xmlns="http://www.w3.org/2000/svg" xmlns:xlink="http://www.w3.org/1999/xlink" x="0px" y="0px" width="860px" height="650px"
	 viewBox="0 0 860 650" xml:space="preserve">
<g>
	<path fill="#6BEF2E" stroke="#FFFFFF" stroke-miterlimit="10" d="M663.21,409.834l2.478-2.334l0.813-2.667V402l-1.5-3.834l-1.5-4.5
		V391l1.438-3.167l2.396-1.667l3.167-2.5l4.667-1.833l4.666-2.333l4-0.5l4.5-0.5H692l1.5-1l-1.332-4.167l-2-3l-2-1.667L684.834,367
		l-2.833-1.667l-1.667-2.833l-1.938-3l-2.063-2.25l-3.5-0.75H669l-1.666,2l-2.166,2.666l-0.334,3.5l-0.666,2.5L663.127,368
		l-2.626,0.166l-2.5-2l-2.5-1.5l-2.167,0.5l-3,1.667l-2.166,1.5l-3.334,0.5l-3-0.5l-3.333-1.5l-2-1.667l-2.653-2.666l-1.347-4.167
		l-2-5.167l-1.5-5.5l-2.5-5l-2.917-3.5l-3.084-4V330l-0.25-7.5l0.875-1.375l0.625-4.375l0.875-2.5l1.25-2.875l1.75-2.25l1-2.5
		l0.125-2.75l0.125-3.625l-0.125-2.5l1.25-2.875l1.125-3.125L631.5,288v-0.125l2.188,1.75l2.156,1.125c0,0,1.767-1.125,2.392-1.625
		s3.133-1.625,3.133-1.625l1.379,1.375l1.127,1.875l1.126,1.563l1.376,1.188H649l4.125,0.5l3.375,2.625c0,0,0.625,2.75,0.75,3.125
		s1.125,3.375,1.125,3.375L659,305.25l1.625,1l3.125-0.625l3-2.125l2.125-1H672h2l3.125,0.375l2,0.125l2.375-2.125l2-2.75
		l1.375-3.625l0.625-2.5v-3l0.75-2.75l3.125-2.375l2.125,0.375l3.75,1.125l2.125,1.5l1,2.125l1.125,2.75V295v4v2l0.75,4.125
		l1.438,1.125l1.813,1.625V311l1.5,0.813l3.75-1.313H712l3,0.75l1.375,2.25l2.5,1H721l3.75,1.75l1.75,2.625c0,0,1.875,2,2.125,2.375
		s2.25,3.75,2.25,3.75l1.875,4.125l1.5,2.625l1.5,2.625l2.375-0.875l3.125-2l3.625-2.25l2.875-0.625c0,0,1.625,0.25,1.875,0.625
		s1.375,1.625,1.5,2.125s0.875,3,0.875,3l2.125,2.625l1.625,0.625c0,0,2.75-0.375,3.125,0s4.25,0,4.25,0l3-0.875l2.875,1.042
		c0,0,0.125,2.208,0,2.708s0.875,2.625,0.875,2.625s3.875,2,4.25,2.125s3.125,1.875,3.75,2.375s4.375,2.75,4.875,3
		S787,352.5,787,352.5l2.875,3l-0.625,3l-1.875,1H784l-2.375,2.25L780,364.125l-2.25,1.375l-3.375,1.5l-4,1.5
		c0,0-1.75,2-1.875,2.375s-0.125,2.25-0.125,2.25l0.125,3l-1.125,5.125l-3,4l-2.625,1.25l-1.5,2l0.375,3.5l1.375,3.875l3.125,2.875
		l0.375,3.5l0.375,1.875l4.625,0.625l3.375,0.625L775,406.5c0,0,0.813,1.25,0.438,2.125s-0.938,4.5-0.938,4.875s0,4.5,0,4.5l2,2.5
		l2.25,2.875L779.5,426l-1.188,2.375l-1.813,3.5V435l1,4.125l2.5,2.75l6,3.375l3.875,3.75l3.625,7.125l2.666,7.5l1.334,5.208V476v4
		l1.501,3l1.666,3.167l1.834,5L804,495c0,0,0.334,2.833,0,3.333s-2.334,3-2.334,3L799,504.5l-6.167,4.5l-6,3.25L781,514.5h-4
		l-3.999-1.5l-3.333-4l-4.334-3.5l-5.5-2l-5.333-2.167l-7-0.167l-5.667,0.667l-2,1.167l-3.333-2.167l-4.167-3.333l-3-2.334
		L726.667,492l-2.833-3.334l-1.5-3.333l-2.167-4.5L717.834,477l-2.333-4.167l-2-3.833l-1.667-3.834L710.167,462l-1.833-2.5l-2.667-2
		l-3.333-0.834l-4.5-1.5l-4.334-1.333L691.334,452l0.667-2l0.666-2.563L693.5,445v-2v-3.834l-1.084-1.666l-2.082-1.667l-3-1.5
		l-3-0.333l-2.5,0.167L679,434.5h-3.499l-2.334-0.583l-2.166-1.084l-1.673-2.333l-1.827-2.667L666.5,425v-4v-3v-4l-1.25-2.5l-2.25-2
		"/>
</g>
</svg>
