<?xml version="1.0" encoding="utf-8"?>
<!-- Generator: Adobe Illustrator 16.0.0, SVG Export Plug-In . SVG Version: 6.00 Build 0)  -->
<!DOCTYPE svg PUBLIC "-//W3C//DTD SVG 1.1 Tiny//EN" "http://www.w3.org/Graphics/SVG/1.1/DTD/svg11-tiny.dtd">
<svg version="1.1" baseProfile="tiny" id="图层_1"
	 xmlns="http://www.w3.org/2000/svg" xmlns:xlink="http://www.w3.org/1999/xlink" x="0px" y="0px" width="860px" height="650px"
	 viewBox="0 0 860 650" xml:space="preserve">
<g>
	<path fill="#9203DD" stroke="#FFFFFF" stroke-miterlimit="10" d="M638,490.5l1.334-2.334l0.834-3.833l0.666-2.747l0.667-2.586
		l3,1.166l2.666-0.166l4.167-0.334l3.667-1.166l1.166-2.834l0.667-3.333l-0.833-3.833l-2-3.334l-2.5-2.5l-1.834-2.333l-0.666-2.667
		l-0.5-2.666l0.666-3l1.834-2l4.333-2.563l4.167-0.771l3.5-0.166l3.5,0.938l2.166,2.563l3,2.333l1.834,1.833l3,3L680,458.5h3.001
		l2-0.75l2.5-2.417l2-1.667l1.833-1.666l2.166,1.833l4.334,1.333l4.5,1.5l3.333,0.834l2.667,2l1.833,2.5l1.667,3.166l1.667,3.834
		l2,3.833l2.333,4.167l2.333,3.833l2.167,4.5l1.5,3.333l2.833,3.334l2.667,3.166l3,2.334l4.167,3.333l3.333,2.167l-2.5,4.833
		l-3,6.667l-1.333,3l-1.5,6.333l-2.501,3.5c0,0-4.666,3.333-4.667,3.333c-1.972,0.798-4.532,2.209-6.509,3
		c-2.481,0.993-3.194-1.445-4.49-3.501c-0.919-1.41-3.349,0-4.538,0.169c-2.146,0.305-3.687-0.945-5.699-1.443
		c-2.968-0.732-2.686,2.065-2.597,4.109c0,0,1.491,2.151,1.501,2.166c1.632,2.355,2.419,3.321,4.972,4.753
		c2.381,1.335,3.113,2.844,1.803,5.454c-1.026,2.045-3.346,3.443-5.635,3.264c-2.983-0.234-1.475-2.137-3.808-5.637
		c-1.677-2.516-6.147-2.038-9.025-1.083l-1.974-3.084L686,537.5h-4.333l-2.833-1.834l-2.167-2.833l-1.833-6L673.667,522
		l-1.666-3.495l-2-2.005l-3.667-1.334l-3.667-1.333l-2.166-3L659.834,508l-1.334-5v-4v-2.667l-0.833-3.833l-1.5-1.25L654,491.5
		h-2.333l-3,0.5L645,492.5h-3.166L638,490.5"/>
</g>
</svg>
