<?xml version="1.0" encoding="utf-8"?>
<!-- Generator: Adobe Illustrator 16.0.0, SVG Export Plug-In . SVG Version: 6.00 Build 0)  -->
<!DOCTYPE svg PUBLIC "-//W3C//DTD SVG 1.1 Tiny//EN" "http://www.w3.org/Graphics/SVG/1.1/DTD/svg11-tiny.dtd">
<svg version="1.1" baseProfile="tiny" id="图层_1"
	 xmlns="http://www.w3.org/2000/svg" xmlns:xlink="http://www.w3.org/1999/xlink" x="0px" y="0px" width="860px" height="650px"
	 viewBox="0 0 860 650" xml:space="preserve">
	<path fill="#0A3BED" stroke="#FFFFFF" stroke-miterlimit="10" d="M190.5,340l2.167-1.833l3-3L198.5,333l4.667-3.166l3.5-1.834
		l3.625,0.5l2.708,0.167l3,1l1.252,0.197l-0.752,3.303V337l0.833,3.5l2,2.334l2,3.833l2,3.333l1.834,4.834l0.333,4.333l-0.5,3.167
		l-1.667,3l-1,3.333l-0.166,4l0.333,4.5V381l-2.167,3.5l-3,4l-3.833,5.666l-3.167,4l-1.666,3.417l0.666,3.917H211h5l3.917,2.166
		l0.583,2.834v3.5v10v7l-0.833,3.333l-2.334,2l-3.5,2l-3,3.333l-1,3.334l-0.5,4l1,5.666l0.334,5.5l0.166,3.667L210.5,467.5l-3.167,3
		l-2.916,2.5l-1.917,3.166V480l0.833,3.333l2.167,3l1.5,3.833l-0.833,4.167l-1.667,4l-1.167,4.167l0.334,3.5l1.666,1.75l3.167,0.75
		h4.5l5.167-0.834l1.833-2.333l3.083-1.167l2.417-0.333l0.668-2l1.833,2.334l0.833,3.666l-2.833,2.834l-0.333,4l2.333,3.833l4,2.667
		l1.667,1.5l1.333,4.5l0.167,4.833l-1.667,5.833l-4.333,2.667l-6.5,2l-10.333,3.5l-4.167,0.333l-4.833-2.5l-3.333-4.333
		l-1.333-4.167l-3.167-0.166c0,0-2.166,0.333-2.333-0.167s-1.667-3.333-1.667-3.333l-4.5-1.583l-3.833,0.416H173l-9.499,1.833
		c0,0-6.833,1.334-7.333,1.334s-5.333,2-5.333,2l-1.667,2.833l-1,3.167l-0.833,1.666l-3.333,0.167l-1.667,2.667L141.667,550L140,554
		l-4,1.167l-1.501-3V550l-1.166-1.333l-7.667-0.334L120.834,550l-2,4.167l-1.167,5.166l0.667,4.167l-2.667,2.167l-3.5,0.333
		c0,0-1.333,2.667-1.5,3.5s-2.167,5.166-2.167,5.166V579v3l-3.249,2c0,0-0.751,3.166-0.751,3.666s0,4.334,0,4.334v5l-1.833,2.833
		c0,0-0.833,2.999-1.167,3.833s0,3.667,0,3.667L99.834,611c0,0-2.833,0.834-3.833,1s-3.5-0.166-4,0s-3.5-3.834-3.5-3.834
		s-2.833-5.334-3.333-6.5s-1.833-5.666-1.833-6.333s-1-3.5-1-3.5s-1.833-0.501-2.333-1.167s0-7,0-7l-1.333-2.166l-3-1.667
		l-1.5-0.667c0,0-1.333,0.666-1.5,1.5s-1,3-1,3s-1.833,1.75-2.5,1.917s-3.5,0.917-4.333,0.917s-3.834,0-3.834,0
		s-0.667-3.334,0-3.834s1.334-3.5,1.334-3.5l-1.631-2.333l-2.536-2.667l-0.833-4l0.833-3.666l2.667-3.5l-0.333-3.334l-3.167-1
		L56.001,557l1.5-2.5l1-5l-0.833-2.833l-1.667-0.334L53.667,547l-4.167-1.333V543l-0.833-2.167l-1.667-1l-2,2.667l-3.667,0.333
		l-3.75-2.333l-1.084-5V531v-4l-3.333-3.5l-4.333,1l-2.333,3.667c0,0-1.833,3.833-2,4.333s-1.333,4.833-1.333,4.833l-1.167,3
		l-3.667,0.334l-3-4.5l-4.5-4.334c0,0-2.417-3.5-2.584-4s-1.75-5-1.75-5V520l2.167-1l2.833-0.333l3.833-0.167l2.667,0.167l2.333,0.5
		c0,0,1.833,0.5,2,0s0.167-3.167,0.167-3.667s0.333-4.5,0.333-4.5l-0.167-5l-0.5-7.667l-1.833-3.833l2.333-4.167l1.832-5l0.67-5.333
		l0.167-5.5l-0.833-5l-4.667-4.667l-5.833-3.5L8.5,457.5l0.167-4.167l3.5-3L13.833,447l2.333-5.167l3.167-2.166l5.5-0.334
		l3.333,1.167l5.167,0.833l2.167-3V434v-3l2-0.666l3.167,1.166l2.333,3l2.333,2.667l2,0.833l3.167,0.334l4.167-0.834l4.167-0.333
		L61,436l1.333-3.667l4-4.833l3-4.833l4-1.5L77.167,421c0,0,4,0.001,4.5,0.167S85,423,85,423l0.333,3.167l-1.667,5l-0.5,3.333
		l3.333,0.667l4.833-1.334L95,432l0.5-4.167l0.5-2.5l2.333-1.166c0,0,4.491,0.831,4.5,0.833c3.666,0.681,4.294,4.065,4.798,6.995
		c0.089,0.515,1.323,7.142,1.382,7.115c2.387-1.063,3.613-5.704,5.153-7.777l3.833-5.166c0,0,3.794-3.465,3.833-3.5
		c1.255-1.114,2.353-2.965,4.197-3.119c1.971-0.164,3.536,2.032,5.549,1.285c1.422-0.527,2.161-3.093,2.753-4.333l3.667-7.667
		l5.167-5.666l4.333-3.5l4.333-3.167l4.333-2.667L161,391.5h4c1.184,0.444,2.296,0.826,3.36,1.517c1.147,0.743,2.523,1.857,4,1.56
		c1.443-0.294,2.09-2.074,3.639-2.074c0,0,1.667,2.499,1.667,2.5c0.804,1.205,1.792,4.58,2.952,5.285
		c1.302,0.792,2.797-1.085,3.881-1.952c0,0,2.834-2.499,3.167-3.166s1.5-3.167,1.5-3.167s1.829-4.988,1.833-5
		c1.09-2.974,1.146-5.177-0.366-7.879c-1.564-2.794-2.375-5.854-3.132-8.945c-0.274-1.122-0.037-4.805,0.418-5.81
		c0.965-2.133,4.109-2.04,5.477-3.779c1.744-2.218,0.295-5.628-0.098-8.086c-0.693-4.338-2.047-8.548-2.64-12.899"/>
	<path fill="#1EF489" stroke="#FFFFFF" stroke-miterlimit="10" d="M663,409.5h-2h-2h-2.999l-3.667,1.416L650.167,413l-2.333,2.5
		l-2.667,3l-1.833,2l-1.833,2.5l-1.001,2v3.167l0.416,3L641.5,436v4v3v4v2.333l-1.334,3.334l-1.999,4.5l-2.333,3L633.848,464
		l-0.348,3v2.5l1.494,3.166l1.84,2.834l2.834,2.166l1.833,1.334l3,1.166l2.666-0.166l4.167-0.334l3.667-1.166l1.166-2.834
		l0.667-3.333l-0.833-3.833l-2-3.334l-2.5-2.5l-1.834-2.333l-0.666-2.667l-0.5-2.666l0.666-3l1.834-2l4.333-2.563l4.167-0.771
		l3.5-0.166l3.5,0.938l2.166,2.563l3,2.333l1.834,1.833l3,3L680,458.5h3.001l2-0.75l2.5-2.417l2-1.667l1.833-1.666l0.667-2
		l0.666-2.563L693.5,445v-2v-3.834l-1.084-1.666l-2.082-1.667l-3-1.5l-3-0.333l-2.5,0.167L679,434.5h-3.499l-2.334-0.583
		l-2.166-1.084l-1.673-2.333l-1.827-2.667L666.5,425v-4v-3v-4l-1.25-2.5L663,409.5"/>
	<path fill="#6BEF2E" stroke="#FFFFFF" stroke-miterlimit="10" d="M663.21,409.834l2.478-2.334l0.813-2.667V402l-1.5-3.834l-1.5-4.5
		V391l1.438-3.167l2.396-1.667l3.167-2.5l4.667-1.833l4.666-2.333l4-0.5l4.5-0.5H692l1.5-1l-1.332-4.167l-2-3l-2-1.667L684.834,367
		l-2.833-1.667l-1.667-2.833l-1.938-3l-2.063-2.25l-3.5-0.75H669l-1.666,2l-2.166,2.666l-0.334,3.5l-0.666,2.5L663.127,368
		l-2.626,0.166l-2.5-2l-2.5-1.5l-2.167,0.5l-3,1.667l-2.166,1.5l-3.334,0.5l-3-0.5l-3.333-1.5l-2-1.667l-2.653-2.666l-1.347-4.167
		l-2-5.167l-1.5-5.5l-2.5-5l-2.917-3.5l-3.084-4V330l-0.25-7.5l0.875-1.375l0.625-4.375l0.875-2.5l1.25-2.875l1.75-2.25l1-2.5
		l0.125-2.75l0.125-3.625l-0.125-2.5l1.25-2.875l1.125-3.125L631.5,288v-0.125l2.188,1.75l2.156,1.125c0,0,1.767-1.125,2.392-1.625
		s3.133-1.625,3.133-1.625l1.379,1.375l1.127,1.875l1.126,1.563l1.376,1.188H649l4.125,0.5l3.375,2.625c0,0,0.625,2.75,0.75,3.125
		s1.125,3.375,1.125,3.375L659,305.25l1.625,1l3.125-0.625l3-2.125l2.125-1H672h2l3.125,0.375l2,0.125l2.375-2.125l2-2.75
		l1.375-3.625l0.625-2.5v-3l0.75-2.75l3.125-2.375l2.125,0.375l3.75,1.125l2.125,1.5l1,2.125l1.125,2.75V295v4v2l0.75,4.125
		l1.438,1.125l1.813,1.625V311l1.5,0.813l3.75-1.313H712l3,0.75l1.375,2.25l2.5,1H721l3.75,1.75l1.75,2.625c0,0,1.875,2,2.125,2.375
		s2.25,3.75,2.25,3.75l1.875,4.125l1.5,2.625l1.5,2.625l2.375-0.875l3.125-2l3.625-2.25l2.875-0.625c0,0,1.625,0.25,1.875,0.625
		s1.375,1.625,1.5,2.125s0.875,3,0.875,3l2.125,2.625l1.625,0.625c0,0,2.75-0.375,3.125,0s4.25,0,4.25,0l3-0.875l2.875,1.042
		c0,0,0.125,2.208,0,2.708s0.875,2.625,0.875,2.625s3.875,2,4.25,2.125s3.125,1.875,3.75,2.375s4.375,2.75,4.875,3
		S787,352.5,787,352.5l2.875,3l-0.625,3l-1.875,1H784l-2.375,2.25L780,364.125l-2.25,1.375l-3.375,1.5l-4,1.5
		c0,0-1.75,2-1.875,2.375s-0.125,2.25-0.125,2.25l0.125,3l-1.125,5.125l-3,4l-2.625,1.25l-1.5,2l0.375,3.5l1.375,3.875l3.125,2.875
		l0.375,3.5l0.375,1.875l4.625,0.625l3.375,0.625L775,406.5c0,0,0.813,1.25,0.438,2.125s-0.938,4.5-0.938,4.875s0,4.5,0,4.5l2,2.5
		l2.25,2.875L779.5,426l-1.188,2.375l-1.813,3.5V435l1,4.125l2.5,2.75l6,3.375l3.875,3.75l3.625,7.125l2.666,7.5l1.334,5.208V476v4
		l1.501,3l1.666,3.167l1.834,5L804,495c0,0,0.334,2.833,0,3.333s-2.334,3-2.334,3L799,504.5l-6.167,4.5l-6,3.25L781,514.5h-4
		l-3.999-1.5l-3.333-4l-4.334-3.5l-5.5-2l-5.333-2.167l-7-0.167l-5.667,0.667l-2,1.167l-3.333-2.167l-4.167-3.333l-3-2.334
		L726.667,492l-2.833-3.334l-1.5-3.333l-2.167-4.5L717.834,477l-2.333-4.167l-2-3.833l-1.667-3.834L710.167,462l-1.833-2.5l-2.667-2
		l-3.333-0.834l-4.5-1.5l-4.334-1.333L691.334,452l0.667-2l0.666-2.563L693.5,445v-2v-3.834l-1.084-1.666l-2.082-1.667l-3-1.5
		l-3-0.333l-2.5,0.167L679,434.5h-3.499l-2.334-0.583l-2.166-1.084l-1.673-2.333l-1.827-2.667L666.5,425v-4v-3v-4l-1.25-2.5l-2.25-2
		"/>
	<path fill="#9203DD" stroke="#FFFFFF" stroke-miterlimit="10" d="M638,490.5l1.334-2.334l0.834-3.833l0.666-2.747l0.667-2.586
		l3,1.166l2.666-0.166l4.167-0.334l3.667-1.166l1.166-2.834l0.667-3.333l-0.833-3.833l-2-3.334l-2.5-2.5l-1.834-2.333l-0.666-2.667
		l-0.5-2.666l0.666-3l1.834-2l4.333-2.563l4.167-0.771l3.5-0.166l3.5,0.938l2.166,2.563l3,2.333l1.834,1.833l3,3L680,458.5h3.001
		l2-0.75l2.5-2.417l2-1.667l1.833-1.666l2.166,1.833l4.334,1.333l4.5,1.5l3.333,0.834l2.667,2l1.833,2.5l1.667,3.166l1.667,3.834
		l2,3.833l2.333,4.167l2.333,3.833l2.167,4.5l1.5,3.333l2.833,3.334l2.667,3.166l3,2.334l4.167,3.333l3.333,2.167l-2.5,4.833
		l-3,6.667l-1.333,3l-1.5,6.333l-2.501,3.5c0,0-4.666,3.333-4.667,3.333c-1.972,0.798-4.532,2.209-6.509,3
		c-2.481,0.993-3.194-1.445-4.49-3.501c-0.919-1.41-3.349,0-4.538,0.169c-2.146,0.305-3.687-0.945-5.699-1.443
		c-2.968-0.732-2.686,2.065-2.597,4.109c0,0,1.491,2.151,1.501,2.166c1.632,2.355,2.419,3.321,4.972,4.753
		c2.381,1.335,3.113,2.844,1.803,5.454c-1.026,2.045-3.346,3.443-5.635,3.264c-2.983-0.234-1.475-2.137-3.808-5.637
		c-1.677-2.516-6.147-2.038-9.025-1.083l-1.974-3.084L686,537.5h-4.333l-2.833-1.834l-2.167-2.833l-1.833-6L673.667,522
		l-1.666-3.495l-2-2.005l-3.667-1.334l-3.667-1.333l-2.166-3L659.834,508l-1.334-5v-4v-2.667l-0.833-3.833l-1.5-1.25L654,491.5
		h-2.333l-3,0.5L645,492.5h-3.166L638,490.5"/>
	<path fill="#F98A8A" stroke="#FFFFFF" stroke-miterlimit="10" d="M447.5,296.5v3.5l-0.667,5l-1.166,2.583l-1.834,1.916H441
		l-4.667-1.666l-5.166-1.334H426l-6.667,0.334L413,308.5h-8h-5.167H397l-3.333,2.834L391.833,314l-3.667,3.167l-3.5,1.333H380l-4-1
		h-5l-2.583,2.5l-0.917,2.167V325l0.833,4.501l0.833,6.166l-0.5,3.5l-1.167,2.167l-1.167,2.333l-2,3l0.833,2.334l1.333,4l1.667,5.5
		l0.833,4l1.5,4.666l2.333,3.334l2.833,3.833l3.333,3.667l2.333,5.667c0,0,1,3.5,1,4s0.667,6.166,0.667,6.166l0.333,5.5l-0.33,5.834
		l0.167,5l-0.833,4.5l0.667,2.333l2.667,2.167l3.5,5.333l2.167,5L394,435.25l2.333,3.25H399l2.833-0.999l2.167-0.5l3.333,1.499
		l2.333,1.834l2.667,1.333l4.667,1.917l3,0.916h4l4.5-0.833l3.834-2l2.666-2.833l2.834-5.167l1.666-3.666l2.167-4.833l1.833-5.167
		V417l-2.333-2.666L439,411.168l1-2.667l2.5-2.167l2.5-2.833l2.5-2.667l2.334-3.333l2.166-2.167l2.5-2l2.334-1l1.833,1.167
		l1.167,3.167l1,2.833l2.166,1.833l3.167,1.583l3.167,0.583H472l4.167-0.999l3.167-2.167l2.666-2.333l3.334-2.667l4.5-2l2.833-0.834
		H496l4.334-1.499l3-3.333l1.666-3l1.334-2.5l3.333-1.834l2.417-0.333l1.416-0.667V376v-3l1.5-2.75l3-3.916l3.5-2.666l3.334-3.167
		l2.333-2.667l1.667-3.166l1.166-3.667l-0.833-4.167l-1.334-4l-3-3.167l-3.166-2.333l-3.667-2.5l-5.667-3.667l-5.5-3.833l-4.666-3.5
		l-5.667-4.5l-4.667-3.417L489,314.5h-3l-5.167,0.5l-4.333-1l-4.333-2.333l-3-3.333L466,305.667l-4.167-3L458,300.334l-4.167-2.417
		l-4.666-1.417H447.5L447.5,296.5z"/>
	<path fill="#934A6B" stroke="#FFFFFF" stroke-miterlimit="10" d="M363.75,345.5l1.292,3.501l1.396,4l1.698,5.5l0.849,4l1.508,4.666
		l2.337,3.334l2.835,3.833l3.334,3.667l2.334,5.667c0,0,1,3.5,1,4s0.667,6.166,0.667,6.166l0.333,5.5L383,405.168l0.167,5
		l-0.667,6.333l4,2.333l1.833,2.833l2.167,3.167l2,3.833l1.667,3.834l1.416,3.333L398,437.5h3h3h2l3.166,1.729l5.334,3.021
		l3.875,2.417l3.791,0.834l4.334-0.667l2.5-0.167l3.954-2.157l2.585-3.004l2.919-5.816l1.021-3.593l2.178-4.882l1.844-5.214V417
		l-2.333-2.666L439,411.168l1-2.667l2.5-2.167l2.5-2.833l2.5-2.667l2.334-3.333l2.166-2.167l2.5-2l2.334-1l1.833,1.167l1.167,3.167
		l1,2.833l2.166,1.833l3.167,1.583l3.167,0.583H472l4.167-0.999l3.167-2.167l2.666-2.333l3.334-2.667l4.5-2l2.833-0.834H496
		l4.334-1.499l3-3.333l1.666-3l1.334-2.5l3.333-1.834l2.417-0.333L513.5,379v-3v-3l1.5-2.75l3-3.916l3.5-2.666l3.334-3.167
		l2.333-2.667l1.667-3.166l1.166-3.667l-0.833-4.167l-1.334-4l-3-3.167l-3.166-2.333l-3.667-2.5l-5.667-3.667l-3.833-3.334V328
		c-3.499-3-7.505-5.453-10.871-8.578c-1.116-1.036-2.542-1.421-3.933-1.977c-2.079-0.831-2.993-2.656-5.489-2.876
		c-1.837-0.162-3.675,0.498-5.491,0.688c-1.954,0.204-3.922,0.183-5.883,0.242l-3.5-2.333l-3.166-2.833l-3.5-3.167L463,303.833
		L460,301l-4.833-2.667l-3.334-2.5l-1.384-1.087l-1.824,1.004l-0.75,1.625L447.5,301v4.333l-1,3.334L442,309.5l-4.5-1.333
		l-5.333-2.334l-4-0.333l-3.834,0.5L421,307l-5.333,0.833L411,308l-5.333,0.333l-5.5,0.167l-3,1.167l-4.667,3.166l-2.833,4
		L386.333,319L382,319.333l-4.833-1l-3.834-0.166l-3,1.5L369.5,323v5v6v3l-1.312,3.563l-1.48,3.896l-2.958,1.292V345.5z"/>
	<path fill="#043FB5" stroke="#FFFFFF" stroke-miterlimit="10" d="M482.666,471.334c0,1.541-0.313,2.145-1.751,3.574
		c-1.218,1.212-3.088,2.29-4.665,2.217l-3.084-0.457L469,475.334l-3.834-0.166l-4,2.5L458,481.001c0,0-2.667,2.5-2.668,2.501
		c-1.017,1.018-1.382,1.941-2.91,1.771c-0.964-0.107-1.978-0.529-2.922-0.771l-4.167-1.5l-5.5-2.833c0,0-2.245-1.996-2.25-2.001
		c-1.559-1.419-2.295-2.19-2.292-4.419c0.003-2.298,0.691-4.624-0.037-6.883c-0.278-0.866-0.854-1.727-1.254-2.531
		c0,0-1.655-2.979-1.667-3c-0.979-1.76-2.695-2.407-3.225-4.486c-0.458-1.801-0.391-3.678-0.608-5.513c-0.201-1.728,0-3.592,0-5.335
		c0,0,0.5-1.333,0.5-1.334l3.954-2.157l2.585-3.004l2.919-5.816l1.021-3.593l2.178-4.882l1.844-5.214V417
		c0.912,0.13,3.738-0.042,4.418,0.534c0.49,0.415,0.453,1.703,0.582,2.299c0,0.735,0.202,1.737,0.015,2.435
		c-0.391,1.451-2.386,3.351-1.351,4.694c1.654,2.146,4.717,1.997,7.138,1.904c1.193-0.046,2.786-0.422,3.961-0.118
		c1.421,0.369,2.546,1.982,3.904,2.668c1.528,0.771,1.996,0.822,3.333-0.415c0,0,0-2.956,0-3c0-1.395,1.543-2.394,2.656-2.995
		c1.677-0.905,3.138-0.754,4.307-0.012L472.5,425v3v3v3l0.835,1.667l2,1.666l0.997,1.5l1.168,2.542V445v5v4l0.668,1.833l1.167,3
		l1.333,3.334l0.833,3.833l0.667,3.167l0.498,2.251"/>
	<path fill="#22F4E5" stroke="#FFFFFF" stroke-miterlimit="10" d="M190.66,339.601c-0.29-2.13,0.568-5.408-0.623-6.939
		c-2.824-3.63-7.995-4.214-10.499-8.453c-1.71-2.896-3.61-2.864-6.692-3.207c-1.527-0.17-3.103-0.145-4.608-0.376
		c-1.603-0.247,2.616-5.894,3.095-6.458l6.834-2.834l7.333-2.833l3.667-0.5l1.833,1.5h2.5l1.833-1.417L196.5,305v-3v-4v-3v-2.667
		l2.667-2.5l3.666-1.166l2.5-2.5l2-2.5l2.167-3L212,277l3.833-3.167L220,272.5h6h5h8h4.667l6.124,0.708l2.792,3.542l1.75,3.25
		l3.334,3.667l2.5,2.833l3.833,4.833l2.833,3.5l2.167,3l0.917,2.334l0.583,4.333l-1.833,5.333l-2.5,2.667l-3,2.333l-2.5,1l-3-1
		l-3.334-1.666L251.5,312l-2.333,1.667l-3,2.5L244,318.5l-3.667,0.167L236,318.833L232.667,319l-4.834,0.333l-2.333,1.5l-1.5,2.5
		L223.5,326l-2,3.667l-2.333,0.5l-1.915-0.303L216,329.667l-3-1l-2.708-0.167l-3.625-0.5l-3.5,1.834L198.5,333l-2.833,2.167l-3,3
		L190.5,340L190.66,339.601z"/>
	<path fill="#C7D107" stroke="#FFFFFF" stroke-miterlimit="10" d="M335,174.333l-1.125,3.542l-1.293,4.25l-1.291,2.77l-1.311,3.637
		l-2.574,4.066l-1.785,2.952l-2.311,3.64l-2.821,2.323c0,0-3.828,1.993-4.328,1.826s-5.163,0.008-5.163,0.008L307.333,205
		L303,207.667l-2.333,2.833l-2.333,3.833l-1.917,3.167l-0.917,4.833V228l-1.5,3.167l-2.167,3l-3.667,2l-3.5,2.167l-3.5,3L279.5,244
		l1.167,3.167l1.667,1.833l2,1.667l0.667,3.25l-0.667,2.583H282h-4l-2-0.833l-2.5,0.833l-1,2.167V262v5l1,4.167L274,274
		l-0.167,1.667l-3-1l-3.833-0.5L262.833,274l-4.667,1L255,276.833l-1.667,1.333c0,0.001-3.542-4.958-3.542-4.958l-6.124-0.708H239
		h-8h-5h-6l-4.167,1.333L212,277l-2.5,3.667l-2.167,3l-2,2.5l-2.5,2.5l-3.666,1.166l-2.667,2.5V295v3v4v3l-1.167,3.083L193.5,309.5
		H191l-1.833-1.5l-3.667,0.5l-7.333,2.833l-6.834,2.834c-0.855,1.006-8.256-1.873-8.5-3.334c-0.167-1-1.833-4.5-1.833-4.5
		l-3.167,0.5L154,308.5l-3.667,1.833L146.5,308v-6v-5l-0.667-2.5l-2.667-4.5l-3.667-1l-6.5,0.5l-2.5-3.833V281l2.333-1l2-3.833
		l-1-3.333l-1.833-2l-1.167-3.5l2-3.667l1.333-4.333l-1.333-3.5l-1.667-7.5l1-4.5l0.333-3.667l-0.333-4.5l2.333-2.5l0.667-3.333
		l-3-1l-6.5-1.833l-1.833-3.667L123,217l0.833-5.5l1.833-3.5l3.583-1.833l3.25-4.5V196l-1.833-4.5l-3.167-3.167l-0.5-1.5
		l2.167-0.583l4-0.75H137l2-1.333l2.667-0.833L144.5,184l3.167,1.833l5-0.5l4.333-2.167l5.167-1.167l5.833,0.5l7.5,3l4,0.167
		l1.833-0.833l3.333-3c0,0,4-1.333,4.5-1.333s5.167-0.5,5.167-0.5l2.167-3.167l-4-4.333l-1-4.5v-4l-2-5.5l-3.5-3.167l-6.833-4
		L173.5,148l-6.333-1.833l-7.5,0.167L154.5,145.5l-0.833-4.333L153.5,135l1-4.167l-0.5-5.167l-1.667-3.333L146,119.5l-4.333-2
		l-7.833-0.333l-5.667-1.667l-5.833-2.667l-0.697-3.327l5.557-4.691l6.403-1.719l4.454-2.487l4.287-1.617l4.77-1.184l3.759,0.721
		l3.505,0.859l3.877,0.495l2.253,1.121l3.499,1.121l3.625,0.438l3.75,0.938H174l3,0.5l3.375,0.125l2.125,0.25l3.375,0.5l2.625,0.375
		l2.875,1.25l2.25,1.75l2.625,1.25l2,1.25l3.25,0.75h1.5l2-0.75l1-1l1.375-0.875l2.375-1L211,107.5l1.125,0.25l1.75,0.875
		l2.125,0.75l2.5,0.5l1.5-0.625l1.125-1.875l1.125-2.125l1.125-2l1-1.75l0.75-0.75l1.375-1.125l1.25-0.5l1.125,0.375l1,0.75
		l0.75,1.625l0.875,2.75l0.75,2.5l0.875,1.625l1.375,1.75l1.125,0.375l2.5,0.625H240l0.875,1.125l1.125,1.75l1.125,1.125H244
		l1.375-0.625l2.125-2.25l2.625-3l3-2.125l3.25-2.25l2.875-1.125l3.625-0.5l3,0.125l2.25-2.75l1.125-1.875l1.125-0.5l1.125,1
		l1.875,2l1.875,1.875l1.125,1.625l2.125,0.625l2.375,0.25l1.75,0.627l2.375,2.998l1.625,2l2.688,3.125l2.188,2.875V119l-1.75,1.5
		l-1,2.25l0.375,1.375l3.25,1l2.625,0.75l3.5,2.5V131l-1.75,2.875l-1.5,3.438l0.25,3.188h2.5l2.125,1l1.5,1.125l0.875,2.25
		l1.625,2.188l2,1.438H309l2.25,1l1.5,1.625l0.75,2.813l1.125,1.563H316l2.5-0.875l3.625,0.125l0.75,2l-1,2.25l-1.25,2.25l-1.25,1.5
		l1.125,2.875l1.125,3l1.25,2.375l2.125,3.375l0.625,1.063l1.25,1.063H329l3-0.875l3-1.292"/>
	<path fill="#157C3F" stroke="#FFFFFF" stroke-miterlimit="10" d="M584.501,264v9.125V296v5.834
		c-0.521,3.248-0.725,6.737-3.619,8.829c-1.076,0.778-2.512,0.932-3.718,1.449c-1.333,0.571-2.559,1.362-3.83,2.056
		c-1.705,0.206-2.822,0.339-4.313-0.611c-1.897-1.209-3.146-1.781-5.354-2.223l-2.834,1c-1.797,0.751-3.623,1.296-5.588,1.003
		c-1.68-0.25-3.676-1.836-5.245-1.836c-0.001,0-2,0-2,0l-2,1.333c-0.702,0.646-1.618,1.277-2.191,2.037
		c-0.758,1.005-0.548,2.5-1.221,3.433c-1.338,1.856-2.818,0.363-3.963-0.679c-0.919-0.87-1.071-1.438-2.278-0.914
		c-0.884,0.384-1.578,1.223-2.347,1.789l-4.167-1.165l-3.833-2.5l-4.667-2L517,312.668l-4.167,0.833l-2,2.333L510,318.167L508.5,323
		v5c-3.499-3-7.505-5.453-10.871-8.578c-1.116-1.036-2.542-1.421-3.933-1.977c-2.079-0.831-2.993-2.656-5.489-2.876
		c-1.837-0.162-3.675,0.498-5.491,0.688c-1.954,0.204-3.922,0.183-5.883,0.242l-3.5-2.333l-3.166-2.833l-3.5-3.167L463,303.833
		L460,301l-4.833-2.667l-3.334-2.5l-1.384-1.087L449.5,290v-4v-2.167l1-2.5l2-3.333l2.833-3l4.167-3.167l3-2l3-2.166l3.167-2.667
		l2.167-2l1.666-4v-5v-4v-4.833l0.916-3.167l2.418-3.5l0.666-3.5v-5.167l-0.583-3L474.5,222v-4.5l0.916-3.5l0.751-3.167l1.667-4.166
		L479.5,204v-4l-0.5-3.5l2.625,1.5l2.375,1.125l2.125,0.625l2.75-0.375l3.125-1.25l2.75-0.625l3,1.25l1.875,2.5L502,203.5
		l1.625,1.875l2,2.125l2.25,1.438l2.875,0.563H515l5-1h4l2.125,1l1.375,2.125l1.75-2.75c0,0,0.625-1.75,0.625-2.125
		s1.875-3.875,1.875-3.875l2.125-2.5l2-2l2.875-1.688l2.125-1.188H544l2.875,1.375l1.063,1.75l0.563,2.625V204v4v2l-0.25,4.125
		l0.75,2.125l1.375,1.625l1.188,2.125l0.938,2.125V224l-1.125,1.75l-2.5,2.125c-0.656,0.862-1.75,1.538-2.073,2.62
		c-0.375,1.252,0.4,2.355,0.823,3.505c0,0,2.625,1.125,2.626,1.125c0.829,0.721,2.468,1.49,2.755,2.636
		c0.201,0.802-0.325,2.057-0.506,2.863V243l0.75,2l2,2.125l2.563,3.125l1.688,2.5c0,0,0,4.249,0,4.25
		c0,1.674,1.557,4.746,3.456,4.481c2.082-0.291,3.789-3.68,6.158-2.049c1.128,0.777,0.903,2.81,1.386,3.943V267l0.875,3.125
		c0.558,1.068,1.029,3.181,2.205,3.721c1.587,0.73,3.147-1.477,4.045-2.471l2.25-3l2.75-2.875l1.875-1.5"/>
	<path fill="#0DCE3A" stroke="#FFFFFF" stroke-miterlimit="10" d="M663,409.5h-2h-2h-2.999l-3.667,1.416L650.167,413l-2.333,2.5
		l-2.667,3l-1.833,2l-1.833,2.5l-1.001,2v3.167l0.416,3L641.5,436v4v3v4v2.333l-1.334,3.334l-1.999,4.5l-2.333,3L633.848,464
		l-0.348,3v2.5l1.494,3.166l1.84,2.834l2.834,2.166l1.833,1.334l-0.667,2.586l-0.666,2.747l-0.834,3.833L638,490.5h-1.332l-2.82-1
		l-3.18-1.834l-4.5-1.666l-2.5-1.167l-3-0.167l-2,0.834l-3.167,1.833l-2.5,1.667L610,490.5h-2.999l-1.5-0.667l-1.333-3.167
		l-1.167-5.08L601.668,478l-2-3.334l-2.667-2l-2.167-1.166l-2.5-2.167l-1.666-2.666l-2.001-2.834l-2.999-3.375L583.001,459
		l-4.333-1.5l-2.668-1h-2.326l-1.672,0.722l-1.837,0.891l-1.67,2.777l-1.507,4.556l0,0l-1.987-1.945c0,0-2.167-1.667-2.667-1.833
		s-2.5-2.167-2.5-2.167l-2.166-2.5l-1.168-3v-4v-1.791l-2.958-3.542l-3.417-3.292h-0.375L551,439.5l1.875-2.5l2.75-2.625l1.25-1.5
		l3.125-2.25l3.25-2.375l2.125-2.25l2.25-2.75l1.5-2.625l1.75-3l1.875-3.125l0.625-2.875l-0.125-4.375l-0.125-2.625L573,401.75
		l-0.375-3.5l-0.75-3.875l0.75-1.5l1.125-1.625l2.75-1.125l2.5-0.625h6h5h5c1.965,0.061,2.211-0.242,2.594-2.108
		c0.246-1.2,0.614-2.66,0.531-3.893c-0.008-0.118-0.25-3.624-0.25-3.624l-1.5-5.25l-1.25-3.25l-0.75-3.875l-0.625-2.75l-0.375-2.625
		l0.5-3.5l0.5-3.25l0.875-3.75L596,349l1.126-2.375l2.375-2.25l1.625-2.25l1.375-1.125v-2.125l-1.188-1.625l-0.938-2.375l-1-2.375
		l-0.5-2.5l0.125-3l1.5-2.875l2.125-1.625l2.375-1.125l5,0.125h4l4,1h2h0.25l0.25,7.5v5.166l3.084,4l2.917,3.5l2.5,5l1.5,5.5
		l2,5.167l1.347,4.167l2.653,2.666l2,1.667l3.333,1.5l3,0.5l3.334-0.5l2.166-1.5l3-1.667l2.167-0.5l2.5,1.5l2.5,2l2.626-0.166
		l1.041-0.834l0.666-2.5l0.334-3.5l2.166-2.666l1.666-2h3.834l3.5,0.75l2.063,2.25l1.938,3l1.667,2.833l2.833,1.667l3.334,1.666
		l2,1.667l2,3l1.332,4.167l-1.5,1h-3.666l-4.5,0.5l-4,0.5l-4.666,2.333l-4.667,1.833l-3.167,2.5l-2.396,1.667L663.5,391v2.666
		l1.5,4.5l1.5,3.834v2.833l-0.813,2.667l-2.478,2.334"/>
	<path fill="#00844B" stroke="#FFFFFF" stroke-miterlimit="10" d="M270.249,304.417c0,0-0.333-3.583-0.333-4.25s-1.917-3.333-2.25-4
		s-2.333-3.667-2.333-3.667l-3.5-2.833l-1.5-2.667L258,283.5l-3-2.667l-1.667-2.667l1.667-1.333l3.166-1.833l4.667-1l4.167,0.167
		l3.833,0.5l3,1L274,274l-0.5-2.833l-1-4.167v-5v-3.333l1-2.167l2.5-0.833l2,0.833h4h2.334l0.667-2.583l-0.667-3.25l-2-1.667
		l-1.667-1.833L279.5,244l1.666-2.666l3.5-3l3.5-2.167l3.667-2l2.167-3l1.5-3.167v-5.667l0.917-4.833l1.917-3.167l2.333-3.833
		l2.333-2.833l4.333-2.667l3.665-1.653c0,0,4.663-0.175,5.163-0.008s4.328-1.826,4.328-1.826l2.821-2.323l2.311-3.64l1.785-2.952
		l2.574-4.066l1.311-3.637l1.291-2.77l1.293-4.25l1.125-3.542l3-0.083l3.25-1.125l2.625,1.208l3,3.042L348,181l1.5,3.125
		l3.625,2.375l4.75,1.125l5,2.125l3.875,0.75l3.25,0.75l1,1.25c0,0,0.814,1.455,0.872,1.557c0.813,1.453,2.78,1.441,4.128,1.443
		l2.625-1H381l1.375,1l1.75,2l1.125,1.875c0.648,0.527,1.384,1.579,2.254,1.444c0.614-0.096,1.599-1.182,2.12-1.568
		c2.302-1.705,4.537,0.033,6,1.75c1.744,2.046,3.586,5.06,6.152,6.149c1.429,0.606,3.341,0.352,4.854,0.35
		c1.441-0.002,2.688-0.663,4.067-0.954c1.748-0.37,3.523-0.045,5.289-0.045c1.959,0,2.648-0.112,3.887-1.75l2.25-2l2.875-2.375
		l1.75,0.25l3.25,1.625c0,0,2.37,0.374,2.376,0.375c1.717,0.268,4.594-1.804,6.124-2.5l2.75-0.125l2.125,1.875l2,1.5l1.875,0.75
		l3.5,0.375l3.25-0.875l3.75-0.875l4.5-2l4.375-1.375l3.625-0.875l3.125-1.25l3.125-0.75h2.5C479,196.5,479.5,200,479.5,200v4
		l-1.666,2.667l-1.667,4.166L475.416,214l-0.916,3.5v4.5l1.417,4.833l0.583,3V235l-0.666,3.5l-2.418,3.5l-0.916,3.167V250v4v5
		l-1.666,4l-2.167,2l-3.167,2.667l-3,2.166l-3,2L455.333,275l-2.833,3l-2,3.333l-1,2.5V286v4l0.949,4.746l-1.824,1.004l-0.75,1.625
		L447.5,301v4.333l-1,3.334L442,309.5l-4.5-1.333l-5.333-2.334l-4-0.333l-3.834,0.5L421,307l-5.333,0.833L411,308l-5.333,0.333
		l-5.5,0.167l-3,1.167l-4.667,3.166l-2.833,4L386.333,319L382,319.333l-4.833-1l-3.834-0.166l-3,1.5L369.5,323v5v6v3l-1.312,3.563
		l-1.48,3.896l-2.958,1.292l0.25-0.25h-2.834l-2.5-1.833l-3.333-1l-2.167-1.167l-1.333-3.037L351,335l-1.166-2.833l-3.5-0.334
		l-3.167,0.334L338.334,334L334,335.833c0,0-2.166,2.334-2.666,2.334s-3.167,0.666-3.667,0s-3.667,0-3.667,0l-3.167-1.667
		l-2.333-2.167L317,332.5h-4.167L309,331.666l-3-2.999L303.5,325l-3.666-2.833l-3.5-2l-3.5-0.333l-3.5,2.833L285.667,325L282,325.5
		h-1.833l-1.333-2.25l-0.667-3.083L277.5,317v-4.667l-1.333-3l-1.167-1.5L272.333,307l-1.833-2.833l0,0"/>
	<path fill="#325E4E" stroke="#FFFFFF" stroke-miterlimit="10" d="M566.988,465.445l3.345,1.056l6.334,1.166l5.166,0.5l4.167,2
		l2.667,3.667l-0.667,5.5l-4,3.333l-3.167,2l-6.5,3.5l-4.5,3.334l-2.666,3.5l-2.834,3.166l-9.666,3.834L550,502.167l-3.333,1.5
		l-4.167,3.667l-3.333,4.833l-2,2.333l-2.661,4.005c1.391-0.017,1.785,2.529,1.828,3.661c0.001,0.031,0.166,4.709,0.166,4.709v3.75
		l2.001,3.875l3.333,1.167l5.5,1.166l3.333,1.167l0.458,2.875L549.834,544l-1,3.833l0.833,4.5l3.334,2.667l4.333,2l0.834,3.667
		l-0.167,3.5l-3.833,4.5c0,0-3.334,3.5-3.334,4.166S547.501,577,547.501,577l-2,4.333l3.333,4l3.667,3.834l0.333,1.833l0.667,4.833
		l0.833,5.167l1.5,3.167l3.167,1.5l2.5-0.167l3.5-0.833l1.833,0.666l2.5,1.5c0,0,3.834,3.167,4.334,3.5s2.333,0.667,2.333,0.667
		l3.333-1.333l3.167-2.5l2-3.834l2.667-3.333l2.833-3.666l3.833-4l1.834-2.333l5.166-1.5l4.834-0.833l3.833-1.5l1.5-2.834l1.5-3.666
		l1.833-4l2-2l2.666-1.167h4.333l5.334-0.037c3.779,0.145,7.557,0.079,11.338,0.037c2.933-0.033,3.785-0.535,6.354-2.007
		c1.502-0.86,3.07-1.686,4.309-2.918c0.019-0.019,3.167-3.075,3.167-3.075c1.944-0.096,3.967-0.35,5.665,0.832
		c0.04,0.028,2.839,2.002,3.335,2.168c0.5,0.167,3.667,0,3.667,0l2.167-1.5c1.014-0.748,2.248-2.103,3.414-2.504
		c1.232-0.425,2.852-0.118,4.175-0.561c1.445-0.482,2.804-1.326,3.937-2.337c0.983-0.878,1.878-2.156,0.905-3.487
		c-1.598-2.191-6.914-0.161-6.591-4.054c0.137-1.637,1.568-3.771,3.494-3.059c0.851,0.314,1.824,0.856,2.716,0.984
		c1.595,0.229,1.429-0.227,2.616-1.651l0.667-2.667c0.379-1.651,0.337-2.999,1.831-3.736c1.249-0.615,3.102-0.699,4.476-1.013
		l-1.974-3.084L686,537.5h-4.333l-2.833-1.834l-2.167-2.833l-1.833-6L673.667,522l-1.666-3.495l-2-2.005l-3.667-1.334l-3.667-1.333
		l-2.166-3L659.834,508l-1.334-5v-4v-2.667l-0.833-3.833l-1.5-1.25L654,491.5h-2.333l-3,0.5L645,492.5h-3.166l-3.834-2h-1.332
		l-2.82-1l-3.18-1.834l-4.5-1.666l-2.5-1.167l-3-0.167l-2,0.834l-3.167,1.833l-2.5,1.667L610,490.5h-2.999l-1.5-0.667l-1.333-3.167
		l-1.167-5.08L601.668,478l-2-3.334l-2.667-2l-2.167-1.166l-2.5-2.167l-1.666-2.666l-2.001-2.834l-2.999-3.375L583.001,459
		l-4.333-1.5l-2.668-1h-2.326l-1.672,0.722l-1.837,0.891l-1.67,2.777L566.988,465.445"/>
	<path fill="#D81616" stroke="#FFFFFF" stroke-miterlimit="10" d="M529.75,441.374c-0.156,1.83-0.843,2.237-2.249,3.292L524,444.499
		h-3.332l-3.167-0.583c-2.6-1.159-4.952-1.765-7.837-1.584c-0.11,0.007-2.664,0.167-2.664,0.167c-1.943,0-3.901,0.304-5.832,0.25
		c-0.017,0-3-0.083-3-0.083l-3.167-0.5c-2.667-1.543-2.125-7.287-5.834-6.667c-0.929,0.156-1.51,0.512-2.369,0.14
		c-1.58-0.685-0.627-1.464-1.305-2.65c-1.283-2.248-4.783-1.864-6.991-2.051c-0.002,0-2.252-0.604-2.252-0.604L475.168,429
		c-0.474-1.639-1.41-3.185-2.705-4.006L472.5,425v3v3v3l0.835,1.667l2,1.666l0.997,1.5l1.168,2.542V445v5v4l0.668,1.833l1.167,3
		l1.333,3.334l0.833,3.833l0.667,3.167l0.498,2.251v-0.084l2.167,2l4.667,2.667l7.5,0.5l5.5-0.834l4.333-2.166l5.167-2.167
		l7.333,0.167l5.667,1.333l4.125,1.791l4.25,1.625l6.563,1.25h6.938l6-2.375l3.792-2.791l3.5-1.667l4.458-2.042l2.363-3.18l0,0
		l-1.987-1.945c0,0-2.167-1.667-2.667-1.833s-2.5-2.167-2.5-2.167l-2.166-2.5l-1.168-3v-4v-1.791l-2.958-3.542l-3.417-3.292h-0.25
		l-1.75-0.625l-1.875-2.25l-1.25-3l-1.75-1.875l-1.5-1.25L539.875,432l-2.75,1.25l-2.619,2.5L533,437.875L531.875,440L530,441.375"
		/>
	<path fill="#D86150" stroke="#FFFFFF" stroke-miterlimit="10" d="M508.5,328v-5l1.5-4.833l0.833-2.333l2-2.333l4.167-0.833
		l4.333,0.167l4.667,2l3.833,2.5L534,318.5c0.769-0.566,1.463-1.405,2.347-1.789c1.207-0.523,1.359,0.044,2.278,0.914
		c1.145,1.042,2.625,2.535,3.963,0.679c0.673-0.933,0.463-2.428,1.221-3.433c0.573-0.76,1.489-1.391,2.191-2.037l2-1.333
		c0,0,1.999,0,2,0c1.569,0,3.565,1.586,5.245,1.836c1.965,0.293,3.791-0.252,5.588-1.003l2.834-1
		c2.208,0.441,3.457,1.014,5.354,2.223c1.49,0.95,2.607,0.817,4.313,0.611c1.271-0.693,2.497-1.484,3.83-2.056
		c1.206-0.518,2.642-0.671,3.718-1.449c2.895-2.092,3.099-5.581,3.619-8.829V296v-22.875V264c-0.001,0,5.218-3.906,5.218-3.906
		l3.642-1.234l4.444,1.383l3.724,2.066c0,0,2.11,2.346,2.485,2.721s3.118,1.86,3.493,1.86s2.872,1.743,3.497,1.868
		s2.623,0.496,3.748,0.496s3.873,0.123,3.873,0.123l4.5-0.126L626.5,268c0,0,3.25-0.5,3.625-0.5s2.625,1.5,2.625,1.5l0.875,3.25
		c0,0,0.5,4,0,4.375s-0.625,3.5-0.875,3.875s-1.25,3.5-1.25,3.5v4l-2.375,3.75L628,294.875l-1.25,2.875l0.125,2.5l-0.125,3.625
		l-0.125,2.75l-1,2.5l-1.75,2.25l-1.25,2.875l-0.875,2.5l-0.625,4.375l-0.875,1.375H618l-4-1h-4l-5-0.125l-2.375,1.125l-2.125,1.625
		L599,327l-0.125,3l0.5,2.5l1,2.375l0.938,2.375l1.188,1.625V341l-1.375,1.125l-1.625,2.25l-2.375,2.25L596,349l-0.75,2.625
		l-0.875,3.75l-0.5,3.25l-0.5,3.5l0.375,2.625l0.625,2.75l0.75,3.875l1.25,3.25l1.5,5.25l0.25,3.625l-0.75,3.875l-0.5,2.125H595h-5
		h-5h-6l-2.5,0.625l-2.75,1.125l-1.125,1.625l-0.75,1.5l0.75,3.875l0.375,3.5l0.125,2.875l0.125,2.625l0.125,4.375l-0.625,2.875
		l-1.875,3.125l-1.75,3l-1.5,2.625l-2.25,2.75l-2.125,2.25l-3.25,2.375l-3.125,2.25l-1.25,1.5l-2.75,2.625L551,439.5l-1.125,1.875
		l-1.75-0.625l-1.875-2.25l-1.25-3l-1.75-1.875l-1.5-1.25L539.875,432l-2.75,1.25l-2.619,2.5L533,437.875L531.875,440L530,441.375
		l-1.875-1.875l-1.75-1.75l-1.25-2.75l-0.625-2.625V429v-3v-5v-5v-3l-0.75-5.25l-1-5.625l-0.75-3l-1.375-4.875l-2.25-4.5L516.75,387
		l-1.25-2.75l-1.25-2.25l-0.75-3v-3v-3l1.5-2.75l3-3.916l3.5-2.666l3.334-3.167l2.333-2.667l1.667-3.166l1.166-3.667l-0.833-4.167
		l-1.334-4l-3-3.167l-3.166-2.333l-3.667-2.5l-5.667-3.667l-3.833-3.334"/>
	<path fill="#0F4AA8" stroke="#FFFFFF" stroke-miterlimit="10" d="M270.5,304.5l-1.833,5.333l-2.5,2.667l-3,2.333l-2.5,1l-3-1
		l-3.334-1.666L251.5,312l-2.333,1.667l-3,2.5L244,318.5l-3.667,0.167L236,318.833L232.667,319l-4.834,0.333l-2.333,1.5l-1.5,2.5
		L223.5,326l-2,3.667l-2.333,0.5l-1.915-0.303l-0.752,3.303V337l0.833,3.5l2,2.334l2,3.833l2,3.333l1.834,4.834l0.333,4.333
		l-0.5,3.167l-1.667,3l-1,3.333l-0.166,4l0.333,4.5V381l-2.167,3.5l-3,4l-3.833,5.666l-3.167,4l-1.666,3.417l0.666,3.917H211h5
		l3.917,2.166l0.583,2.834v3.5v10v7l-0.833,3.333l-2.334,2l-3.5,2l-3,3.333l-1,3.334l-0.5,4l1,5.666l0.334,5.5l0.166,3.667
		L210.5,467.5l-3.167,3l-2.916,2.5l-1.917,3.166V480l0.833,3.333l2.167,3l1.5,3.833l-0.833,4.167l-1.667,4l-1.167,4.167l0.334,3.5
		l1.666,1.75l3.167,0.75h4.5l5.167-0.834l1.833-2.333l3.083-1.167l2.417-0.333l0.668-2l1-3.5L233,497.5h8.501l4.833,0.25l3-1.75
		l1-4.333l3.167-3l4.5-1.167l4.833,1l5.334,4.667l5.166,3.499l2.167,1.834l6.333-0.167l8-0.333l7.834,1.5l1.954,0.756l2.711-1.422
		l2.834-2.333l3.666-3l3.834-3l3.166-1.834l3.167-2l4-0.666l5-0.501h4.333l2.167-1.833l0.666-3.333L335.5,477v-4.166l-0.25-3.5
		l0.583-2.666l1-2.167l2.833-3.5l2.667-3.333l3.333-2.167l2.5-2.333l3.834-1.334l3.5,0.667l1.833,2.667l2.667,3.5l2.666,3.833
		l2.667,1l2-1.667l3.333-0.666L374,461.5h3.333l3.334-0.25l0.833-1.583l-1.333-2.666l-2-2.5L376,452.167l-2.5-1.333l-1-2.834v-2.833
		l-1-2.166l-1.833-2.667L368,437.43l0.833-2.596l1.834-2.833l2.833-3.167l2-2.833l2.167-2.5l1.666-2.167l1.667-2.333l1.5-2.5
		l0.667-6.333l-0.167-5l0.333-5.834l-0.333-5.5c0,0-0.667-5.666-0.667-6.166s-1-4-1-4l-2.334-5.667l-3.334-3.667l-2.835-3.833
		l-2.337-3.334l-1.508-4.666l-0.849-4l-1.698-5.5l-1.396-4l-1.292-3.501H364h-2.834l-2.5-1.833l-3.333-1l-2.167-1.167l-1.333-3.037
		L351,335l-1.166-2.833l-3.5-0.334l-3.167,0.334L338.334,334L334,335.833c0,0-2.166,2.334-2.666,2.334s-3.167,0.666-3.667,0
		s-3.667,0-3.667,0l-3.167-1.667l-2.333-2.167L317,332.5h-4.167L309,331.666l-3-2.999L303.5,325l-3.666-2.833l-3.5-2l-3.5-0.333
		l-3.5,2.833L285.667,325L282,325.5h-1.833l-1.333-2.25l-0.667-3.083L277.5,317v-4.667l-1.333-3l-1.167-1.5L272.333,307
		l-1.833-2.833l0,0"/>
	<path fill="#BF94A9" stroke="#FFFFFF" stroke-miterlimit="10" d="M513.5,379.334l-1.416,0.667l-2.417,0.333l-3.333,1.834l-1.334,2.5
	l-1.666,3l-3,3.333L496,392.5h-3.333l-2.833,0.834l-4.5,2L482,398.001l-2.666,2.333l-3.167,2.167L472,403.5h-2.666l-3.167-0.583
	L463,401.334l-2.166-1.833l-1-2.833l-1.167-3.167l-1.833-1.167l-2.334,1l-2.5,2l-2.166,2.167l-2.334,3.333l-2.5,2.667l-2.5,2.833
	l-2.5,2.167l-1,2.667l2.167,3.166L443.5,417c0.001,0-2.332-2.666-2.332-2.666L439,411.168l1-2.667l2.5-2.167l2.5-2.833l2.5-2.667
	l2.334-3.333l2.166-2.167l2.5-2l2.334-1l1.833,1.167l1.167,3.167l1,2.833l2.166,1.833l3.167,1.583l3.167,0.583H472l4.167-0.999
	l3.167-2.167l2.666-2.333l3.334-2.667l4.5-2l2.833-0.834H496l4.334-1.499l3-3.333l1.666-3l1.334-2.5l3.333-1.834l2.417-0.333
	L513.5,379l-1.416,1.001l-2.417,0.333l-3.333,1.834l-1.334,2.5l-1.666,3l-3,3.333L496,392.5h-3.333l-2.833,0.834l-4.5,2L482,398.001
	l-2.666,2.333l-3.167,2.167L472,403.5h-2.666l-3.167-0.583L463,401.334l-2.166-1.833l-1-2.833l-1.167-3.167l-1.833-1.167l-2.334,1
	l-2.5,2l-2.166,2.167l-2.334,3.333l-2.5,2.667l-2.5,2.833l-2.5,2.167l-1,2.667l2.168,3.166l2.333,2.666
	c0.912,0.13,3.738-0.042,4.418,0.534c0.49,0.415,0.453,1.703,0.582,2.299c0,0.735,0.202,1.737,0.015,2.435
	c-0.391,1.451-2.386,3.352-1.351,4.694c1.654,2.146,4.717,1.997,7.138,1.904c1.193-0.046,2.786-0.422,3.961-0.118
	c1.421,0.369,2.546,1.982,3.904,2.668c1.528,0.771,1.996,0.822,3.333-0.415c0,0,0-2.956,0-3c0-1.395,1.543-2.394,2.656-2.995
	c1.677-0.905,3.138-0.754,4.307-0.012L472.5,425l-0.037-0.006c1.295,0.821,2.231,2.367,2.705,4.006l1.082,1.334
	c0,0,2.25,0.604,2.252,0.604c2.208,0.188,5.708-0.196,6.991,2.052c0.678,1.186-0.275,1.965,1.305,2.649
	c0.859,0.372,1.44,0.017,2.369-0.14c3.709-0.62,3.167,5.124,5.834,6.667l3.167,0.5c0,0,2.983,0.083,3,0.083
	c1.931,0.054,3.889-0.25,5.832-0.25c0,0,2.554-0.16,2.664-0.167c2.885-0.181,5.237,0.425,7.837,1.584l3.167,0.583H524l3.501,0.167
	c1.406-1.055,2.093-1.462,2.249-3.292l0.25,0.001l-1.875-1.875l-1.75-1.75l-1.25-2.75l-0.625-2.625V429v-3v-5v-5v-3l-0.75-5.25
	l-1-5.625l-0.75-3l-1.375-4.875l-2.25-4.5L516.75,387l-1.25-2.75l-1.25-2.25l-0.75-3"/>
	<path fill="#89F286" stroke="#FFFFFF" stroke-miterlimit="10" d="M482.666,471.418v-0.084l2.167,2l4.667,2.667l7.5,0.5l5.5-0.834
	l4.333-2.166l5.167-2.167l7.333,0.167l5.667,1.333l4.125,1.791l4.25,1.625l6.563,1.25h6.938l6-2.375l3.792-2.791l3.5-1.667
	l4.458-2.042l2.363-3.18c-0.001,0,3.344,1.056,3.344,1.056l6.334,1.166l5.166,0.5l4.167,2l2.667,3.667l-0.667,5.5l-4,3.333l-3.167,2
	l-6.5,3.5l-4.5,3.334l-2.666,3.5l-2.834,3.166l-9.666,3.834L550,502.167l-3.333,1.5l-4.167,3.667l-3.333,4.833l-2,2.333
	l-2.661,4.005c-0.918,0.012-3.596,1.775-4.172,2.495l-2.666,3.333l-4.834,4l-4.333,5.167l-5,6.167l-3.333,4.166l-2.667,3.5
	l-3.667,4.167c0,0-3.165,4.666-3.166,4.667c-2.271,3.349-7.223,10.152-12.138,8.961c-1.093-0.265-1.311-1.966-1.696-2.961
	c-0.33-0.849-0.676-2.405-1.435-2.979c-0.938-0.709-2.182-0.089-3.23,0.146c-0.716,0.159-1.451,1.472-2.268,1.786
	c-2.758,1.059-3.736-1.108-4.9-3.119l-1.5-5.167l-0.333-5.5l-0.334-7.166l-0.666-5.667l-1.5-4.5
	c-0.324-0.792-0.644-1.586-0.972-2.376c-0.313-0.75-1.224-1.885-1.978-2.199c-1.413-0.59-2.621,1.053-3.719,1.908l-4.5,6.834
	l-3.667,5.666c0,0-3.132,6.596-3.166,6.666c-1.1,2.315-1.453,3.334-4.334,3.334c-1,0-4.666-0.333-4.666-0.333l-8.334-2.167
	L429,547.167l-3.5,0.834l-2.333,2.5l-2.667,4.334c-1.939,2.361-3.915,5.456-7.125,6.341c-1.057,0.291-3.966,0.638-4.908,0.192
	c-1.728-0.813-1.966-2.524-1.419-4.037c0.612-1.693,1.196-3.08,1.527-4.88c0.235-1.287,0.079-3.31-0.772-4.363
	c-0.891-1.105-2.725-1.15-4.043-1.378c-2.08-0.357-3.784-0.571-5.479-1.919c-1.228-0.978-1.658-2.718-2.963-3.637
	c-2.495-1.757-4.786,0.119-7.317-0.32c0,0-3.833-0.666-4.333-0.833s-1.333-3.167-1.333-3.667s0.79-3.581,0.791-3.583
	c0.378-1.474,0.998-3.924-0.064-5.201c-1.249-1.502-4.308-0.884-6.061-0.924l-2.666-1.792l-2.833-2c0,0-1.333-1.167-1.833-1.5
	s-3.5-1.499-4-1.666s-5.167-3-5.167-3l-4.333-2.834L351.001,513l-5.333,1.5l-5,0.833l-7,0.334l-7.667-1.167l-7.333-0.5
	c0,0-2.334-3.001-3.667-3.834s-6.333-4.5-6.833-4.833s-4-3-4.833-3.5c-0.478-0.286-3.712-1.577-3.713-1.577l2.711-1.422l2.834-2.333
	l3.666-3l3.834-3l3.166-1.834l3.167-2l4-0.666l5-0.501h4.333l2.167-1.833l0.666-3.333L335.5,477v-4.166l-0.25-3.5l0.583-2.666
	l1-2.167l2.833-3.5l2.667-3.333l3.333-2.167l2.5-2.333l3.834-1.334l3.5,0.667l1.833,2.667l2.667,3.5l2.666,3.833l2.667,1l2-1.667
	l3.333-0.666L374,461.5h3.333l3.334-0.25l0.833-1.583l-1.333-2.666l-2-2.5L376,452.167l-2.5-1.333l-1-2.834v-2.833l-1-2.166
	l-1.833-2.667L368,437.43l0.833-2.596l1.834-2.833l2.833-3.167l2-2.833l2.167-2.5l1.666-2.167l1.667-2.333l1.5-2.5l4,2.333
	l1.833,2.833l2.167,3.167l2,3.833l1.667,3.834l1.416,3.333L398,437.5h3h3h2l3.166,1.729l5.334,3.021l3.875,2.417l3.791,0.834
	l4.334-0.667l2.5-0.167c0,0.001-0.5,1.334-0.5,1.334c0,1.743-0.201,3.607,0,5.335c0.217,1.835,0.15,3.712,0.608,5.513
	c0.529,2.079,2.246,2.727,3.225,4.486c0.012,0.021,1.667,3,1.667,3c0.4,0.804,0.976,1.665,1.254,2.531
	c0.729,2.259,0.04,4.585,0.037,6.883c-0.003,2.229,0.733,3,2.292,4.419c0.005,0.005,2.25,2.001,2.25,2.001l5.5,2.833l4.167,1.5
	c0.944,0.242,1.958,0.664,2.922,0.771c1.528,0.17,1.894-0.754,2.91-1.771c0.001-0.001,2.668-2.501,2.668-2.501l3.166-3.333l4-2.5
	l3.834,0.166l4.166,1.334l3.084,0.457c1.577,0.073,3.447-1.005,4.665-2.217c1.438-1.43,1.751-2.033,1.751-3.574"/>
<circle fill="#FFFFFF" stroke="#FFFFFF" stroke-miterlimit="10" cx="254.296" cy="172.037" r="1.963"/>
<circle fill="#FFFFFF" stroke="#FFFFFF" stroke-miterlimit="10" cx="384.333" cy="243.833" r="1.963"/>
<circle fill="#FFFFFF" stroke="#FFFFFF" stroke-miterlimit="10" cx="312.5" cy="413" r="1.963"/>
<circle fill="#FFFFFF" stroke="#FFFFFF" stroke-miterlimit="10" cx="124.13" cy="467.389" r="1.963"/>
<circle fill="#FFFFFF" stroke="#FFFFFF" stroke-miterlimit="10" cx="393.5" cy="375" r="1.963"/>
<circle fill="#FFFFFF" stroke="#FFFFFF" stroke-miterlimit="10" cx="405.5" cy="458.5" r="1.963"/>
<circle fill="#FFFFFF" stroke="#FFFFFF" stroke-miterlimit="10" cx="469.167" cy="446.13" r="1.963"/>
<circle fill="#FFFFFF" stroke="#FFFFFF" stroke-miterlimit="10" cx="500.833" cy="413.963" r="1.963"/>
<circle fill="#FFFFFF" stroke="#FFFFFF" stroke-miterlimit="10" cx="528" cy="454.574" r="1.963"/>
<circle fill="#FFFFFF" stroke="#FFFFFF" stroke-miterlimit="10" cx="611.037" cy="417.889" r="1.963"/>
<circle fill="#FFFFFF" stroke="#FFFFFF" stroke-miterlimit="10" cx="618.5" cy="512.037" r="1.963"/>
<circle fill="#FFFFFF" stroke="#FFFFFF" stroke-miterlimit="10" cx="691" cy="462.426" r="1.963"/>
<circle fill="#FFFFFF" stroke="#FFFFFF" stroke-miterlimit="10" cx="675.5" cy="428" r="1.963"/>
<circle fill="#FFFFFF" stroke="#FFFFFF" stroke-miterlimit="10" cx="665.831" cy="437.461" r="1.963"/>
<circle fill="#FFFFFF" stroke="#FFFFFF" stroke-miterlimit="10" cx="571.037" cy="375.963" r="1.963"/>
<circle fill="#FFFFFF" stroke="#FFFFFF" stroke-miterlimit="10" cx="515" cy="278.5" r="1.963"/>
<circle fill="#FFFFFF" stroke="#FFFFFF" stroke-miterlimit="10" cx="238.131" cy="279.5" r="1.963"/>
</svg>
