<?xml version="1.0" encoding="utf-8"?>
<!-- Generator: Adobe Illustrator 16.0.0, SVG Export Plug-In . SVG Version: 6.00 Build 0)  -->
<!DOCTYPE svg PUBLIC "-//W3C//DTD SVG 1.1 Tiny//EN" "http://www.w3.org/Graphics/SVG/1.1/DTD/svg11-tiny.dtd">
<svg version="1.1" baseProfile="tiny" id="图层_1"
	 xmlns="http://www.w3.org/2000/svg" xmlns:xlink="http://www.w3.org/1999/xlink" x="0px" y="0px" width="860px" height="650px"
	 viewBox="0 0 860 650" xml:space="preserve">
<g>
	<path fill="#F98A8A" stroke="#FFFFFF" stroke-miterlimit="10" d="M447.5,296.5v3.5l-0.667,5l-1.166,2.583l-1.834,1.916H441
		l-4.667-1.666l-5.166-1.334H426l-6.667,0.334L413,308.5h-8h-5.167H397l-3.333,2.834L391.833,314l-3.667,3.167l-3.5,1.333H380l-4-1
		h-5l-2.583,2.5l-0.917,2.167V325l0.833,4.501l0.833,6.166l-0.5,3.5l-1.167,2.167l-1.167,2.333l-2,3l0.833,2.334l1.333,4l1.667,5.5
		l0.833,4l1.5,4.666l2.333,3.334l2.833,3.833l3.333,3.667l2.333,5.667c0,0,1,3.5,1,4s0.667,6.166,0.667,6.166l0.333,5.5l-0.33,5.834
		l0.167,5l-0.833,4.5l0.667,2.333l2.667,2.167l3.5,5.333l2.167,5L394,435.25l2.333,3.25H399l2.833-0.999l2.167-0.5l3.333,1.499
		l2.333,1.834l2.667,1.333l4.667,1.917l3,0.916h4l4.5-0.833l3.834-2l2.666-2.833l2.834-5.167l1.666-3.666l2.167-4.833l1.833-5.167
		V417l-2.333-2.666L439,411.168l1-2.667l2.5-2.167l2.5-2.833l2.5-2.667l2.334-3.333l2.166-2.167l2.5-2l2.334-1l1.833,1.167
		l1.167,3.167l1,2.833l2.166,1.833l3.167,1.583l3.167,0.583H472l4.167-0.999l3.167-2.167l2.666-2.333l3.334-2.667l4.5-2l2.833-0.834
		H496l4.334-1.499l3-3.333l1.666-3l1.334-2.5l3.333-1.834l2.417-0.333l1.416-0.667V376v-3l1.5-2.75l3-3.916l3.5-2.666l3.334-3.167
		l2.333-2.667l1.667-3.166l1.166-3.667l-0.833-4.167l-1.334-4l-3-3.167l-3.166-2.333l-3.667-2.5l-5.667-3.667l-5.5-3.833l-4.666-3.5
		l-5.667-4.5l-4.667-3.417L489,314.5h-3l-5.167,0.5l-4.333-1l-4.333-2.333l-3-3.333L466,305.667l-4.167-3L458,300.334l-4.167-2.417
		l-4.666-1.417H447.5L447.5,296.5z"/>
	<path fill="none" stroke="#FFFFFF" stroke-miterlimit="10" d="M393,374.668"/>
</g>
</svg>
