<?xml version="1.0" encoding="utf-8"?>
<!-- Generator: Adobe Illustrator 16.0.0, SVG Export Plug-In . SVG Version: 6.00 Build 0)  -->
<!DOCTYPE svg PUBLIC "-//W3C//DTD SVG 1.1 Tiny//EN" "http://www.w3.org/Graphics/SVG/1.1/DTD/svg11-tiny.dtd">
<svg version="1.1" baseProfile="tiny" id="图层_1"
	 xmlns="http://www.w3.org/2000/svg" xmlns:xlink="http://www.w3.org/1999/xlink" x="0px" y="0px" width="860px" height="650px"
	 viewBox="0 0 860 650" xml:space="preserve">
	<path fill="#89F286" stroke="#FFFFFF" stroke-miterlimit="10" d="M482.666,471.418v-0.084l2.167,2l4.667,2.667l7.5,0.5l5.5-0.834
	l4.333-2.166l5.167-2.167l7.333,0.167l5.667,1.333l4.125,1.791l4.25,1.625l6.563,1.25h6.938l6-2.375l3.792-2.791l3.5-1.667
	l4.458-2.042l2.363-3.18c-0.001,0,3.344,1.056,3.344,1.056l6.334,1.166l5.166,0.5l4.167,2l2.667,3.667l-0.667,5.5l-4,3.333l-3.167,2
	l-6.5,3.5l-4.5,3.334l-2.666,3.5l-2.834,3.166l-9.666,3.834L550,502.167l-3.333,1.5l-4.167,3.667l-3.333,4.833l-2,2.333
	l-2.661,4.005c-0.918,0.012-3.596,1.775-4.172,2.495l-2.666,3.333l-4.834,4l-4.333,5.167l-5,6.167l-3.333,4.166l-2.667,3.5
	l-3.667,4.167c0,0-3.165,4.666-3.166,4.667c-2.271,3.349-7.223,10.152-12.138,8.961c-1.093-0.265-1.311-1.966-1.696-2.961
	c-0.33-0.849-0.676-2.405-1.435-2.979c-0.938-0.709-2.182-0.089-3.23,0.146c-0.716,0.159-1.451,1.472-2.268,1.786
	c-2.758,1.059-3.736-1.108-4.9-3.119l-1.5-5.167l-0.333-5.5l-0.334-7.166l-0.666-5.667l-1.5-4.5
	c-0.324-0.792-0.644-1.586-0.972-2.376c-0.313-0.75-1.224-1.885-1.978-2.199c-1.413-0.59-2.621,1.053-3.719,1.908l-4.5,6.834
	l-3.667,5.666c0,0-3.132,6.596-3.166,6.666c-1.1,2.315-1.453,3.334-4.334,3.334c-1,0-4.666-0.333-4.666-0.333l-8.334-2.167
	L429,547.167l-3.5,0.834l-2.333,2.5l-2.667,4.334c-1.939,2.361-3.915,5.456-7.125,6.341c-1.057,0.291-3.966,0.638-4.908,0.192
	c-1.728-0.813-1.966-2.524-1.419-4.037c0.612-1.693,1.196-3.08,1.527-4.88c0.235-1.287,0.079-3.31-0.772-4.363
	c-0.891-1.105-2.725-1.15-4.043-1.378c-2.08-0.357-3.784-0.571-5.479-1.919c-1.228-0.978-1.658-2.718-2.963-3.637
	c-2.495-1.757-4.786,0.119-7.317-0.32c0,0-3.833-0.666-4.333-0.833s-1.333-3.167-1.333-3.667s0.79-3.581,0.791-3.583
	c0.378-1.474,0.998-3.924-0.064-5.201c-1.249-1.502-4.308-0.884-6.061-0.924l-2.666-1.792l-2.833-2c0,0-1.333-1.167-1.833-1.5
	s-3.5-1.499-4-1.666s-5.167-3-5.167-3l-4.333-2.834L351.001,513l-5.333,1.5l-5,0.833l-7,0.334l-7.667-1.167l-7.333-0.5
	c0,0-2.334-3.001-3.667-3.834s-6.333-4.5-6.833-4.833s-4-3-4.833-3.5c-0.478-0.286-3.712-1.577-3.713-1.577l2.711-1.422l2.834-2.333
	l3.666-3l3.834-3l3.166-1.834l3.167-2l4-0.666l5-0.501h4.333l2.167-1.833l0.666-3.333L335.5,477v-4.166l-0.25-3.5l0.583-2.666
	l1-2.167l2.833-3.5l2.667-3.333l3.333-2.167l2.5-2.333l3.834-1.334l3.5,0.667l1.833,2.667l2.667,3.5l2.666,3.833l2.667,1l2-1.667
	l3.333-0.666L374,461.5h3.333l3.334-0.25l0.833-1.583l-1.333-2.666l-2-2.5L376,452.167l-2.5-1.333l-1-2.834v-2.833l-1-2.166
	l-1.833-2.667L368,437.43l0.833-2.596l1.834-2.833l2.833-3.167l2-2.833l2.167-2.5l1.666-2.167l1.667-2.333l1.5-2.5l4,2.333
	l1.833,2.833l2.167,3.167l2,3.833l1.667,3.834l1.416,3.333L398,437.5h3h3h2l3.166,1.729l5.334,3.021l3.875,2.417l3.791,0.834
	l4.334-0.667l2.5-0.167c0,0.001-0.5,1.334-0.5,1.334c0,1.743-0.201,3.607,0,5.335c0.217,1.835,0.15,3.712,0.608,5.513
	c0.529,2.079,2.246,2.727,3.225,4.486c0.012,0.021,1.667,3,1.667,3c0.4,0.804,0.976,1.665,1.254,2.531
	c0.729,2.259,0.04,4.585,0.037,6.883c-0.003,2.229,0.733,3,2.292,4.419c0.005,0.005,2.25,2.001,2.25,2.001l5.5,2.833l4.167,1.5
	c0.944,0.242,1.958,0.664,2.922,0.771c1.528,0.17,1.894-0.754,2.91-1.771c0.001-0.001,2.668-2.501,2.668-2.501l3.166-3.333l4-2.5
	l3.834,0.166l4.166,1.334l3.084,0.457c1.577,0.073,3.447-1.005,4.665-2.217c1.438-1.43,1.751-2.033,1.751-3.574"/>
</svg>
