<?xml version="1.0" encoding="utf-8"?>
<!-- Generator: Adobe Illustrator 16.0.0, SVG Export Plug-In . SVG Version: 6.00 Build 0)  -->
<!DOCTYPE svg PUBLIC "-//W3C//DTD SVG 1.1 Tiny//EN" "http://www.w3.org/Graphics/SVG/1.1/DTD/svg11-tiny.dtd">
<svg version="1.1" baseProfile="tiny" id="图层_1"
	 xmlns="http://www.w3.org/2000/svg" xmlns:xlink="http://www.w3.org/1999/xlink" x="0px" y="0px" width="860px" height="650px"
	 viewBox="0 0 860 650" xml:space="preserve">
<g>
	<path fill="#043FB5" stroke="#FFFFFF" stroke-miterlimit="10" d="M482.666,471.334c0,1.541-0.313,2.145-1.751,3.574
		c-1.218,1.212-3.088,2.29-4.665,2.217l-3.084-0.457L469,475.334l-3.834-0.166l-4,2.5L458,481.001c0,0-2.667,2.5-2.668,2.501
		c-1.017,1.018-1.382,1.941-2.91,1.771c-0.964-0.107-1.978-0.529-2.922-0.771l-4.167-1.5l-5.5-2.833c0,0-2.245-1.996-2.25-2.001
		c-1.559-1.419-2.295-2.19-2.292-4.419c0.003-2.298,0.691-4.624-0.037-6.883c-0.278-0.866-0.854-1.727-1.254-2.531
		c0,0-1.655-2.979-1.667-3c-0.979-1.76-2.695-2.407-3.225-4.486c-0.458-1.801-0.391-3.678-0.608-5.513c-0.201-1.728,0-3.592,0-5.335
		c0,0,0.5-1.333,0.5-1.334l3.954-2.157l2.585-3.004l2.919-5.816l1.021-3.593l2.178-4.882l1.844-5.214V417
		c0.912,0.13,3.738-0.042,4.418,0.534c0.49,0.415,0.453,1.703,0.582,2.299c0,0.735,0.202,1.737,0.015,2.435
		c-0.391,1.451-2.386,3.351-1.351,4.694c1.654,2.146,4.717,1.997,7.138,1.904c1.193-0.046,2.786-0.422,3.961-0.118
		c1.421,0.369,2.546,1.982,3.904,2.668c1.528,0.771,1.996,0.822,3.333-0.415c0,0,0-2.956,0-3c0-1.395,1.543-2.394,2.656-2.995
		c1.677-0.905,3.138-0.754,4.307-0.012L472.5,425v3v3v3l0.835,1.667l2,1.666l0.997,1.5l1.168,2.542V445v5v4l0.668,1.833l1.167,3
		l1.333,3.334l0.833,3.833l0.667,3.167l0.498,2.251"/>
</g>
</svg>
