<?xml version="1.0" encoding="utf-8"?>
<!-- Generator: Adobe Illustrator 16.0.0, SVG Export Plug-In . SVG Version: 6.00 Build 0)  -->
<!DOCTYPE svg PUBLIC "-//W3C//DTD SVG 1.1 Tiny//EN" "http://www.w3.org/Graphics/SVG/1.1/DTD/svg11-tiny.dtd">
<svg version="1.1" baseProfile="tiny" id="图层_2"
	 xmlns="http://www.w3.org/2000/svg" xmlns:xlink="http://www.w3.org/1999/xlink" x="0px" y="0px" width="860px" height="650px"
	 viewBox="0 0 860 650" xml:space="preserve">
<g>
	<path fill="#22F4E5" stroke="#FFFFFF" stroke-miterlimit="10" d="M190.66,339.601c-0.29-2.13,0.568-5.408-0.623-6.939
		c-2.824-3.63-7.995-4.214-10.499-8.453c-1.71-2.896-3.61-2.864-6.692-3.207c-1.527-0.17-3.103-0.145-4.608-0.376
		c-1.603-0.247,2.616-5.894,3.095-6.458l6.834-2.834l7.333-2.833l3.667-0.5l1.833,1.5h2.5l1.833-1.417L196.5,305v-3v-4v-3v-2.667
		l2.667-2.5l3.666-1.166l2.5-2.5l2-2.5l2.167-3L212,277l3.833-3.167L220,272.5h6h5h8h4.667l6.124,0.708l2.792,3.542l1.75,3.25
		l3.334,3.667l2.5,2.833l3.833,4.833l2.833,3.5l2.167,3l0.917,2.334l0.583,4.333l-1.833,5.333l-2.5,2.667l-3,2.333l-2.5,1l-3-1
		l-3.334-1.666L251.5,312l-2.333,1.667l-3,2.5L244,318.5l-3.667,0.167L236,318.833L232.667,319l-4.834,0.333l-2.333,1.5l-1.5,2.5
		L223.5,326l-2,3.667l-2.333,0.5l-1.915-0.303L216,329.667l-3-1l-2.708-0.167l-3.625-0.5l-3.5,1.834L198.5,333l-2.833,2.167l-3,3
		L190.5,340L190.66,339.601z"/>
</g>
</svg>
