<?xml version="1.0" encoding="utf-8"?>
<!-- Generator: Adobe Illustrator 16.0.0, SVG Export Plug-In . SVG Version: 6.00 Build 0)  -->
<!DOCTYPE svg PUBLIC "-//W3C//DTD SVG 1.1 Tiny//EN" "http://www.w3.org/Graphics/SVG/1.1/DTD/svg11-tiny.dtd">
<svg version="1.1" baseProfile="tiny" id="图层_2"
	 xmlns="http://www.w3.org/2000/svg" xmlns:xlink="http://www.w3.org/1999/xlink" x="0px" y="0px" width="860px" height="650px"
	 viewBox="0 0 860 650" xml:space="preserve">
<g>
	<path fill="#C7D107" stroke="#FFFFFF" stroke-miterlimit="10" d="M335,174.333l-1.125,3.542l-1.293,4.25l-1.291,2.77l-1.311,3.637
		l-2.574,4.066l-1.785,2.952l-2.311,3.64l-2.821,2.323c0,0-3.828,1.993-4.328,1.826s-5.163,0.008-5.163,0.008L307.333,205
		L303,207.667l-2.333,2.833l-2.333,3.833l-1.917,3.167l-0.917,4.833V228l-1.5,3.167l-2.167,3l-3.667,2l-3.5,2.167l-3.5,3L279.5,244
		l1.167,3.167l1.667,1.833l2,1.667l0.667,3.25l-0.667,2.583H282h-4l-2-0.833l-2.5,0.833l-1,2.167V262v5l1,4.167L274,274
		l-0.167,1.667l-3-1l-3.833-0.5L262.833,274l-4.667,1L255,276.833l-1.667,1.333c0,0.001-3.542-4.958-3.542-4.958l-6.124-0.708H239
		h-8h-5h-6l-4.167,1.333L212,277l-2.5,3.667l-2.167,3l-2,2.5l-2.5,2.5l-3.666,1.166l-2.667,2.5V295v3v4v3l-1.167,3.083L193.5,309.5
		H191l-1.833-1.5l-3.667,0.5l-7.333,2.833l-6.834,2.834c-0.855,1.006-8.256-1.873-8.5-3.334c-0.167-1-1.833-4.5-1.833-4.5
		l-3.167,0.5L154,308.5l-3.667,1.833L146.5,308v-6v-5l-0.667-2.5l-2.667-4.5l-3.667-1l-6.5,0.5l-2.5-3.833V281l2.333-1l2-3.833
		l-1-3.333l-1.833-2l-1.167-3.5l2-3.667l1.333-4.333l-1.333-3.5l-1.667-7.5l1-4.5l0.333-3.667l-0.333-4.5l2.333-2.5l0.667-3.333
		l-3-1l-6.5-1.833l-1.833-3.667L123,217l0.833-5.5l1.833-3.5l3.583-1.833l3.25-4.5V196l-1.833-4.5l-3.167-3.167l-0.5-1.5
		l2.167-0.583l4-0.75H137l2-1.333l2.667-0.833L144.5,184l3.167,1.833l5-0.5l4.333-2.167l5.167-1.167l5.833,0.5l7.5,3l4,0.167
		l1.833-0.833l3.333-3c0,0,4-1.333,4.5-1.333s5.167-0.5,5.167-0.5l2.167-3.167l-4-4.333l-1-4.5v-4l-2-5.5l-3.5-3.167l-6.833-4
		L173.5,148l-6.333-1.833l-7.5,0.167L154.5,145.5l-0.833-4.333L153.5,135l1-4.167l-0.5-5.167l-1.667-3.333L146,119.5l-4.333-2
		l-7.833-0.333l-5.667-1.667l-5.833-2.667l-0.697-3.327l5.557-4.691l6.403-1.719l4.454-2.487l4.287-1.617l4.77-1.184l3.759,0.721
		l3.505,0.859l3.877,0.495l2.253,1.121l3.499,1.121l3.625,0.438l3.75,0.938H174l3,0.5l3.375,0.125l2.125,0.25l3.375,0.5l2.625,0.375
		l2.875,1.25l2.25,1.75l2.625,1.25l2,1.25l3.25,0.75h1.5l2-0.75l1-1l1.375-0.875l2.375-1L211,107.5l1.125,0.25l1.75,0.875
		l2.125,0.75l2.5,0.5l1.5-0.625l1.125-1.875l1.125-2.125l1.125-2l1-1.75l0.75-0.75l1.375-1.125l1.25-0.5l1.125,0.375l1,0.75
		l0.75,1.625l0.875,2.75l0.75,2.5l0.875,1.625l1.375,1.75l1.125,0.375l2.5,0.625H240l0.875,1.125l1.125,1.75l1.125,1.125H244
		l1.375-0.625l2.125-2.25l2.625-3l3-2.125l3.25-2.25l2.875-1.125l3.625-0.5l3,0.125l2.25-2.75l1.125-1.875l1.125-0.5l1.125,1
		l1.875,2l1.875,1.875l1.125,1.625l2.125,0.625l2.375,0.25l1.75,0.627l2.375,2.998l1.625,2l2.688,3.125l2.188,2.875V119l-1.75,1.5
		l-1,2.25l0.375,1.375l3.25,1l2.625,0.75l3.5,2.5V131l-1.75,2.875l-1.5,3.438l0.25,3.188h2.5l2.125,1l1.5,1.125l0.875,2.25
		l1.625,2.188l2,1.438H309l2.25,1l1.5,1.625l0.75,2.813l1.125,1.563H316l2.5-0.875l3.625,0.125l0.75,2l-1,2.25l-1.25,2.25l-1.25,1.5
		l1.125,2.875l1.125,3l1.25,2.375l2.125,3.375l0.625,1.063l1.25,1.063H329l3-0.875l3-1.292"/>
</g>
</svg>
