<?xml version="1.0" encoding="utf-8"?>
<!-- Generator: Adobe Illustrator 16.0.0, SVG Export Plug-In . SVG Version: 6.00 Build 0)  -->
<!DOCTYPE svg PUBLIC "-//W3C//DTD SVG 1.1 Tiny//EN" "http://www.w3.org/Graphics/SVG/1.1/DTD/svg11-tiny.dtd">
<svg version="1.1" baseProfile="tiny" id="图层_2"
	 xmlns="http://www.w3.org/2000/svg" xmlns:xlink="http://www.w3.org/1999/xlink" x="0px" y="0px" width="860px" height="650px"
	 viewBox="0 0 860 650" xml:space="preserve">
<g>
	<path fill="#157C3F" stroke="#FFFFFF" stroke-miterlimit="10" d="M584.501,264v9.125V296v5.834
		c-0.521,3.248-0.725,6.737-3.619,8.829c-1.076,0.778-2.512,0.932-3.718,1.449c-1.333,0.571-2.559,1.362-3.83,2.056
		c-1.705,0.206-2.822,0.339-4.313-0.611c-1.897-1.209-3.146-1.781-5.354-2.223l-2.834,1c-1.797,0.751-3.623,1.296-5.588,1.003
		c-1.68-0.25-3.676-1.836-5.245-1.836c-0.001,0-2,0-2,0l-2,1.333c-0.702,0.646-1.618,1.277-2.191,2.037
		c-0.758,1.005-0.548,2.5-1.221,3.433c-1.338,1.856-2.818,0.363-3.963-0.679c-0.919-0.87-1.071-1.438-2.278-0.914
		c-0.884,0.384-1.578,1.223-2.347,1.789l-4.167-1.165l-3.833-2.5l-4.667-2L517,312.668l-4.167,0.833l-2,2.333L510,318.167L508.5,323
		v5c-3.499-3-7.505-5.453-10.871-8.578c-1.116-1.036-2.542-1.421-3.933-1.977c-2.079-0.831-2.993-2.656-5.489-2.876
		c-1.837-0.162-3.675,0.498-5.491,0.688c-1.954,0.204-3.922,0.183-5.883,0.242l-3.5-2.333l-3.166-2.833l-3.5-3.167L463,303.833
		L460,301l-4.833-2.667l-3.334-2.5l-1.384-1.087L449.5,290v-4v-2.167l1-2.5l2-3.333l2.833-3l4.167-3.167l3-2l3-2.166l3.167-2.667
		l2.167-2l1.666-4v-5v-4v-4.833l0.916-3.167l2.418-3.5l0.666-3.5v-5.167l-0.583-3L474.5,222v-4.5l0.916-3.5l0.751-3.167l1.667-4.166
		L479.5,204v-4l-0.5-3.5l2.625,1.5l2.375,1.125l2.125,0.625l2.75-0.375l3.125-1.25l2.75-0.625l3,1.25l1.875,2.5L502,203.5
		l1.625,1.875l2,2.125l2.25,1.438l2.875,0.563H515l5-1h4l2.125,1l1.375,2.125l1.75-2.75c0,0,0.625-1.75,0.625-2.125
		s1.875-3.875,1.875-3.875l2.125-2.5l2-2l2.875-1.688l2.125-1.188H544l2.875,1.375l1.063,1.75l0.563,2.625V204v4v2l-0.25,4.125
		l0.75,2.125l1.375,1.625l1.188,2.125l0.938,2.125V224l-1.125,1.75l-2.5,2.125c-0.656,0.862-1.75,1.538-2.073,2.62
		c-0.375,1.252,0.4,2.355,0.823,3.505c0,0,2.625,1.125,2.626,1.125c0.829,0.721,2.468,1.49,2.755,2.636
		c0.201,0.802-0.325,2.057-0.506,2.863V243l0.75,2l2,2.125l2.563,3.125l1.688,2.5c0,0,0,4.249,0,4.25
		c0,1.674,1.557,4.746,3.456,4.481c2.082-0.291,3.789-3.68,6.158-2.049c1.128,0.777,0.903,2.81,1.386,3.943V267l0.875,3.125
		c0.558,1.068,1.029,3.181,2.205,3.721c1.587,0.73,3.147-1.477,4.045-2.471l2.25-3l2.75-2.875l1.875-1.5"/>
</g>
</svg>
