<?xml version="1.0" encoding="utf-8"?>
<!-- Generator: Adobe Illustrator 16.0.0, SVG Export Plug-In . SVG Version: 6.00 Build 0)  -->
<!DOCTYPE svg PUBLIC "-//W3C//DTD SVG 1.1 Tiny//EN" "http://www.w3.org/Graphics/SVG/1.1/DTD/svg11-tiny.dtd">
<svg version="1.1" baseProfile="tiny" id="图层_1"
	 xmlns="http://www.w3.org/2000/svg" xmlns:xlink="http://www.w3.org/1999/xlink" x="0px" y="0px" width="860px" height="650px"
	 viewBox="0 0 860 650" xml:space="preserve">
<path fill="#BF94A9" stroke="#FFFFFF" stroke-miterlimit="10" d="M513.5,379.334l-1.416,0.667l-2.417,0.333l-3.333,1.834l-1.334,2.5
	l-1.666,3l-3,3.333L496,392.5h-3.333l-2.833,0.834l-4.5,2L482,398.001l-2.666,2.333l-3.167,2.167L472,403.5h-2.666l-3.167-0.583
	L463,401.334l-2.166-1.833l-1-2.833l-1.167-3.167l-1.833-1.167l-2.334,1l-2.5,2l-2.166,2.167l-2.334,3.333l-2.5,2.667l-2.5,2.833
	l-2.5,2.167l-1,2.667l2.167,3.166L443.5,417c0.001,0-2.332-2.666-2.332-2.666L439,411.168l1-2.667l2.5-2.167l2.5-2.833l2.5-2.667
	l2.334-3.333l2.166-2.167l2.5-2l2.334-1l1.833,1.167l1.167,3.167l1,2.833l2.166,1.833l3.167,1.583l3.167,0.583H472l4.167-0.999
	l3.167-2.167l2.666-2.333l3.334-2.667l4.5-2l2.833-0.834H496l4.334-1.499l3-3.333l1.666-3l1.334-2.5l3.333-1.834l2.417-0.333
	L513.5,379l-1.416,1.001l-2.417,0.333l-3.333,1.834l-1.334,2.5l-1.666,3l-3,3.333L496,392.5h-3.333l-2.833,0.834l-4.5,2L482,398.001
	l-2.666,2.333l-3.167,2.167L472,403.5h-2.666l-3.167-0.583L463,401.334l-2.166-1.833l-1-2.833l-1.167-3.167l-1.833-1.167l-2.334,1
	l-2.5,2l-2.166,2.167l-2.334,3.333l-2.5,2.667l-2.5,2.833l-2.5,2.167l-1,2.667l2.168,3.166l2.333,2.666
	c0.912,0.13,3.738-0.042,4.418,0.534c0.49,0.415,0.453,1.703,0.582,2.299c0,0.735,0.202,1.737,0.015,2.435
	c-0.391,1.451-2.386,3.352-1.351,4.694c1.654,2.146,4.717,1.997,7.138,1.904c1.193-0.046,2.786-0.422,3.961-0.118
	c1.421,0.369,2.546,1.982,3.904,2.668c1.528,0.771,1.996,0.822,3.333-0.415c0,0,0-2.956,0-3c0-1.395,1.543-2.394,2.656-2.995
	c1.677-0.905,3.138-0.754,4.307-0.012L472.5,425l-0.037-0.006c1.295,0.821,2.231,2.367,2.705,4.006l1.082,1.334
	c0,0,2.25,0.604,2.252,0.604c2.208,0.188,5.708-0.196,6.991,2.052c0.678,1.186-0.275,1.965,1.305,2.649
	c0.859,0.372,1.44,0.017,2.369-0.14c3.709-0.62,3.167,5.124,5.834,6.667l3.167,0.5c0,0,2.983,0.083,3,0.083
	c1.931,0.054,3.889-0.25,5.832-0.25c0,0,2.554-0.16,2.664-0.167c2.885-0.181,5.237,0.425,7.837,1.584l3.167,0.583H524l3.501,0.167
	c1.406-1.055,2.093-1.462,2.249-3.292l0.25,0.001l-1.875-1.875l-1.75-1.75l-1.25-2.75l-0.625-2.625V429v-3v-5v-5v-3l-0.75-5.25
	l-1-5.625l-0.75-3l-1.375-4.875l-2.25-4.5L516.75,387l-1.25-2.75l-1.25-2.25l-0.75-3"/>
</svg>
