<?xml version="1.0" encoding="utf-8"?>
<!-- Generator: Adobe Illustrator 16.0.0, SVG Export Plug-In . SVG Version: 6.00 Build 0)  -->
<!DOCTYPE svg PUBLIC "-//W3C//DTD SVG 1.1 Tiny//EN" "http://www.w3.org/Graphics/SVG/1.1/DTD/svg11-tiny.dtd">
<svg version="1.1" baseProfile="tiny" id="图层_1"
	 xmlns="http://www.w3.org/2000/svg" xmlns:xlink="http://www.w3.org/1999/xlink" x="0px" y="0px" width="860px" height="650px"
	 viewBox="0 0 860 650" xml:space="preserve">
<g>
	<path fill="#0DCE3A" stroke="#FFFFFF" stroke-miterlimit="10" d="M663,409.5h-2h-2h-2.999l-3.667,1.416L650.167,413l-2.333,2.5
		l-2.667,3l-1.833,2l-1.833,2.5l-1.001,2v3.167l0.416,3L641.5,436v4v3v4v2.333l-1.334,3.334l-1.999,4.5l-2.333,3L633.848,464
		l-0.348,3v2.5l1.494,3.166l1.84,2.834l2.834,2.166l1.833,1.334l-0.667,2.586l-0.666,2.747l-0.834,3.833L638,490.5h-1.332l-2.82-1
		l-3.18-1.834l-4.5-1.666l-2.5-1.167l-3-0.167l-2,0.834l-3.167,1.833l-2.5,1.667L610,490.5h-2.999l-1.5-0.667l-1.333-3.167
		l-1.167-5.08L601.668,478l-2-3.334l-2.667-2l-2.167-1.166l-2.5-2.167l-1.666-2.666l-2.001-2.834l-2.999-3.375L583.001,459
		l-4.333-1.5l-2.668-1h-2.326l-1.672,0.722l-1.837,0.891l-1.67,2.777l-1.507,4.556l0,0l-1.987-1.945c0,0-2.167-1.667-2.667-1.833
		s-2.5-2.167-2.5-2.167l-2.166-2.5l-1.168-3v-4v-1.791l-2.958-3.542l-3.417-3.292h-0.375L551,439.5l1.875-2.5l2.75-2.625l1.25-1.5
		l3.125-2.25l3.25-2.375l2.125-2.25l2.25-2.75l1.5-2.625l1.75-3l1.875-3.125l0.625-2.875l-0.125-4.375l-0.125-2.625L573,401.75
		l-0.375-3.5l-0.75-3.875l0.75-1.5l1.125-1.625l2.75-1.125l2.5-0.625h6h5h5c1.965,0.061,2.211-0.242,2.594-2.108
		c0.246-1.2,0.614-2.66,0.531-3.893c-0.008-0.118-0.25-3.624-0.25-3.624l-1.5-5.25l-1.25-3.25l-0.75-3.875l-0.625-2.75l-0.375-2.625
		l0.5-3.5l0.5-3.25l0.875-3.75L596,349l1.126-2.375l2.375-2.25l1.625-2.25l1.375-1.125v-2.125l-1.188-1.625l-0.938-2.375l-1-2.375
		l-0.5-2.5l0.125-3l1.5-2.875l2.125-1.625l2.375-1.125l5,0.125h4l4,1h2h0.25l0.25,7.5v5.166l3.084,4l2.917,3.5l2.5,5l1.5,5.5
		l2,5.167l1.347,4.167l2.653,2.666l2,1.667l3.333,1.5l3,0.5l3.334-0.5l2.166-1.5l3-1.667l2.167-0.5l2.5,1.5l2.5,2l2.626-0.166
		l1.041-0.834l0.666-2.5l0.334-3.5l2.166-2.666l1.666-2h3.834l3.5,0.75l2.063,2.25l1.938,3l1.667,2.833l2.833,1.667l3.334,1.666
		l2,1.667l2,3l1.332,4.167l-1.5,1h-3.666l-4.5,0.5l-4,0.5l-4.666,2.333l-4.667,1.833l-3.167,2.5l-2.396,1.667L663.5,391v2.666
		l1.5,4.5l1.5,3.834v2.833l-0.813,2.667l-2.478,2.334"/>
</g>
</svg>
