<?xml version="1.0" encoding="utf-8"?>
<!-- Generator: Adobe Illustrator 16.0.0, SVG Export Plug-In . SVG Version: 6.00 Build 0)  -->
<!DOCTYPE svg PUBLIC "-//W3C//DTD SVG 1.1 Tiny//EN" "http://www.w3.org/Graphics/SVG/1.1/DTD/svg11-tiny.dtd">
<svg version="1.1" baseProfile="tiny" id="图层_1"
	 xmlns="http://www.w3.org/2000/svg" xmlns:xlink="http://www.w3.org/1999/xlink" x="0px" y="0px" width="860px" height="650px"
	 viewBox="0 0 860 650" xml:space="preserve">
<g>
	<path fill="#D81616" stroke="#FFFFFF" stroke-miterlimit="10" d="M529.75,441.374c-0.156,1.83-0.843,2.237-2.249,3.292L524,444.499
		h-3.332l-3.167-0.583c-2.6-1.159-4.952-1.765-7.837-1.584c-0.11,0.007-2.664,0.167-2.664,0.167c-1.943,0-3.901,0.304-5.832,0.25
		c-0.017,0-3-0.083-3-0.083l-3.167-0.5c-2.667-1.543-2.125-7.287-5.834-6.667c-0.929,0.156-1.51,0.512-2.369,0.14
		c-1.58-0.685-0.627-1.464-1.305-2.65c-1.283-2.248-4.783-1.864-6.991-2.051c-0.002,0-2.252-0.604-2.252-0.604L475.168,429
		c-0.474-1.639-1.41-3.185-2.705-4.006L472.5,425v3v3v3l0.835,1.667l2,1.666l0.997,1.5l1.168,2.542V445v5v4l0.668,1.833l1.167,3
		l1.333,3.334l0.833,3.833l0.667,3.167l0.498,2.251v-0.084l2.167,2l4.667,2.667l7.5,0.5l5.5-0.834l4.333-2.166l5.167-2.167
		l7.333,0.167l5.667,1.333l4.125,1.791l4.25,1.625l6.563,1.25h6.938l6-2.375l3.792-2.791l3.5-1.667l4.458-2.042l2.363-3.18l0,0
		l-1.987-1.945c0,0-2.167-1.667-2.667-1.833s-2.5-2.167-2.5-2.167l-2.166-2.5l-1.168-3v-4v-1.791l-2.958-3.542l-3.417-3.292h-0.25
		l-1.75-0.625l-1.875-2.25l-1.25-3l-1.75-1.875l-1.5-1.25L539.875,432l-2.75,1.25l-2.619,2.5L533,437.875L531.875,440L530,441.375"
		/>
</g>
</svg>
