<?xml version="1.0" encoding="utf-8"?>
<!-- Generator: Adobe Illustrator 16.0.0, SVG Export Plug-In . SVG Version: 6.00 Build 0)  -->
<!DOCTYPE svg PUBLIC "-//W3C//DTD SVG 1.1 Tiny//EN" "http://www.w3.org/Graphics/SVG/1.1/DTD/svg11-tiny.dtd">
<svg version="1.1" baseProfile="tiny" id="图层_1"
	 xmlns="http://www.w3.org/2000/svg" xmlns:xlink="http://www.w3.org/1999/xlink" x="0px" y="0px" width="860px" height="650px"
	 viewBox="0 0 860 650" xml:space="preserve">
<g>
	<path fill="#325E4E" stroke="#FFFFFF" stroke-miterlimit="10" d="M566.988,465.445l3.345,1.056l6.334,1.166l5.166,0.5l4.167,2
		l2.667,3.667l-0.667,5.5l-4,3.333l-3.167,2l-6.5,3.5l-4.5,3.334l-2.666,3.5l-2.834,3.166l-9.666,3.834L550,502.167l-3.333,1.5
		l-4.167,3.667l-3.333,4.833l-2,2.333l-2.661,4.005c1.391-0.017,1.785,2.529,1.828,3.661c0.001,0.031,0.166,4.709,0.166,4.709v3.75
		l2.001,3.875l3.333,1.167l5.5,1.166l3.333,1.167l0.458,2.875L549.834,544l-1,3.833l0.833,4.5l3.334,2.667l4.333,2l0.834,3.667
		l-0.167,3.5l-3.833,4.5c0,0-3.334,3.5-3.334,4.166S547.501,577,547.501,577l-2,4.333l3.333,4l3.667,3.834l0.333,1.833l0.667,4.833
		l0.833,5.167l1.5,3.167l3.167,1.5l2.5-0.167l3.5-0.833l1.833,0.666l2.5,1.5c0,0,3.834,3.167,4.334,3.5s2.333,0.667,2.333,0.667
		l3.333-1.333l3.167-2.5l2-3.834l2.667-3.333l2.833-3.666l3.833-4l1.834-2.333l5.166-1.5l4.834-0.833l3.833-1.5l1.5-2.834l1.5-3.666
		l1.833-4l2-2l2.666-1.167h4.333l5.334-0.037c3.779,0.145,7.557,0.079,11.338,0.037c2.933-0.033,3.785-0.535,6.354-2.007
		c1.502-0.86,3.07-1.686,4.309-2.918c0.019-0.019,3.167-3.075,3.167-3.075c1.944-0.096,3.967-0.35,5.665,0.832
		c0.04,0.028,2.839,2.002,3.335,2.168c0.5,0.167,3.667,0,3.667,0l2.167-1.5c1.014-0.748,2.248-2.103,3.414-2.504
		c1.232-0.425,2.852-0.118,4.175-0.561c1.445-0.482,2.804-1.326,3.937-2.337c0.983-0.878,1.878-2.156,0.905-3.487
		c-1.598-2.191-6.914-0.161-6.591-4.054c0.137-1.637,1.568-3.771,3.494-3.059c0.851,0.314,1.824,0.856,2.716,0.984
		c1.595,0.229,1.429-0.227,2.616-1.651l0.667-2.667c0.379-1.651,0.337-2.999,1.831-3.736c1.249-0.615,3.102-0.699,4.476-1.013
		l-1.974-3.084L686,537.5h-4.333l-2.833-1.834l-2.167-2.833l-1.833-6L673.667,522l-1.666-3.495l-2-2.005l-3.667-1.334l-3.667-1.333
		l-2.166-3L659.834,508l-1.334-5v-4v-2.667l-0.833-3.833l-1.5-1.25L654,491.5h-2.333l-3,0.5L645,492.5h-3.166l-3.834-2h-1.332
		l-2.82-1l-3.18-1.834l-4.5-1.666l-2.5-1.167l-3-0.167l-2,0.834l-3.167,1.833l-2.5,1.667L610,490.5h-2.999l-1.5-0.667l-1.333-3.167
		l-1.167-5.08L601.668,478l-2-3.334l-2.667-2l-2.167-1.166l-2.5-2.167l-1.666-2.666l-2.001-2.834l-2.999-3.375L583.001,459
		l-4.333-1.5l-2.668-1h-2.326l-1.672,0.722l-1.837,0.891l-1.67,2.777L566.988,465.445"/>
</g>
</svg>
