<?xml version="1.0" encoding="utf-8"?>
<!-- Generator: Adobe Illustrator 16.0.0, SVG Export Plug-In . SVG Version: 6.00 Build 0)  -->
<!DOCTYPE svg PUBLIC "-//W3C//DTD SVG 1.1 Tiny//EN" "http://www.w3.org/Graphics/SVG/1.1/DTD/svg11-tiny.dtd">
<svg version="1.1" baseProfile="tiny" id="图层_2"
	 xmlns="http://www.w3.org/2000/svg" xmlns:xlink="http://www.w3.org/1999/xlink" x="0px" y="0px" width="860px" height="650px"
	 viewBox="0 0 860 650" xml:space="preserve">
<g>
	<path fill="#00844B" stroke="#FFFFFF" stroke-miterlimit="10" d="M270.249,304.417c0,0-0.333-3.583-0.333-4.25s-1.917-3.333-2.25-4
		s-2.333-3.667-2.333-3.667l-3.5-2.833l-1.5-2.667L258,283.5l-3-2.667l-1.667-2.667l1.667-1.333l3.166-1.833l4.667-1l4.167,0.167
		l3.833,0.5l3,1L274,274l-0.5-2.833l-1-4.167v-5v-3.333l1-2.167l2.5-0.833l2,0.833h4h2.334l0.667-2.583l-0.667-3.25l-2-1.667
		l-1.667-1.833L279.5,244l1.666-2.666l3.5-3l3.5-2.167l3.667-2l2.167-3l1.5-3.167v-5.667l0.917-4.833l1.917-3.167l2.333-3.833
		l2.333-2.833l4.333-2.667l3.665-1.653c0,0,4.663-0.175,5.163-0.008s4.328-1.826,4.328-1.826l2.821-2.323l2.311-3.64l1.785-2.952
		l2.574-4.066l1.311-3.637l1.291-2.77l1.293-4.25l1.125-3.542l3-0.083l3.25-1.125l2.625,1.208l3,3.042L348,181l1.5,3.125
		l3.625,2.375l4.75,1.125l5,2.125l3.875,0.75l3.25,0.75l1,1.25c0,0,0.814,1.455,0.872,1.557c0.813,1.453,2.78,1.441,4.128,1.443
		l2.625-1H381l1.375,1l1.75,2l1.125,1.875c0.648,0.527,1.384,1.579,2.254,1.444c0.614-0.096,1.599-1.182,2.12-1.568
		c2.302-1.705,4.537,0.033,6,1.75c1.744,2.046,3.586,5.06,6.152,6.149c1.429,0.606,3.341,0.352,4.854,0.35
		c1.441-0.002,2.688-0.663,4.067-0.954c1.748-0.37,3.523-0.045,5.289-0.045c1.959,0,2.648-0.112,3.887-1.75l2.25-2l2.875-2.375
		l1.75,0.25l3.25,1.625c0,0,2.37,0.374,2.376,0.375c1.717,0.268,4.594-1.804,6.124-2.5l2.75-0.125l2.125,1.875l2,1.5l1.875,0.75
		l3.5,0.375l3.25-0.875l3.75-0.875l4.5-2l4.375-1.375l3.625-0.875l3.125-1.25l3.125-0.75h2.5C479,196.5,479.5,200,479.5,200v4
		l-1.666,2.667l-1.667,4.166L475.416,214l-0.916,3.5v4.5l1.417,4.833l0.583,3V235l-0.666,3.5l-2.418,3.5l-0.916,3.167V250v4v5
		l-1.666,4l-2.167,2l-3.167,2.667l-3,2.166l-3,2L455.333,275l-2.833,3l-2,3.333l-1,2.5V286v4l0.949,4.746l-1.824,1.004l-0.75,1.625
		L447.5,301v4.333l-1,3.334L442,309.5l-4.5-1.333l-5.333-2.334l-4-0.333l-3.834,0.5L421,307l-5.333,0.833L411,308l-5.333,0.333
		l-5.5,0.167l-3,1.167l-4.667,3.166l-2.833,4L386.333,319L382,319.333l-4.833-1l-3.834-0.166l-3,1.5L369.5,323v5v6v3l-1.312,3.563
		l-1.48,3.896l-2.958,1.292l0.25-0.25h-2.834l-2.5-1.833l-3.333-1l-2.167-1.167l-1.333-3.037L351,335l-1.166-2.833l-3.5-0.334
		l-3.167,0.334L338.334,334L334,335.833c0,0-2.166,2.334-2.666,2.334s-3.167,0.666-3.667,0s-3.667,0-3.667,0l-3.167-1.667
		l-2.333-2.167L317,332.5h-4.167L309,331.666l-3-2.999L303.5,325l-3.666-2.833l-3.5-2l-3.5-0.333l-3.5,2.833L285.667,325L282,325.5
		h-1.833l-1.333-2.25l-0.667-3.083L277.5,317v-4.667l-1.333-3l-1.167-1.5L272.333,307l-1.833-2.833l0,0"/>
</g>
</svg>
