<?xml version="1.0" encoding="utf-8"?>
<!-- Generator: Adobe Illustrator 16.0.0, SVG Export Plug-In . SVG Version: 6.00 Build 0)  -->
<!DOCTYPE svg PUBLIC "-//W3C//DTD SVG 1.1 Tiny//EN" "http://www.w3.org/Graphics/SVG/1.1/DTD/svg11-tiny.dtd">
<svg version="1.1" baseProfile="tiny" id="图层_1"
	 xmlns="http://www.w3.org/2000/svg" xmlns:xlink="http://www.w3.org/1999/xlink" x="0px" y="0px" width="860px" height="650px"
	 viewBox="0 0 860 650" xml:space="preserve">
<g>
	<path fill="#D86150" stroke="#FFFFFF" stroke-miterlimit="10" d="M508.5,328v-5l1.5-4.833l0.833-2.333l2-2.333l4.167-0.833
		l4.333,0.167l4.667,2l3.833,2.5L534,318.5c0.769-0.566,1.463-1.405,2.347-1.789c1.207-0.523,1.359,0.044,2.278,0.914
		c1.145,1.042,2.625,2.535,3.963,0.679c0.673-0.933,0.463-2.428,1.221-3.433c0.573-0.76,1.489-1.391,2.191-2.037l2-1.333
		c0,0,1.999,0,2,0c1.569,0,3.565,1.586,5.245,1.836c1.965,0.293,3.791-0.252,5.588-1.003l2.834-1
		c2.208,0.441,3.457,1.014,5.354,2.223c1.49,0.95,2.607,0.817,4.313,0.611c1.271-0.693,2.497-1.484,3.83-2.056
		c1.206-0.518,2.642-0.671,3.718-1.449c2.895-2.092,3.099-5.581,3.619-8.829V296v-22.875V264c-0.001,0,5.218-3.906,5.218-3.906
		l3.642-1.234l4.444,1.383l3.724,2.066c0,0,2.11,2.346,2.485,2.721s3.118,1.86,3.493,1.86s2.872,1.743,3.497,1.868
		s2.623,0.496,3.748,0.496s3.873,0.123,3.873,0.123l4.5-0.126L626.5,268c0,0,3.25-0.5,3.625-0.5s2.625,1.5,2.625,1.5l0.875,3.25
		c0,0,0.5,4,0,4.375s-0.625,3.5-0.875,3.875s-1.25,3.5-1.25,3.5v4l-2.375,3.75L628,294.875l-1.25,2.875l0.125,2.5l-0.125,3.625
		l-0.125,2.75l-1,2.5l-1.75,2.25l-1.25,2.875l-0.875,2.5l-0.625,4.375l-0.875,1.375H618l-4-1h-4l-5-0.125l-2.375,1.125l-2.125,1.625
		L599,327l-0.125,3l0.5,2.5l1,2.375l0.938,2.375l1.188,1.625V341l-1.375,1.125l-1.625,2.25l-2.375,2.25L596,349l-0.75,2.625
		l-0.875,3.75l-0.5,3.25l-0.5,3.5l0.375,2.625l0.625,2.75l0.75,3.875l1.25,3.25l1.5,5.25l0.25,3.625l-0.75,3.875l-0.5,2.125H595h-5
		h-5h-6l-2.5,0.625l-2.75,1.125l-1.125,1.625l-0.75,1.5l0.75,3.875l0.375,3.5l0.125,2.875l0.125,2.625l0.125,4.375l-0.625,2.875
		l-1.875,3.125l-1.75,3l-1.5,2.625l-2.25,2.75l-2.125,2.25l-3.25,2.375l-3.125,2.25l-1.25,1.5l-2.75,2.625L551,439.5l-1.125,1.875
		l-1.75-0.625l-1.875-2.25l-1.25-3l-1.75-1.875l-1.5-1.25L539.875,432l-2.75,1.25l-2.619,2.5L533,437.875L531.875,440L530,441.375
		l-1.875-1.875l-1.75-1.75l-1.25-2.75l-0.625-2.625V429v-3v-5v-5v-3l-0.75-5.25l-1-5.625l-0.75-3l-1.375-4.875l-2.25-4.5L516.75,387
		l-1.25-2.75l-1.25-2.25l-0.75-3v-3v-3l1.5-2.75l3-3.916l3.5-2.666l3.334-3.167l2.333-2.667l1.667-3.166l1.166-3.667l-0.833-4.167
		l-1.334-4l-3-3.167l-3.166-2.333l-3.667-2.5l-5.667-3.667l-3.833-3.334"/>
</g>
</svg>
