<?xml version="1.0" encoding="utf-8"?>
<!-- Generator: Adobe Illustrator 16.0.0, SVG Export Plug-In . SVG Version: 6.00 Build 0)  -->
<!DOCTYPE svg PUBLIC "-//W3C//DTD SVG 1.1 Tiny//EN" "http://www.w3.org/Graphics/SVG/1.1/DTD/svg11-tiny.dtd">
<svg version="1.1" baseProfile="tiny" id="图层_1"
	 xmlns="http://www.w3.org/2000/svg" xmlns:xlink="http://www.w3.org/1999/xlink" x="0px" y="0px" width="860px" height="650px"
	 viewBox="0 0 860 650" xml:space="preserve">
<g>
	<path fill="#0F4AA8" stroke="#FFFFFF" stroke-miterlimit="10" d="M270.5,304.5l-1.833,5.333l-2.5,2.667l-3,2.333l-2.5,1l-3-1
		l-3.334-1.666L251.5,312l-2.333,1.667l-3,2.5L244,318.5l-3.667,0.167L236,318.833L232.667,319l-4.834,0.333l-2.333,1.5l-1.5,2.5
		L223.5,326l-2,3.667l-2.333,0.5l-1.915-0.303l-0.752,3.303V337l0.833,3.5l2,2.334l2,3.833l2,3.333l1.834,4.834l0.333,4.333
		l-0.5,3.167l-1.667,3l-1,3.333l-0.166,4l0.333,4.5V381l-2.167,3.5l-3,4l-3.833,5.666l-3.167,4l-1.666,3.417l0.666,3.917H211h5
		l3.917,2.166l0.583,2.834v3.5v10v7l-0.833,3.333l-2.334,2l-3.5,2l-3,3.333l-1,3.334l-0.5,4l1,5.666l0.334,5.5l0.166,3.667
		L210.5,467.5l-3.167,3l-2.916,2.5l-1.917,3.166V480l0.833,3.333l2.167,3l1.5,3.833l-0.833,4.167l-1.667,4l-1.167,4.167l0.334,3.5
		l1.666,1.75l3.167,0.75h4.5l5.167-0.834l1.833-2.333l3.083-1.167l2.417-0.333l0.668-2l1-3.5L233,497.5h8.501l4.833,0.25l3-1.75
		l1-4.333l3.167-3l4.5-1.167l4.833,1l5.334,4.667l5.166,3.499l2.167,1.834l6.333-0.167l8-0.333l7.834,1.5l1.954,0.756l2.711-1.422
		l2.834-2.333l3.666-3l3.834-3l3.166-1.834l3.167-2l4-0.666l5-0.501h4.333l2.167-1.833l0.666-3.333L335.5,477v-4.166l-0.25-3.5
		l0.583-2.666l1-2.167l2.833-3.5l2.667-3.333l3.333-2.167l2.5-2.333l3.834-1.334l3.5,0.667l1.833,2.667l2.667,3.5l2.666,3.833
		l2.667,1l2-1.667l3.333-0.666L374,461.5h3.333l3.334-0.25l0.833-1.583l-1.333-2.666l-2-2.5L376,452.167l-2.5-1.333l-1-2.834v-2.833
		l-1-2.166l-1.833-2.667L368,437.43l0.833-2.596l1.834-2.833l2.833-3.167l2-2.833l2.167-2.5l1.666-2.167l1.667-2.333l1.5-2.5
		l0.667-6.333l-0.167-5l0.333-5.834l-0.333-5.5c0,0-0.667-5.666-0.667-6.166s-1-4-1-4l-2.334-5.667l-3.334-3.667l-2.835-3.833
		l-2.337-3.334l-1.508-4.666l-0.849-4l-1.698-5.5l-1.396-4l-1.292-3.501H364h-2.834l-2.5-1.833l-3.333-1l-2.167-1.167l-1.333-3.037
		L351,335l-1.166-2.833l-3.5-0.334l-3.167,0.334L338.334,334L334,335.833c0,0-2.166,2.334-2.666,2.334s-3.167,0.666-3.667,0
		s-3.667,0-3.667,0l-3.167-1.667l-2.333-2.167L317,332.5h-4.167L309,331.666l-3-2.999L303.5,325l-3.666-2.833l-3.5-2l-3.5-0.333
		l-3.5,2.833L285.667,325L282,325.5h-1.833l-1.333-2.25l-0.667-3.083L277.5,317v-4.667l-1.333-3l-1.167-1.5L272.333,307
		l-1.833-2.833l0,0"/>
</g>
</svg>
