<?xml version="1.0" encoding="utf-8"?>
<!-- Generator: Adobe Illustrator 16.0.0, SVG Export Plug-In . SVG Version: 6.00 Build 0)  -->
<!DOCTYPE svg PUBLIC "-//W3C//DTD SVG 1.1//EN" "http://www.w3.org/Graphics/SVG/1.1/DTD/svg11.dtd">
<svg version="1.1" id="图层_1" xmlns="http://www.w3.org/2000/svg" xmlns:xlink="http://www.w3.org/1999/xlink" x="0px" y="0px"
	 width="550px" height="640px" viewBox="0 0 550 640" enable-background="new 0 0 550 640" xml:space="preserve">
<g>
	<polygon fill="#3A8F39" stroke="#FFFFFF" stroke-miterlimit="10" points="164,351.5 160,348.25 157.75,347.5 137.5,348.25 
		134.25,347 134.25,341 130.667,340.667 126.5,340.5 121.333,336.833 118.5,334 115.5,331.333 114.333,324.667 113.333,320 
		111.333,316.5 109.167,312.167 105.833,310 103.833,309 102,308.833 103,313.166 101.833,315.5 98.833,317.5 96.167,320 94.5,323 
		94.5,326 95,333.833 96.333,338.666 97.333,344 99,348.333 99.167,351.833 98.667,355.833 95.833,359.666 92.333,359.666 
		87.167,359.666 83.833,359.666 80.833,361 78.167,366 77.5,382.833 76.333,382.333 74.833,380.166 73.833,378.5 70.833,378.333 
		68.333,379.833 67.5,382.5 65.333,388.166 60.333,392.833 56.333,397.333 52.167,403.333 46.167,413.333 35.667,424.5 29.5,426 
		25,427.833 18.833,432 15.333,435.166 13.667,437.666 13.667,442.5 14.833,446.333 16.5,448.833 19.5,450.5 24.667,452.166 
		29.167,453.666 29.167,468 30.5,469.833 32.5,472 35.167,474.5 35.167,484.166 36.833,487.5 40.333,491.166 43.167,493.833 
		43.833,497.5 43.833,506.334 50.667,501.501 54.333,497.834 56.833,495.834 59.5,494.501 62.167,494.501 64.667,495.501 
		67.167,497.668 71,498.668 74,498.001 76.167,496.501 77.833,493.668 79.5,489.834 81.167,485.168 82.833,483.501 86.167,481.668 
		88.5,478.167 89.333,466.334 90.5,463.834 92.333,460.167 93.5,458.001 127,457.834 129.5,459.001 132.5,459.501 135,457.334 
		139.167,456.501 142.167,456.667 147.667,456.667 151.5,456.667 154.5,455.667 155.333,453.834 157.167,451.167 158.667,450.334 
		160.5,451.167 162.167,452.501 166.167,456.834 167.667,461.001 169.667,465.001 173.5,463.001 177,457.667 181.5,451.834 
		185,447.501 186.833,441.667 188.417,437.834 191.333,434.501 194.667,429.167 196.167,424.334 198.5,420.834 200.5,417.834 
		205.333,412.167 210.5,407.501 212,403.667 211.917,399.417 210.083,397.75 209,394.583 209.333,392.25 210.75,390 212.583,388.25 
		212.833,385.75 212.25,383.583 210.833,381.917 209.833,380.417 206.167,379.583 202.833,377.667 199.167,376.667 195.5,375.5 
		191.5,372.333 188.5,370.5 182.667,368.833 178.333,367.667 172.667,362.333 170.667,358.333 166.333,354.833 	"/>
</g>
</svg>
