<?xml version="1.0" encoding="utf-8"?>
<!-- Generator: Adobe Illustrator 16.0.0, SVG Export Plug-In . SVG Version: 6.00 Build 0)  -->
<!DOCTYPE svg PUBLIC "-//W3C//DTD SVG 1.1//EN" "http://www.w3.org/Graphics/SVG/1.1/DTD/svg11.dtd">
<svg version="1.1" id="图层_1" xmlns="http://www.w3.org/2000/svg" xmlns:xlink="http://www.w3.org/1999/xlink" x="0px" y="0px"
	 width="550px" height="640px" viewBox="0 0 550 640" enable-background="new 0 0 550 640" xml:space="preserve">
<g>
	<polygon fill="#75499A" stroke="#FFFFFF" stroke-miterlimit="10" points="189.5,271.5 186.667,269.333 183.667,267.167 
		178.333,265.167 149.333,263.667 146.667,263 141.5,260.167 134.667,259 130.167,259.333 126.333,260 123.167,262.5 121,265.333 
		106,265.667 102.167,267.333 93.5,273.667 89.667,277.5 87.5,282 85.5,286.667 86,292 88,296.5 90.667,300 96,303.5 
		99.833,305.833 102,308.833 103.833,309 105.833,310 109.167,312.167 111.333,316.5 113.333,320 114.333,324.667 115.5,331.333 
		118.5,334 121.333,336.833 126.5,340.5 130.667,340.667 134.25,341 134.25,347 137.5,348.25 157.75,347.5 160,348.25 164,351.5 
		168.25,351.5 174.833,350 174.833,342.5 175.667,339 177.333,334.542 179.833,333 182.833,331.834 190.5,331.167 200.5,331.167 
		208,331.167 216.625,329.75 219.833,328.75 223.375,327.125 227.25,325.648 231.167,324.167 234.917,321.5 238.333,320 
		240.667,319.167 244.5,318 246.833,316.333 248.333,314.5 249.833,309.375 250.167,307.167 245.667,307.167 241.667,307.167 
		237.333,306.167 234.167,305.833 230.667,305.833 227.333,307.167 223.667,309.5 220.667,312.333 217,313.167 214.333,312.5 
		211.5,311.167 208.333,309.333 204.833,308.5 201.167,307.167 198.167,305.5 195.5,302.667 195.167,299.167 196.5,296.333 198,293 
		198.5,288.667 198.167,284.667 197,280.667 193.333,276.167 	"/>
</g>
</svg>
