<?xml version="1.0" encoding="utf-8"?>
<!-- Generator: Adobe Illustrator 16.0.0, SVG Export Plug-In . SVG Version: 6.00 Build 0)  -->
<!DOCTYPE svg PUBLIC "-//W3C//DTD SVG 1.1//EN" "http://www.w3.org/Graphics/SVG/1.1/DTD/svg11.dtd">
<svg version="1.1" id="图层_1" xmlns="http://www.w3.org/2000/svg" xmlns:xlink="http://www.w3.org/1999/xlink" x="0px" y="0px"
	 width="550px" height="640px" viewBox="0 0 550 640" enable-background="new 0 0 550 640" xml:space="preserve">
<g>
	<polyline fill="#70BA2B" stroke="#FFFFFF" stroke-miterlimit="10" points="43.833,506.563 43.833,510.667 44.833,514 47.5,517.333 
		50.333,519.333 57,522.5 60,524.833 60,540.167 62.5,541.667 65.5,541.667 67.667,538.833 70,536 73,535.833 77.167,538.5 
		78.833,534.167 82.5,525.333 85.667,518 87.333,513.833 89.833,507.5 92.833,501.833 97.667,496.833 101.667,493.833 
		107.833,491.333 112.333,490 118.5,491.333 122.333,494.333 126,498.5 128.333,502.333 132.833,509.333 135.667,515.5 
		140.5,523.083 142.333,525.583 146.25,522.25 152.75,515.834 157,511 158.75,506.334 160.25,498.5 160.25,479 161.5,475.5 
		164.25,470 165.75,468 169.667,465.001 167.667,461.001 166.167,456.834 162.167,452.501 160.5,451.167 158.667,450.334 
		157.167,451.167 155.333,453.834 154.5,455.667 151.5,456.667 147.667,456.667 142.167,456.667 139.167,456.501 135,457.334 
		132.5,459.501 129.5,459.001 127,457.834 93.5,458.001 92.333,460.167 90.5,463.834 89.333,466.334 88.5,478.167 86.167,481.668 
		82.833,483.501 81.167,485.168 79.5,489.834 77.833,493.668 76.167,496.501 74,498.001 71,498.668 67.167,497.668 64.667,495.501 
		62.167,494.501 59.5,494.501 56.833,495.834 54.333,497.834 50.667,501.501 47,504.167 	"/>
</g>
</svg>
