<?xml version="1.0" encoding="utf-8"?>
<!-- Generator: Adobe Illustrator 16.0.0, SVG Export Plug-In . SVG Version: 6.00 Build 0)  -->
<!DOCTYPE svg PUBLIC "-//W3C//DTD SVG 1.1//EN" "http://www.w3.org/Graphics/SVG/1.1/DTD/svg11.dtd">
<svg version="1.1" id="图层_1" xmlns="http://www.w3.org/2000/svg" xmlns:xlink="http://www.w3.org/1999/xlink" x="0px" y="0px"
	 width="550px" height="640px" viewBox="0 0 550 640" enable-background="new 0 0 550 640" xml:space="preserve">
<g>
	<polygon fill="#675324" stroke="#FFFFFF" stroke-miterlimit="10" points="164,351.5 166.333,354.833 170.667,358.333 
		172.667,362.333 178.333,367.667 182.667,368.833 188.5,370.5 191.5,372.333 195.5,375.5 199.167,376.667 202.833,377.667 
		206.167,379.583 209.833,380.417 210.833,381.917 212.25,383.583 212.833,385.75 212.583,388.25 210.75,390 209.333,392.25 
		209,394.583 210.083,397.75 211.917,399.417 214.833,398.167 217.5,395.501 219.583,393.834 223,390.167 224.917,387.751 
		226.417,385.584 228.417,382.917 230.75,379.751 232.417,376.917 234.083,373.084 234.5,370.584 235,367.25 236,363.167 234,364 
		232.333,364 231.167,364 219.583,364 216.833,362 212.667,359.167 209.333,357 206.833,355.5 204.833,354.667 197.167,354 
		195,352.334 191.417,350 189.5,347.584 186.833,346.667 182.667,346.834 178,349 174.833,350 170.292,350.75 	"/>
</g>
</svg>
