<?xml version="1.0" encoding="utf-8"?>
<!-- Generator: Adobe Illustrator 16.0.0, SVG Export Plug-In . SVG Version: 6.00 Build 0)  -->
<!DOCTYPE svg PUBLIC "-//W3C//DTD SVG 1.1//EN" "http://www.w3.org/Graphics/SVG/1.1/DTD/svg11.dtd">
<svg version="1.1" id="图层_1" xmlns="http://www.w3.org/2000/svg" xmlns:xlink="http://www.w3.org/1999/xlink" x="0px" y="0px"
	 width="550px" height="640px" viewBox="0 0 550 640" enable-background="new 0 0 550 640" xml:space="preserve">
<g>
	<polyline fill="#633F95" stroke="#FFFFFF" stroke-miterlimit="10" points="357.333,373.751 356.625,376 354.875,379.875 
		352.25,383.625 348.75,386.875 346,384.25 342.25,382 337.041,380.313 331.25,381.75 328.75,385.5 327,389.643 325.5,395.75 
		323.25,399.417 321.25,403.25 316,406.25 311.25,406.25 306.75,404.25 303.666,399.417 300.25,397.25 295.75,395.75 289.5,395.75 
		287,399.417 285.25,403.75 283.25,404.75 280.333,403.5 275.499,400.5 273,399.417 271.25,399.417 270,402.25 269,406.25 
		267.167,410.25 265.25,415.5 263.75,420.5 260.25,421.75 257,421.75 251.5,419.5 247.5,417.25 242,415.25 238.833,415.75 
		236.667,416.75 234.167,421.75 233.375,424.75 231.167,427 228.25,427 223.75,427 219.583,425.5 217.75,430 217.75,437.25 
		217.75,440.25 215.75,443.5 212.833,443.5 212,440.25 209.25,438.75 206.25,439 203.583,440.75 201.917,442.25 198.25,439.75 
		194,437 191.333,434.501 194.667,429.167 196.167,424.334 198.5,420.834 200.5,417.834 205.333,412.167 210.5,407.501 212,403.667 
		211.917,399.417 214.833,398.167 217.5,395.501 219.583,393.834 223,390.167 224.917,387.751 226.417,385.584 228.417,382.917 
		230.664,379.868 230.75,379.751 232.333,381.75 233.375,385.5 234.167,389.584 235,393.75 236.667,395.75 243.25,395.75 
		245.875,395 249,392.375 251.25,388.25 253.375,385.75 255,383.75 258,382.625 260.875,381.75 263.75,381.625 267.375,382.5 
		271.125,383.75 275,383.75 275.499,382.875 273.375,381.125 272.25,379.25 271.875,376.875 272.375,374.375 273.375,372.375 
		275,370.25 276.875,368.5 278,366.75 276.625,365.375 273.5,365.25 270.25,365.875 267.375,367.875 265.75,370.5 264.75,373.751 
		262.125,375.459 258.563,376.125 254.625,373.751 253.375,371.459 253.375,367.875 253.375,364.75 254,360.125 255,356.375 
		256,352.5 257.25,350.75 259.5,348.75 261.875,346.667 263.75,344.25 268.75,345.75 275.499,347 284,347 290.5,346 296.5,344.75 
		303,345.75 308.5,349 311.75,352.25 315,356.25 318.75,359.25 321.5,360.75 325.75,359.25 330.25,359.25 339.5,359.25 
		344.834,359.25 349.75,359.25 349.75,359.667 354.25,364.25 357,370 357.333,373 	"/>
</g>
</svg>
