<?xml version="1.0" encoding="utf-8"?>
<!-- Generator: Adobe Illustrator 16.0.0, SVG Export Plug-In . SVG Version: 6.00 Build 0)  -->
<!DOCTYPE svg PUBLIC "-//W3C//DTD SVG 1.1//EN" "http://www.w3.org/Graphics/SVG/1.1/DTD/svg11.dtd">
<svg version="1.1" id="图层_1" xmlns="http://www.w3.org/2000/svg" xmlns:xlink="http://www.w3.org/1999/xlink" x="0px" y="0px"
	 width="550px" height="640px" viewBox="0 0 550 640" enable-background="new 0 0 550 640" xml:space="preserve">
<g>
	<polygon fill="#3D60AC" stroke="#FFFFFF" stroke-miterlimit="10" points="189.5,271.5 192.333,269.833 192,245.5 190.667,244.167 
		188.5,241.167 188.833,237.667 190.833,235.167 190.5,225.833 187.833,220.833 186.5,215.833 184.667,209.5 183.833,202.333 
		183.167,194.667 182.667,188.667 184,184.333 186.167,179.667 187.333,176.167 187.5,165 185,160 184.167,154.167 184.833,147.5 
		186.5,142.333 190.167,139.5 194.167,135.833 195.167,108.5 198.833,105.167 205.5,101.833 210,96.5 212.667,92.833 
		213.333,88.667 213.833,80.667 204.167,74.333 198.5,69.833 193.333,61.666 191.333,56 191.333,49.667 196.833,43.333 
		196.833,32.667 203.333,27.5 207,23.167 209.333,18.167 212.167,14.833 216.5,11.5 221.333,8.667 232.333,8.667 237.667,11.167 
		242.167,14.167 244.833,18 247.167,19.5 253.333,20.833 260.167,21 264.833,23.333 272.5,23.333 279.167,22.167 286,21.5 
		288.167,24.5 288.167,29.667 286.167,35 283.5,40.167 281,44.667 280.834,63.833 284.5,67.5 287.5,69.667 291.5,71 296.334,72.333 
		299.334,76.667 300.834,80.667 299.334,86.5 304.167,90 308.167,92.833 312.5,94.167 318,96.167 321.833,99.833 324.833,105.667 
		324.833,126.833 323.833,131.833 321,137.833 319,143 317.5,147.5 317.833,154.5 326.334,160.667 331.667,165.167 338.834,170.833 
		346.666,178.5 353.333,186.5 360.833,195.833 360.833,214.75 360,218.125 358.375,219.75 356.25,221.75 354.75,224.375 
		354.375,240.5 353.75,243 351.75,246.375 349.5,248.875 346.125,249.75 341.75,250.75 337.625,251.5 332.375,252.75 328,253.5 
		323.125,255.125 318.875,257.25 316.625,259.625 315.875,264.25 316.25,268.125 317.125,271.5 316.625,275.25 315,277.375 
		313.5,280.625 313.25,283.375 315.25,287.5 318.25,292.875 321.625,299.375 323.625,304.125 327,311.25 321.667,309.333 
		316,308.167 309.833,307.5 302.833,307.5 291,307.667 285,308.167 280.333,308.333 275,306.667 270.667,305.5 268.333,305.833 
		264.667,307.167 262,308.333 257.5,308.167 253.333,307.667 250.167,307.167 245.667,307.167 241.667,307.167 237.333,306.167 
		234.167,305.833 230.667,305.833 227.333,307.167 223.667,309.5 220.667,312.333 217,313.167 214.333,312.5 211.5,311.167 
		208.333,309.333 204.833,308.5 201.167,307.167 198.167,305.5 195.5,302.667 195.167,299.167 196.5,296.333 198,293 198.5,288.667 
		198.167,284.667 197,280.667 193.333,276.167 	"/>
</g>
</svg>
