<?xml version="1.0" encoding="utf-8"?>
<!-- Generator: Adobe Illustrator 16.0.0, SVG Export Plug-In . SVG Version: 6.00 Build 0)  -->
<!DOCTYPE svg PUBLIC "-//W3C//DTD SVG 1.1//EN" "http://www.w3.org/Graphics/SVG/1.1/DTD/svg11.dtd">
<svg version="1.1" id="图层_1" xmlns="http://www.w3.org/2000/svg" xmlns:xlink="http://www.w3.org/1999/xlink" x="0px" y="0px"
	 width="550px" height="640px" viewBox="0 0 550 640" enable-background="new 0 0 550 640" xml:space="preserve">
<g>
	<polyline fill="#4963AD" stroke="#FFFFFF" stroke-miterlimit="10" points="232.333,364 234,364 236,363.167 237.333,360.75 
		235.667,358.167 234,355.334 233,352 234.167,349 236.167,346.167 238,343.834 238.667,340.167 238.833,337.334 238.167,334.542 
		236,332.667 234.917,330.167 233,328.334 231.167,324.167 227.25,325.648 223.375,327.125 219.833,328.75 216.625,329.75 
		208,331.167 209.333,336 211.667,338.167 214.833,339.667 218.167,340.584 218.167,347.5 221.333,351.5 224.5,354 228.333,356 
		231.167,357.333 231.167,364 	"/>
</g>
</svg>
