<?xml version="1.0" encoding="utf-8"?>
<!-- Generator: Adobe Illustrator 16.0.0, SVG Export Plug-In . SVG Version: 6.00 Build 0)  -->
<!DOCTYPE svg PUBLIC "-//W3C//DTD SVG 1.1//EN" "http://www.w3.org/Graphics/SVG/1.1/DTD/svg11.dtd">
<svg version="1.1" id="图层_1" xmlns="http://www.w3.org/2000/svg" xmlns:xlink="http://www.w3.org/1999/xlink" x="0px" y="0px"
	 width="550px" height="640px" viewBox="0 0 550 640" enable-background="new 0 0 550 640" xml:space="preserve">
<g>
	<polyline fill="#78C7BE" stroke="#FFFFFF" stroke-miterlimit="10" points="191.333,434.501 188.417,437.834 186.833,441.667 
		185,447.501 181.5,451.834 177,457.667 173.5,463.001 169.667,465.001 165.75,468 164.25,470 161.5,475.5 160.25,479 160.25,498.5 
		158.75,506.334 157,511 152.75,515.834 146.25,522.25 142.333,525.583 143.667,528.167 145.833,529.834 148.833,531.001 
		151.5,529.501 154.167,527.667 167,527.501 175,533.834 175,540.168 177.167,543.834 180,547.668 184.167,551.668 188.5,554.834 
		188.5,562.501 189.667,566.334 193.5,571.834 196.667,575.334 201.167,578.834 204.833,582.501 205,597.834 207.5,602.001 
		209.833,606.334 211.5,610.501 213,615.167 217.333,620.834 233.5,620.834 236.833,619.001 240.667,616.834 244.833,614.501 
		250.167,613.501 254.833,611.001 260.667,608.334 265,607 278.5,606.75 294,616.5 301.25,616.875 307.875,622.875 315.75,623.5 
		325.75,627.25 329.625,629 333.125,629.875 335.5,629 336.875,626.375 336.875,609.5 338.125,607 340.25,602.25 340.5,594.125 
		340.5,589.25 338.25,583.375 335.875,579.75 333,577.25 330.75,574.25 329.375,571.5 328.125,568.125 328.375,536.125 
		330.375,531.125 332.5,527.875 336.375,523.5 338.5,519.125 338.5,515 338.875,511 339.75,507.875 341.375,504.25 344,500.125 
		346.375,496.375 349.375,491.625 352.125,488 354.375,484.5 356.375,481.75 357,479 356.875,467.375 358.375,464.625 
		359.375,462.625 359.875,459 360,452.5 357.375,450.625 355.5,449.375 354.875,446.375 354.25,439.375 353.625,434.75 
		352.625,430.375 351.875,426 351.875,421.625 352.375,417 352.75,403.25 352.75,399.75 352.25,397.5 350.5,394.75 348.875,391.25 
		348.75,386.875 348.173,386.324 346,384.25 342.25,382 337.041,380.313 331.25,381.75 328.75,385.5 327,389.643 325.5,395.75 
		323.25,399.417 321.25,403.25 316,406.25 311.25,406.25 306.75,404.25 303.666,399.417 300.25,397.25 295.75,395.75 289.5,395.75 
		287,399.417 285.25,403.75 283.25,404.75 280.333,403.5 275.499,400.5 273,399.417 271.25,399.417 270,402.25 269,406.25 
		267.167,410.25 265.25,415.5 263.75,420.5 260.25,421.75 257,421.75 251.5,419.5 247.5,417.25 242,415.25 238.833,415.75 
		236.667,416.75 234.167,421.75 233.375,424.75 231.167,427 228.25,427 223.75,427 219.583,425.5 217.75,430 217.75,437.25 
		217.75,440.25 215.75,443.5 212.833,443.5 212,440.25 209.25,438.75 206.25,439 203.583,440.75 201.917,442.25 198.25,439.75 
		194,437 191.333,434.501 	"/>
</g>
</svg>
