<?xml version="1.0" encoding="utf-8"?>
<!-- Generator: Adobe Illustrator 16.0.0, SVG Export Plug-In . SVG Version: 6.00 Build 0)  -->
<!DOCTYPE svg PUBLIC "-//W3C//DTD SVG 1.1//EN" "http://www.w3.org/Graphics/SVG/1.1/DTD/svg11.dtd">
<svg version="1.1" id="图层_1" xmlns="http://www.w3.org/2000/svg" xmlns:xlink="http://www.w3.org/1999/xlink" x="0px" y="0px"
	 width="550px" height="640px" viewBox="0 0 550 640" enable-background="new 0 0 550 640" xml:space="preserve">
<g>
	<polygon fill="#59C2DD" stroke="#FFFFFF" stroke-miterlimit="10" points="280.333,308.333 277.25,313.167 273.5,317.25 
		269.25,321.25 265.5,324.25 259.75,328.25 254,334 249.833,338.5 246.833,342 243.167,347 241,352.667 237.333,360.75 
		235.667,358.167 234,355.334 233,352 234.167,349 236.167,346.167 238,343.834 238.667,340.167 238.833,337.334 238.167,334.542 
		236,332.667 234.917,330.167 233,328.334 231.167,324.167 234.917,321.5 238.333,320 240.667,319.167 244.5,318 246.833,316.333 
		248.333,314.5 249.833,309.375 250.167,307.167 253.333,307.667 257.5,308.167 262,308.333 264.667,307.167 268.333,305.833 
		270.667,305.5 275,306.667 	"/>
</g>
</svg>
