<?xml version="1.0" encoding="utf-8"?>
<!-- Generator: Adobe Illustrator 16.0.0, SVG Export Plug-In . SVG Version: 6.00 Build 0)  -->
<!DOCTYPE svg PUBLIC "-//W3C//DTD SVG 1.1//EN" "http://www.w3.org/Graphics/SVG/1.1/DTD/svg11.dtd">
<svg version="1.1" id="图层_1" xmlns="http://www.w3.org/2000/svg" xmlns:xlink="http://www.w3.org/1999/xlink" x="0px" y="0px"
	 width="550px" height="640px" viewBox="0 0 550 640" enable-background="new 0 0 550 640" xml:space="preserve">
<g>
	<polygon fill="#3C489C" stroke="#FFFFFF" stroke-miterlimit="10" points="208,331.167 209.333,336 211.667,338.167 
		214.833,339.667 218.167,340.584 218.167,347.5 221.333,351.5 224.5,354 228.333,356 231.167,357.333 231.167,364 219.583,364 
		216.833,362 212.667,359.167 209.333,357 206.833,355.5 204.833,354.667 197.167,354 195,352.334 191.417,350 189.5,347.584 
		186.833,346.667 182.667,346.834 178,349 174.833,350 174.833,342.5 175.667,339 177.333,334.542 179.833,333 182.833,331.834 
		190.5,331.167 200.5,331.167 	"/>
</g>
</svg>
