<?xml version="1.0" encoding="utf-8"?>
<!-- Generator: Adobe Illustrator 16.0.0, SVG Export Plug-In . SVG Version: 6.00 Build 0)  -->
<!DOCTYPE svg PUBLIC "-//W3C//DTD SVG 1.1//EN" "http://www.w3.org/Graphics/SVG/1.1/DTD/svg11.dtd">
<svg version="1.1" id="图层_1" xmlns="http://www.w3.org/2000/svg" xmlns:xlink="http://www.w3.org/1999/xlink" x="0px" y="0px"
	 width="550px" height="640px" viewBox="0 0 550 640" enable-background="new 0 0 550 640" xml:space="preserve">
<g>
	<polyline fill="#EB5F23" stroke="#FFFFFF" stroke-miterlimit="10" points="327,311.25 321.667,309.333 316,308.167 309.833,307.5 
		302.833,307.5 291,307.667 285,308.167 280.333,308.333 277.25,313.167 273.5,317.25 269.25,321.25 265.5,324.25 259.75,328.25 
		254,334 257.25,338.5 260,341.25 263.75,344.25 268.75,345.75 275.499,347 284,347 290.5,346 296.5,344.75 303,345.75 308.5,349 
		311.75,352.25 315,356.25 318.75,359.25 321.5,360.75 325.75,359.25 330.25,359.25 339.5,359.25 344.834,359.25 349.75,359.25 
		346.5,355.25 344,350 341.75,344.5 339.75,337.5 338.75,332 337.041,327 333.75,320 330.5,314.75 327,311.25 	"/>
</g>
</svg>
