<?xml version="1.0" encoding="utf-8"?>
<!-- Generator: Adobe Illustrator 16.0.0, SVG Export Plug-In . SVG Version: 6.00 Build 0)  -->
<!DOCTYPE svg PUBLIC "-//W3C//DTD SVG 1.1//EN" "http://www.w3.org/Graphics/SVG/1.1/DTD/svg11.dtd">
<svg version="1.1" id="图层_1" xmlns="http://www.w3.org/2000/svg" xmlns:xlink="http://www.w3.org/1999/xlink" x="0px" y="0px"
	 width="550px" height="640px" viewBox="0 0 550 640" enable-background="new 0 0 550 640" xml:space="preserve">
<g>
	<polygon fill="#15A26C" stroke="#FFFFFF" stroke-miterlimit="10" points="236,363.167 235,367.25 234.5,370.584 234.083,373.084 
		232.417,376.917 230.75,379.751 232.333,381.75 233.375,385.5 234.167,389.584 235,393.75 236.667,395.75 243.25,395.75 
		245.875,395 249,392.375 251.25,388.25 253.375,385.75 255,383.75 258,382.625 260.875,381.75 263.75,381.625 267.375,382.5 
		271.125,383.75 275,383.75 275.499,382.875 273.375,381.125 272.25,379.25 271.875,376.875 272.375,374.375 273.375,372.375 
		275,370.25 276.875,368.5 278,366.75 276.625,365.375 273.5,365.25 270.25,365.875 267.375,367.875 265.75,370.5 264.75,373.751 
		262.125,375.459 258.563,376.125 254.625,373.751 253.375,371.459 253.375,367.875 253.375,364.75 254,360.125 255,356.375 
		256,352.5 257.25,350.75 259.5,348.75 261.875,346.667 263.75,344.25 260,341.25 257.25,338.5 254,334 249.833,338.5 246.833,342 
		243.167,347 241,352.667 237.333,360.75 	"/>
</g>
</svg>
