<?xml version="1.0" encoding="utf-8"?>
<!-- Generator: Adobe Illustrator 16.0.0, SVG Export Plug-In . SVG Version: 6.00 Build 0)  -->
<!DOCTYPE svg PUBLIC "-//W3C//DTD SVG 1.1//EN" "http://www.w3.org/Graphics/SVG/1.1/DTD/svg11.dtd">
<svg version="1.1" id="图层_1" xmlns="http://www.w3.org/2000/svg" xmlns:xlink="http://www.w3.org/1999/xlink" x="0px" y="0px"
	 width="550px" height="640px" viewBox="0 0 550 640" enable-background="new 0 0 550 640" xml:space="preserve">
<g>
	<polygon id="xinzhou" fill="none" stroke="#FFFFFF" stroke-miterlimit="10" points="360.833,195.833 371.333,195.833 
		375.666,192.167 380.666,190 384,189.167 386.333,190.333 389.166,192.5 389.166,180.167 392.666,176 396,173.333 404.166,173.167 
		406,171 407.833,169.833 419.666,169.667 424,167.5 426.5,165.667 430.833,165.333 433.333,166.833 434.833,169.667 
		434.833,181.167 436.333,183.667 438.666,185 441.833,186.5 453,186.5 456.833,183.667 457.666,181.167 457.666,178.833 
		455.5,177.667 452.166,176.5 450.333,174.333 450.5,171.167 452,168.333 455.666,165.667 458.666,163 463,160.833 467,159.667 
		477.5,159.5 482.5,163.167 485.333,165.333 487.833,166.833 490.166,167.667 492.666,166.667 493.5,164.5 493.5,156.833 
		495,154.667 497.5,154.5 499.666,156.667 499.666,182.167 502,185.833 507.666,192 512.5,195.833 518.166,199.667 522.666,202.5 
		527.5,205 533.166,209.5 535.333,214.667 536.166,217.333 534.5,220.333 530.833,224.333 526.5,229.167 522.5,232.167 
		518.833,234.167 514.833,232.667 510.666,229 508.166,229 506.166,232.833 506,237.167 505.166,244 503.333,248.167 
		500.333,251.667 496,253.667 489.666,253.667 491,259.167 491.5,262.5 489.333,264.333 485,264.333 483.166,262.5 480.333,260 
		477.833,260.833 474.833,262.333 471.666,261.333 468.166,260.5 464.833,259.5 460.833,260.167 460.166,263.167 459.5,270.667 
		457.666,273.167 454,276.667 449.166,280.167 443.833,282.667 439.166,285.667 432.5,288.5 428.666,290.167 428.833,293.833 
		431,297.5 436,303 437.5,305.5 437.833,308.667 442.666,311.833 448.833,316.333 452.166,320 453.333,324.334 453,328 454,330.167 
		458.166,332.334 462.666,334.834 465.5,338 468.667,341 473,346.5 474.667,352.167 474.167,364.5 472.333,369.167 468.5,374.667 
		464,377.167 458.833,377.167 453.5,375.834 447.667,371.167 444.333,367.667 440.5,363.5 436.333,357.834 433.167,352 
		429.667,349.167 424.5,347.667 419.333,347.334 414,349.667 410,353.167 406.667,356.667 403,360.5 397,363.834 390.333,366 
		382.5,367.833 375.167,369 367.667,371.333 357.333,373 357,370 354.25,364.25 349.75,359.25 346.5,355.25 344,350 341.75,344.5 
		339.75,337.5 338.75,332 337.041,327 333.75,320 330.5,314.75 327,311.25 323.625,304.125 321.625,299.375 318.25,292.875 
		315.25,287.5 313.25,283.375 313.5,280.625 315,277.375 316.625,275.25 317.125,271.5 316.25,268.125 315.875,264.25 
		316.625,259.625 318.875,257.25 323.125,255.125 328,253.5 332.375,252.75 337.625,251.5 341.75,250.75 346.125,249.75 
		349.5,248.875 351.75,246.375 353.75,243 354.375,240.5 354.75,224.375 356.25,221.75 358.375,219.75 360,218.125 360.833,214.75 	
		"/>
	<polygon id="caidian" fill="none" stroke="#FFFFFF" stroke-miterlimit="10" points="164,351.5 160,348.25 157.75,347.5 
		137.5,348.25 134.25,347 134.25,341 130.667,340.667 126.5,340.5 121.333,336.833 118.5,334 115.5,331.333 114.333,324.667 
		113.333,320 111.333,316.5 109.167,312.167 105.833,310 103.833,309 102,308.833 103,313.166 101.833,315.5 98.833,317.5 
		96.167,320 94.5,323 94.5,326 95,333.833 96.333,338.666 97.333,344 99,348.333 99.167,351.833 98.667,355.833 95.833,359.666 
		92.333,359.666 87.167,359.666 83.833,359.666 80.833,361 78.167,366 77.5,382.833 76.333,382.333 74.833,380.166 73.833,378.5 
		70.833,378.333 68.333,379.833 67.5,382.5 65.333,388.166 60.333,392.833 56.333,397.333 52.167,403.333 46.167,413.333 
		35.667,424.5 29.5,426 25,427.833 18.833,432 15.333,435.166 13.667,437.666 13.667,442.5 14.833,446.333 16.5,448.833 19.5,450.5 
		24.667,452.166 29.167,453.666 29.167,468 30.5,469.833 32.5,472 35.167,474.5 35.167,484.166 36.833,487.5 40.333,491.166 
		43.167,493.833 43.833,497.5 43.833,506.334 50.667,501.501 54.333,497.834 56.833,495.834 59.5,494.501 62.167,494.501 
		64.667,495.501 67.167,497.668 71,498.668 74,498.001 76.167,496.501 77.833,493.668 79.5,489.834 81.167,485.168 82.833,483.501 
		86.167,481.668 88.5,478.167 89.333,466.334 90.5,463.834 92.333,460.167 93.5,458.001 127,457.834 129.5,459.001 132.5,459.501 
		135,457.334 139.167,456.501 142.167,456.667 147.667,456.667 151.5,456.667 154.5,455.667 155.333,453.834 157.167,451.167 
		158.667,450.334 160.5,451.167 162.167,452.501 166.167,456.834 167.667,461.001 169.667,465.001 173.5,463.001 177,457.667 
		181.5,451.834 185,447.501 186.833,441.667 188.417,437.834 191.333,434.501 194.667,429.167 196.167,424.334 198.5,420.834 
		200.5,417.834 205.333,412.167 210.5,407.501 212,403.667 211.917,399.417 210.083,397.75 209,394.583 209.333,392.25 210.75,390 
		212.583,388.25 212.833,385.75 212.25,383.583 210.833,381.917 209.833,380.417 206.167,379.583 202.833,377.667 199.167,376.667 
		195.5,375.5 191.5,372.333 188.5,370.5 182.667,368.833 178.333,367.667 172.667,362.333 170.667,358.333 166.333,354.833 	"/>
	<polygon id="dongxihu" fill="none" stroke="#FFFFFF" stroke-miterlimit="10" points="189.5,271.5 186.667,269.333 183.667,267.167 
		178.333,265.167 149.333,263.667 146.667,263 141.5,260.167 134.667,259 130.167,259.333 126.333,260 123.167,262.5 121,265.333 
		106,265.667 102.167,267.333 93.5,273.667 89.667,277.5 87.5,282 85.5,286.667 86,292 88,296.5 90.667,300 96,303.5 
		99.833,305.833 102,308.833 103.833,309 105.833,310 109.167,312.167 111.333,316.5 113.333,320 114.333,324.667 115.5,331.333 
		118.5,334 121.333,336.833 126.5,340.5 130.667,340.667 134.25,341 134.25,347 137.5,348.25 157.75,347.5 160,348.25 164,351.5 
		168.25,351.5 174.833,350 174.833,342.5 175.667,339 177.333,334.542 179.833,333 182.833,331.834 190.5,331.167 200.5,331.167 
		208,331.167 216.625,329.75 219.833,328.75 223.375,327.125 227.25,325.648 231.167,324.167 234.917,321.5 238.333,320 
		240.667,319.167 244.5,318 246.833,316.333 248.333,314.5 249.833,309.375 250.167,307.167 245.667,307.167 241.667,307.167 
		237.333,306.167 234.167,305.833 230.667,305.833 227.333,307.167 223.667,309.5 220.667,312.333 217,313.167 214.333,312.5 
		211.5,311.167 208.333,309.333 204.833,308.5 201.167,307.167 198.167,305.5 195.5,302.667 195.167,299.167 196.5,296.333 198,293 
		198.5,288.667 198.167,284.667 197,280.667 193.333,276.167 	"/>
	<polyline id="hannan" fill="none" stroke="#FFFFFF" stroke-miterlimit="10" points="43.833,506.563 43.833,510.667 44.833,514 
		47.5,517.333 50.333,519.333 57,522.5 60,524.833 60,540.167 62.5,541.667 65.5,541.667 67.667,538.833 70,536 73,535.833 
		77.167,538.5 78.833,534.167 82.5,525.333 85.667,518 87.333,513.833 89.833,507.5 92.833,501.833 97.667,496.833 101.667,493.833 
		107.833,491.333 112.333,490 118.5,491.333 122.333,494.333 126,498.5 128.333,502.333 132.833,509.333 135.667,515.5 
		140.5,523.083 142.333,525.583 146.25,522.25 152.75,515.834 157,511 158.75,506.334 160.25,498.5 160.25,479 161.5,475.5 
		164.25,470 165.75,468 169.667,465.001 167.667,461.001 166.167,456.834 162.167,452.501 160.5,451.167 158.667,450.334 
		157.167,451.167 155.333,453.834 154.5,455.667 151.5,456.667 147.667,456.667 142.167,456.667 139.167,456.501 135,457.334 
		132.5,459.501 129.5,459.001 127,457.834 93.5,458.001 92.333,460.167 90.5,463.834 89.333,466.334 88.5,478.167 86.167,481.668 
		82.833,483.501 81.167,485.168 79.5,489.834 77.833,493.668 76.167,496.501 74,498.001 71,498.668 67.167,497.668 64.667,495.501 
		62.167,494.501 59.5,494.501 56.833,495.834 54.333,497.834 50.667,501.501 47,504.167 	"/>
	<polygon id="hanyang" fill="none" stroke="#FFFFFF" stroke-miterlimit="10" points="164,351.5 166.333,354.833 170.667,358.333 
		172.667,362.333 178.333,367.667 182.667,368.833 188.5,370.5 191.5,372.333 195.5,375.5 199.167,376.667 202.833,377.667 
		206.167,379.583 209.833,380.417 210.833,381.917 212.25,383.583 212.833,385.75 212.583,388.25 210.75,390 209.333,392.25 
		209,394.583 210.083,397.75 211.917,399.417 214.833,398.167 217.5,395.501 219.583,393.834 223,390.167 224.917,387.751 
		226.417,385.584 228.417,382.917 230.75,379.751 232.417,376.917 234.083,373.084 234.5,370.584 235,367.25 236,363.167 234,364 
		232.333,364 231.167,364 219.583,364 216.833,362 212.667,359.167 209.333,357 206.833,355.5 204.833,354.667 197.167,354 
		195,352.334 191.417,350 189.5,347.584 186.833,346.667 182.667,346.834 178,349 174.833,350 170.292,350.75 	"/>
	<polyline id="hongshan" fill="none" stroke="#FFFFFF" stroke-miterlimit="10" points="357.333,373.751 356.625,376 
		354.875,379.875 352.25,383.625 348.75,386.875 346,384.25 342.25,382 337.041,380.313 331.25,381.75 328.75,385.5 327,389.643 
		325.5,395.75 323.25,399.417 321.25,403.25 316,406.25 311.25,406.25 306.75,404.25 303.666,399.417 300.25,397.25 295.75,395.75 
		289.5,395.75 287,399.417 285.25,403.75 283.25,404.75 280.333,403.5 275.499,400.5 273,399.417 271.25,399.417 270,402.25 
		269,406.25 267.167,410.25 265.25,415.5 263.75,420.5 260.25,421.75 257,421.75 251.5,419.5 247.5,417.25 242,415.25 
		238.833,415.75 236.667,416.75 234.167,421.75 233.375,424.75 231.167,427 228.25,427 223.75,427 219.583,425.5 217.75,430 
		217.75,437.25 217.75,440.25 215.75,443.5 212.833,443.5 212,440.25 209.25,438.75 206.25,439 203.583,440.75 201.917,442.25 
		198.25,439.75 194,437 191.333,434.501 194.667,429.167 196.167,424.334 198.5,420.834 200.5,417.834 205.333,412.167 
		210.5,407.501 212,403.667 211.917,399.417 214.833,398.167 217.5,395.501 219.583,393.834 223,390.167 224.917,387.751 
		226.417,385.584 228.417,382.917 230.664,379.868 230.75,379.751 232.333,381.75 233.375,385.5 234.167,389.584 235,393.75 
		236.667,395.75 243.25,395.75 245.875,395 249,392.375 251.25,388.25 253.375,385.75 255,383.75 258,382.625 260.875,381.75 
		263.75,381.625 267.375,382.5 271.125,383.75 275,383.75 275.499,382.875 273.375,381.125 272.25,379.25 271.875,376.875 
		272.375,374.375 273.375,372.375 275,370.25 276.875,368.5 278,366.75 276.625,365.375 273.5,365.25 270.25,365.875 
		267.375,367.875 265.75,370.5 264.75,373.751 262.125,375.459 258.563,376.125 254.625,373.751 253.375,371.459 253.375,367.875 
		253.375,364.75 254,360.125 255,356.375 256,352.5 257.25,350.75 259.5,348.75 261.875,346.667 263.75,344.25 268.75,345.75 
		275.499,347 284,347 290.5,346 296.5,344.75 303,345.75 308.5,349 311.75,352.25 315,356.25 318.75,359.25 321.5,360.75 
		325.75,359.25 330.25,359.25 339.5,359.25 344.834,359.25 349.75,359.25 349.75,359.667 354.25,364.25 357,370 357.333,373 	"/>
	<polygon id="huangpi" fill="none" stroke="#FFFFFF" stroke-miterlimit="10" points="189.5,271.5 192.333,269.833 192,245.5 
		190.667,244.167 188.5,241.167 188.833,237.667 190.833,235.167 190.5,225.833 187.833,220.833 186.5,215.833 184.667,209.5 
		183.833,202.333 183.167,194.667 182.667,188.667 184,184.333 186.167,179.667 187.333,176.167 187.5,165 185,160 184.167,154.167 
		184.833,147.5 186.5,142.333 190.167,139.5 194.167,135.833 195.167,108.5 198.833,105.167 205.5,101.833 210,96.5 212.667,92.833 
		213.333,88.667 213.833,80.667 204.167,74.333 198.5,69.833 193.333,61.666 191.333,56 191.333,49.667 196.833,43.333 
		196.833,32.667 203.333,27.5 207,23.167 209.333,18.167 212.167,14.833 216.5,11.5 221.333,8.667 232.333,8.667 237.667,11.167 
		242.167,14.167 244.833,18 247.167,19.5 253.333,20.833 260.167,21 264.833,23.333 272.5,23.333 279.167,22.167 286,21.5 
		288.167,24.5 288.167,29.667 286.167,35 283.5,40.167 281,44.667 280.834,63.833 284.5,67.5 287.5,69.667 291.5,71 296.334,72.333 
		299.334,76.667 300.834,80.667 299.334,86.5 304.167,90 308.167,92.833 312.5,94.167 318,96.167 321.833,99.833 324.833,105.667 
		324.833,126.833 323.833,131.833 321,137.833 319,143 317.5,147.5 317.833,154.5 326.334,160.667 331.667,165.167 338.834,170.833 
		346.666,178.5 353.333,186.5 360.833,195.833 360.833,214.75 360,218.125 358.375,219.75 356.25,221.75 354.75,224.375 
		354.375,240.5 353.75,243 351.75,246.375 349.5,248.875 346.125,249.75 341.75,250.75 337.625,251.5 332.375,252.75 328,253.5 
		323.125,255.125 318.875,257.25 316.625,259.625 315.875,264.25 316.25,268.125 317.125,271.5 316.625,275.25 315,277.375 
		313.5,280.625 313.25,283.375 315.25,287.5 318.25,292.875 321.625,299.375 323.625,304.125 327,311.25 321.667,309.333 
		316,308.167 309.833,307.5 302.833,307.5 291,307.667 285,308.167 280.333,308.333 275,306.667 270.667,305.5 268.333,305.833 
		264.667,307.167 262,308.333 257.5,308.167 253.333,307.667 250.167,307.167 245.667,307.167 241.667,307.167 237.333,306.167 
		234.167,305.833 230.667,305.833 227.333,307.167 223.667,309.5 220.667,312.333 217,313.167 214.333,312.5 211.5,311.167 
		208.333,309.333 204.833,308.5 201.167,307.167 198.167,305.5 195.5,302.667 195.167,299.167 196.5,296.333 198,293 198.5,288.667 
		198.167,284.667 197,280.667 193.333,276.167 	"/>
	<polygon id="jiangan" fill="none" stroke="#FFFFFF" stroke-miterlimit="10" points="280.333,308.333 277.25,313.167 273.5,317.25 
		269.25,321.25 265.5,324.25 259.75,328.25 254,334 249.833,338.5 246.833,342 243.167,347 241,352.667 237.333,360.75 
		235.667,358.167 234,355.334 233,352 234.167,349 236.167,346.167 238,343.834 238.667,340.167 238.833,337.334 238.167,334.542 
		236,332.667 234.917,330.167 233,328.334 231.167,324.167 234.917,321.5 238.333,320 240.667,319.167 244.5,318 246.833,316.333 
		248.333,314.5 249.833,309.375 250.167,307.167 253.333,307.667 257.5,308.167 262,308.333 264.667,307.167 268.333,305.833 
		270.667,305.5 275,306.667 	"/>
	<polyline id="jianghan" fill="none" stroke="#FFFFFF" stroke-miterlimit="10" points="232.333,364 234,364 236,363.167 
		237.333,360.75 235.667,358.167 234,355.334 233,352 234.167,349 236.167,346.167 238,343.834 238.667,340.167 238.833,337.334 
		238.167,334.542 236,332.667 234.917,330.167 233,328.334 231.167,324.167 227.25,325.648 223.375,327.125 219.833,328.75 
		216.625,329.75 208,331.167 209.333,336 211.667,338.167 214.833,339.667 218.167,340.584 218.167,347.5 221.333,351.5 224.5,354 
		228.333,356 231.167,357.333 231.167,364 	"/>
	<polyline id="jiangxia" fill="none" stroke="#FFFFFF" stroke-miterlimit="10" points="191.333,434.501 188.417,437.834 
		186.833,441.667 185,447.501 181.5,451.834 177,457.667 173.5,463.001 169.667,465.001 165.75,468 164.25,470 161.5,475.5 
		160.25,479 160.25,498.5 158.75,506.334 157,511 152.75,515.834 146.25,522.25 142.333,525.583 143.667,528.167 145.833,529.834 
		148.833,531.001 151.5,529.501 154.167,527.667 167,527.501 175,533.834 175,540.168 177.167,543.834 180,547.668 184.167,551.668 
		188.5,554.834 188.5,562.501 189.667,566.334 193.5,571.834 196.667,575.334 201.167,578.834 204.833,582.501 205,597.834 
		207.5,602.001 209.833,606.334 211.5,610.501 213,615.167 217.333,620.834 233.5,620.834 236.833,619.001 240.667,616.834 
		244.833,614.501 250.167,613.501 254.833,611.001 260.667,608.334 265,607 278.5,606.75 294,616.5 301.25,616.875 307.875,622.875 
		315.75,623.5 325.75,627.25 329.625,629 333.125,629.875 335.5,629 336.875,626.375 336.875,609.5 338.125,607 340.25,602.25 
		340.5,594.125 340.5,589.25 338.25,583.375 335.875,579.75 333,577.25 330.75,574.25 329.375,571.5 328.125,568.125 
		328.375,536.125 330.375,531.125 332.5,527.875 336.375,523.5 338.5,519.125 338.5,515 338.875,511 339.75,507.875 341.375,504.25 
		344,500.125 346.375,496.375 349.375,491.625 352.125,488 354.375,484.5 356.375,481.75 357,479 356.875,467.375 358.375,464.625 
		359.375,462.625 359.875,459 360,452.5 357.375,450.625 355.5,449.375 354.875,446.375 354.25,439.375 353.625,434.75 
		352.625,430.375 351.875,426 351.875,421.625 352.375,417 352.75,403.25 352.75,399.75 352.25,397.5 350.5,394.75 348.875,391.25 
		348.75,386.875 348.173,386.324 346,384.25 342.25,382 337.041,380.313 331.25,381.75 328.75,385.5 327,389.643 325.5,395.75 
		323.25,399.417 321.25,403.25 316,406.25 311.25,406.25 306.75,404.25 303.666,399.417 300.25,397.25 295.75,395.75 289.5,395.75 
		287,399.417 285.25,403.75 283.25,404.75 280.333,403.5 275.499,400.5 273,399.417 271.25,399.417 270,402.25 269,406.25 
		267.167,410.25 265.25,415.5 263.75,420.5 260.25,421.75 257,421.75 251.5,419.5 247.5,417.25 242,415.25 238.833,415.75 
		236.667,416.75 234.167,421.75 233.375,424.75 231.167,427 228.25,427 223.75,427 219.583,425.5 217.75,430 217.75,437.25 
		217.75,440.25 215.75,443.5 212.833,443.5 212,440.25 209.25,438.75 206.25,439 203.583,440.75 201.917,442.25 198.25,439.75 
		194,437 191.333,434.501 	"/>
	<polygon id="qiaokou" fill="none" stroke="#FFFFFF" stroke-miterlimit="10" points="208,331.167 209.333,336 211.667,338.167 
		214.833,339.667 218.167,340.584 218.167,347.5 221.333,351.5 224.5,354 228.333,356 231.167,357.333 231.167,364 219.583,364 
		216.833,362 212.667,359.167 209.333,357 206.833,355.5 204.833,354.667 197.167,354 195,352.334 191.417,350 189.5,347.584 
		186.833,346.667 182.667,346.834 178,349 174.833,350 174.833,342.5 175.667,339 177.333,334.542 179.833,333 182.833,331.834 
		190.5,331.167 200.5,331.167 	"/>
	<polyline id="qingshan" fill="none" stroke="#FFFFFF" stroke-miterlimit="10" points="327,311.25 321.667,309.333 316,308.167 
		309.833,307.5 302.833,307.5 291,307.667 285,308.167 280.333,308.333 277.25,313.167 273.5,317.25 269.25,321.25 265.5,324.25 
		259.75,328.25 254,334 257.25,338.5 260,341.25 263.75,344.25 268.75,345.75 275.499,347 284,347 290.5,346 296.5,344.75 
		303,345.75 308.5,349 311.75,352.25 315,356.25 318.75,359.25 321.5,360.75 325.75,359.25 330.25,359.25 339.5,359.25 
		344.834,359.25 349.75,359.25 346.5,355.25 344,350 341.75,344.5 339.75,337.5 338.75,332 337.041,327 333.75,320 330.5,314.75 
		327,311.25 	"/>
	<polygon id="wuchang" fill="none" stroke="#FFFFFF" stroke-miterlimit="10" points="236,363.167 235,367.25 234.5,370.584 
		234.083,373.084 232.417,376.917 230.75,379.751 232.333,381.75 233.375,385.5 234.167,389.584 235,393.75 236.667,395.75 
		243.25,395.75 245.875,395 249,392.375 251.25,388.25 253.375,385.75 255,383.75 258,382.625 260.875,381.75 263.75,381.625 
		267.375,382.5 271.125,383.75 275,383.75 275.499,382.875 273.375,381.125 272.25,379.25 271.875,376.875 272.375,374.375 
		273.375,372.375 275,370.25 276.875,368.5 278,366.75 276.625,365.375 273.5,365.25 270.25,365.875 267.375,367.875 265.75,370.5 
		264.75,373.751 262.125,375.459 258.563,376.125 254.625,373.751 253.375,371.459 253.375,367.875 253.375,364.75 254,360.125 
		255,356.375 256,352.5 257.25,350.75 259.5,348.75 261.875,346.667 263.75,344.25 260,341.25 257.25,338.5 254,334 249.833,338.5 
		246.833,342 243.167,347 241,352.667 237.333,360.75 	"/>
</g>
<circle fill="none" stroke="#FFFFFF" stroke-miterlimit="10" cx="380.417" cy="251.167" r="2.25"/>
<circle fill="none" stroke="#FFFFFF" stroke-miterlimit="10" cx="97.083" cy="409.834" r="2.25"/>
<circle fill="none" stroke="#FFFFFF" stroke-miterlimit="10" cx="129.5" cy="305.25" r="2.25"/>
<circle fill="none" stroke="#FFFFFF" stroke-miterlimit="10" cx="113.25" cy="475.835" r="2.25"/>
<circle fill="none" stroke="#FFFFFF" stroke-miterlimit="10" cx="184.917" cy="364" r="2.25"/>
<circle fill="none" stroke="#FFFFFF" stroke-miterlimit="10" cx="282.583" cy="373.042" r="2.25"/>
<circle fill="none" stroke="#FFFFFF" stroke-miterlimit="10" cx="241.083" cy="171.952" r="2.25"/>
<circle fill="none" stroke="#FFFFFF" stroke-miterlimit="10" cx="245.583" cy="328.667" r="2.25"/>
<circle fill="none" stroke="#FFFFFF" stroke-miterlimit="10" cx="225.667" cy="341.833" r="2.25"/>
<circle fill="none" stroke="#FFFFFF" stroke-miterlimit="10" cx="243.333" cy="487.25" r="2.25"/>
<circle fill="none" stroke="#FFFFFF" stroke-miterlimit="10" cx="245.583" cy="364" r="2.25"/>
<circle fill="none" stroke="#FFFFFF" stroke-miterlimit="10" cx="284.833" cy="326.417" r="2.25"/>
<circle fill="none" stroke="#FFFFFF" stroke-miterlimit="10" cx="203" cy="344.25" r="2.25"/>
</svg>
