<?xml version="1.0" encoding="utf-8"?>
<!-- Generator: Adobe Illustrator 16.0.0, SVG Export Plug-In . SVG Version: 6.00 Build 0)  -->
<!DOCTYPE svg PUBLIC "-//W3C//DTD SVG 1.1//EN" "http://www.w3.org/Graphics/SVG/1.1/DTD/svg11.dtd">
<svg version="1.1" id="图层_1" xmlns="http://www.w3.org/2000/svg" xmlns:xlink="http://www.w3.org/1999/xlink" x="0px" y="0px"
	 width="550px" height="640px" viewBox="0 0 550 640" enable-background="new 0 0 550 640" xml:space="preserve">
<g>
	<polygon fill="#9B64A7" stroke="#FFFFFF" stroke-miterlimit="10" points="360.833,195.833 371.333,195.833 375.666,192.167 
		380.666,190 384,189.167 386.333,190.333 389.166,192.5 389.166,180.167 392.666,176 396,173.333 404.166,173.167 406,171 
		407.833,169.833 419.666,169.667 424,167.5 426.5,165.667 430.833,165.333 433.333,166.833 434.833,169.667 434.833,181.167 
		436.333,183.667 438.666,185 441.833,186.5 453,186.5 456.833,183.667 457.666,181.167 457.666,178.833 455.5,177.667 
		452.166,176.5 450.333,174.333 450.5,171.167 452,168.333 455.666,165.667 458.666,163 463,160.833 467,159.667 477.5,159.5 
		482.5,163.167 485.333,165.333 487.833,166.833 490.166,167.667 492.666,166.667 493.5,164.5 493.5,156.833 495,154.667 
		497.5,154.5 499.666,156.667 499.666,182.167 502,185.833 507.666,192 512.5,195.833 518.166,199.667 522.666,202.5 527.5,205 
		533.166,209.5 535.333,214.667 536.166,217.333 534.5,220.333 530.833,224.333 526.5,229.167 522.5,232.167 518.833,234.167 
		514.833,232.667 510.666,229 508.166,229 506.166,232.833 506,237.167 505.166,244 503.333,248.167 500.333,251.667 496,253.667 
		489.666,253.667 491,259.167 491.5,262.5 489.333,264.333 485,264.333 483.166,262.5 480.333,260 477.833,260.833 474.833,262.333 
		471.666,261.333 468.166,260.5 464.833,259.5 460.833,260.167 460.166,263.167 459.5,270.667 457.666,273.167 454,276.667 
		449.166,280.167 443.833,282.667 439.166,285.667 432.5,288.5 428.666,290.167 428.833,293.833 431,297.5 436,303 437.5,305.5 
		437.833,308.667 442.666,311.833 448.833,316.333 452.166,320 453.333,324.334 453,328 454,330.167 458.166,332.334 
		462.666,334.834 465.5,338 468.667,341 473,346.5 474.667,352.167 474.167,364.5 472.333,369.167 468.5,374.667 464,377.167 
		458.833,377.167 453.5,375.834 447.667,371.167 444.333,367.667 440.5,363.5 436.333,357.834 433.167,352 429.667,349.167 
		424.5,347.667 419.333,347.334 414,349.667 410,353.167 406.667,356.667 403,360.5 397,363.834 390.333,366 382.5,367.833 
		375.167,369 367.667,371.333 357.333,373 357,370 354.25,364.25 349.75,359.25 346.5,355.25 344,350 341.75,344.5 339.75,337.5 
		338.75,332 337.041,327 333.75,320 330.5,314.75 327,311.25 323.625,304.125 321.625,299.375 318.25,292.875 315.25,287.5 
		313.25,283.375 313.5,280.625 315,277.375 316.625,275.25 317.125,271.5 316.25,268.125 315.875,264.25 316.625,259.625 
		318.875,257.25 323.125,255.125 328,253.5 332.375,252.75 337.625,251.5 341.75,250.75 346.125,249.75 349.5,248.875 
		351.75,246.375 353.75,243 354.375,240.5 354.75,224.375 356.25,221.75 358.375,219.75 360,218.125 360.833,214.75 	"/>
</g>
</svg>
